G04*
G04 #@! TF.GenerationSoftware,Altium Limited,Altium Designer,23.8.1 (32)*
G04*
G04 Layer_Color=128*
%FSLAX25Y25*%
%MOIN*%
G70*
G04*
G04 #@! TF.SameCoordinates,823993F6-8BEF-49D6-9206-44A6C2E96FBA*
G04*
G04*
G04 #@! TF.FilePolarity,Positive*
G04*
G01*
G75*
%ADD14C,0.00500*%
D14*
X465492Y310500D02*
X469508D01*
X467500Y308492D02*
Y312508D01*
X465492Y320500D02*
X469508D01*
X467500Y318492D02*
Y322508D01*
X465492Y330500D02*
X469508D01*
X467500Y328492D02*
Y332508D01*
X465492Y340500D02*
X469508D01*
X467500Y338492D02*
Y342508D01*
X440894Y501000D02*
X445106D01*
X443000Y498894D02*
Y503106D01*
X440894Y491000D02*
X445106D01*
X443000Y488894D02*
Y493106D01*
X440894Y481000D02*
X445106D01*
X443000Y478894D02*
Y483106D01*
X374606Y452500D02*
X388386D01*
X381496Y445610D02*
Y459390D01*
X446185Y293862D02*
X459965D01*
X453075Y286972D02*
Y300752D01*
X305598Y293862D02*
X319378D01*
X312488Y286972D02*
Y300752D01*
X295992Y361000D02*
X300008D01*
X298000Y358992D02*
Y363008D01*
X295992Y351000D02*
X300008D01*
X298000Y348992D02*
Y353008D01*
X295992Y341000D02*
X300008D01*
X298000Y338992D02*
Y343008D01*
X295992Y331000D02*
X300008D01*
X298000Y328992D02*
Y333008D01*
X295992Y321000D02*
X300008D01*
X298000Y318992D02*
Y323008D01*
X295992Y311000D02*
X300008D01*
X298000Y308992D02*
Y313008D01*
X415228Y508500D02*
X421134D01*
X418181Y505547D02*
Y511453D01*
X403417Y508500D02*
X409323D01*
X406370Y505547D02*
Y511453D01*
X391606Y508500D02*
X397512D01*
X394559Y505547D02*
Y511453D01*
X379795Y508500D02*
X385701D01*
X382748Y505547D02*
Y511453D01*
X367984Y508500D02*
X373890D01*
X370937Y505547D02*
Y511453D01*
X356173Y508500D02*
X362079D01*
X359126Y505547D02*
Y511453D01*
X344362Y508500D02*
X350268D01*
X347315Y505547D02*
Y511453D01*
X350268Y498658D02*
X356173D01*
X353221Y495705D02*
Y501610D01*
X362079Y498658D02*
X367984D01*
X365032Y495705D02*
Y501610D01*
X373890Y498658D02*
X379795D01*
X376842Y495705D02*
Y501610D01*
X385701Y498658D02*
X391606D01*
X388653Y495705D02*
Y501610D01*
X397512Y498658D02*
X403417D01*
X400465Y495705D02*
Y501610D01*
X409323Y498658D02*
X415228D01*
X412276Y495705D02*
Y501610D01*
X409323Y486846D02*
X415228D01*
X412276Y483894D02*
Y489799D01*
X397512Y486846D02*
X403417D01*
X400465Y483894D02*
Y489799D01*
X385701Y486846D02*
X391606D01*
X388653Y483894D02*
Y489799D01*
X373890Y486846D02*
X379795D01*
X376842Y483894D02*
Y489799D01*
X362079Y486846D02*
X367984D01*
X365032Y483894D02*
Y489799D01*
X350268Y486846D02*
X356173D01*
X353221Y483894D02*
Y489799D01*
X344362Y477004D02*
X350268D01*
X347315Y474051D02*
Y479957D01*
X356173Y477004D02*
X362079D01*
X359126Y474051D02*
Y479957D01*
X367984Y477004D02*
X373890D01*
X370937Y474051D02*
Y479957D01*
X379795Y477004D02*
X385701D01*
X382748Y474051D02*
Y479957D01*
X391606Y477004D02*
X397512D01*
X394559Y474051D02*
Y479957D01*
X403417Y477004D02*
X409323D01*
X406370Y474051D02*
Y479957D01*
X415228Y477004D02*
X421134D01*
X418181Y474051D02*
Y479957D01*
X440031Y534091D02*
X453417D01*
X446724Y527398D02*
Y540784D01*
X312079Y534091D02*
X325465D01*
X318772Y527398D02*
Y540784D01*
X373632Y311223D02*
X374813D01*
X374223Y310632D02*
Y311813D01*
X372410Y298000D02*
X373590D01*
X373000Y297410D02*
Y298590D01*
X347909Y345000D02*
X349091D01*
X348500Y344409D02*
Y345590D01*
X465945Y531496D02*
X467126D01*
X466535Y530905D02*
Y532086D01*
X460039Y519685D02*
X461220D01*
X460630Y519094D02*
Y520275D01*
X465945Y507874D02*
X467126D01*
X466535Y507283D02*
Y508464D01*
X460039Y496063D02*
X461220D01*
X460630Y495472D02*
Y496653D01*
X465945Y484252D02*
X467126D01*
X466535Y483661D02*
Y484842D01*
X460039Y472441D02*
X461220D01*
X460630Y471850D02*
Y473031D01*
X465945Y460630D02*
X467126D01*
X466535Y460039D02*
Y461220D01*
X460039Y448819D02*
X461220D01*
X460630Y448228D02*
Y449409D01*
X465945Y437008D02*
X467126D01*
X466535Y436417D02*
Y437598D01*
X460039Y401575D02*
X461220D01*
X460630Y400984D02*
Y402165D01*
X465945Y389764D02*
X467126D01*
X466535Y389173D02*
Y390354D01*
X460039Y330709D02*
X461220D01*
X460630Y330118D02*
Y331299D01*
X465945Y295275D02*
X467126D01*
X466535Y294685D02*
Y295866D01*
X460039Y283465D02*
X461220D01*
X460630Y282874D02*
Y284055D01*
X448228Y519685D02*
X449409D01*
X448819Y519094D02*
Y520275D01*
X448228Y496063D02*
X449409D01*
X448819Y495472D02*
Y496653D01*
X448228Y472441D02*
X449409D01*
X448819Y471850D02*
Y473031D01*
X448228Y401575D02*
X449409D01*
X448819Y400984D02*
Y402165D01*
X436417Y519685D02*
X437598D01*
X437008Y519094D02*
Y520275D01*
X436417Y401575D02*
X437598D01*
X437008Y400984D02*
Y402165D01*
X442323Y389764D02*
X443504D01*
X442913Y389173D02*
Y390354D01*
X436417Y377953D02*
X437598D01*
X437008Y377362D02*
Y378543D01*
X436417Y283465D02*
X437598D01*
X437008Y282874D02*
Y284055D01*
X430512Y531496D02*
X431693D01*
X431102Y530905D02*
Y532086D01*
X424606Y496063D02*
X425787D01*
X425197Y495472D02*
Y496653D01*
X430512Y484252D02*
X431693D01*
X431102Y483661D02*
Y484842D01*
X430512Y460630D02*
X431693D01*
X431102Y460039D02*
Y461220D01*
X430512Y437008D02*
X431693D01*
X431102Y436417D02*
Y437598D01*
X424606Y283465D02*
X425787D01*
X425197Y282874D02*
Y284055D01*
X418701Y531496D02*
X419882D01*
X419291Y530905D02*
Y532086D01*
X412795Y307086D02*
X413976D01*
X413386Y306496D02*
Y307677D01*
X412795Y283465D02*
X413976D01*
X413386Y282874D02*
Y284055D01*
X406890Y531496D02*
X408071D01*
X407480Y530905D02*
Y532086D01*
X400984Y307086D02*
X402165D01*
X401575Y306496D02*
Y307677D01*
X400984Y283465D02*
X402165D01*
X401575Y282874D02*
Y284055D01*
X395079Y531496D02*
X396260D01*
X395669Y530905D02*
Y532086D01*
X389173Y283465D02*
X390354D01*
X389764Y282874D02*
Y284055D01*
X383268Y531496D02*
X384449D01*
X383858Y530905D02*
Y532086D01*
X383268Y413386D02*
X384449D01*
X383858Y412795D02*
Y413976D01*
X383268Y366142D02*
X384449D01*
X383858Y365551D02*
Y366732D01*
X377362Y283465D02*
X378543D01*
X377953Y282874D02*
Y284055D01*
X371457Y531496D02*
X372638D01*
X372047Y530905D02*
Y532086D01*
X371457Y460630D02*
X372638D01*
X372047Y460039D02*
Y461220D01*
X371457Y413386D02*
X372638D01*
X372047Y412795D02*
Y413976D01*
X359646Y531496D02*
X360827D01*
X360236Y530905D02*
Y532086D01*
X359646Y460630D02*
X360827D01*
X360236Y460039D02*
Y461220D01*
X359646Y295275D02*
X360827D01*
X360236Y294685D02*
Y295866D01*
X347834Y531496D02*
X349016D01*
X348425Y530905D02*
Y532086D01*
X341929Y377953D02*
X343110D01*
X342520Y377362D02*
Y378543D01*
X341929Y307086D02*
X343110D01*
X342520Y306496D02*
Y307677D01*
X347834Y295275D02*
X349016D01*
X348425Y294685D02*
Y295866D01*
X336023Y531496D02*
X337205D01*
X336614Y530905D02*
Y532086D01*
X330118Y519685D02*
X331299D01*
X330709Y519094D02*
Y520275D01*
X330118Y496063D02*
X331299D01*
X330709Y495472D02*
Y496653D01*
X330118Y472441D02*
X331299D01*
X330709Y471850D02*
Y473031D01*
X330118Y377953D02*
X331299D01*
X330709Y377362D02*
Y378543D01*
X336023Y318898D02*
X337205D01*
X336614Y318307D02*
Y319488D01*
X330118Y283465D02*
X331299D01*
X330709Y282874D02*
Y284055D01*
X318307Y519685D02*
X319488D01*
X318898Y519094D02*
Y520275D01*
X324213Y507874D02*
X325394D01*
X324803Y507283D02*
Y508464D01*
X318307Y496063D02*
X319488D01*
X318898Y495472D02*
Y496653D01*
X324213Y484252D02*
X325394D01*
X324803Y483661D02*
Y484842D01*
X318307Y472441D02*
X319488D01*
X318898Y471850D02*
Y473031D01*
X324213Y460630D02*
X325394D01*
X324803Y460039D02*
Y461220D01*
X318307Y448819D02*
X319488D01*
X318898Y448228D02*
Y449409D01*
X318307Y377953D02*
X319488D01*
X318898Y377362D02*
Y378543D01*
X318307Y354331D02*
X319488D01*
X318898Y353740D02*
Y354921D01*
X324213Y342520D02*
X325394D01*
X324803Y341929D02*
Y343110D01*
X324213Y295275D02*
X325394D01*
X324803Y294685D02*
Y295866D01*
X318307Y283465D02*
X319488D01*
X318898Y282874D02*
Y284055D01*
X306496Y519685D02*
X307677D01*
X307086Y519094D02*
Y520275D01*
X312402Y507874D02*
X313583D01*
X312992Y507283D02*
Y508464D01*
X306496Y496063D02*
X307677D01*
X307086Y495472D02*
Y496653D01*
X312402Y484252D02*
X313583D01*
X312992Y483661D02*
Y484842D01*
X306496Y472441D02*
X307677D01*
X307086Y471850D02*
Y473031D01*
X312402Y460630D02*
X313583D01*
X312992Y460039D02*
Y461220D01*
X312402Y437008D02*
X313583D01*
X312992Y436417D02*
Y437598D01*
X306496Y401575D02*
X307677D01*
X307086Y400984D02*
Y402165D01*
X306496Y377953D02*
X307677D01*
X307086Y377362D02*
Y378543D01*
X312402Y366142D02*
X313583D01*
X312992Y365551D02*
Y366732D01*
X306496Y354331D02*
X307677D01*
X307086Y353740D02*
Y354921D01*
X312402Y342520D02*
X313583D01*
X312992Y341929D02*
Y343110D01*
X306496Y283465D02*
X307677D01*
X307086Y282874D02*
Y284055D01*
X366910Y331000D02*
X368091D01*
X367500Y330410D02*
Y331591D01*
X367910Y335000D02*
X369091D01*
X368500Y334409D02*
Y335591D01*
X366910Y343000D02*
X368091D01*
X367500Y342409D02*
Y343590D01*
X423409Y369000D02*
X424590D01*
X424000Y368409D02*
Y369591D01*
X464910Y354500D02*
X466090D01*
X465500Y353909D02*
Y355090D01*
X439409Y369000D02*
X440590D01*
X440000Y368409D02*
Y369590D01*
X429910Y350000D02*
X431090D01*
X430500Y349410D02*
Y350590D01*
X409410Y358500D02*
X410591D01*
X410000Y357909D02*
Y359090D01*
X366910Y339500D02*
X368091D01*
X367500Y338910D02*
Y340090D01*
X376909Y299000D02*
X378091D01*
X377500Y298410D02*
Y299590D01*
X389409Y312500D02*
X390591D01*
X390000Y311910D02*
Y313090D01*
X362910Y393000D02*
X364090D01*
X363500Y392409D02*
Y393590D01*
X375909Y373000D02*
X377091D01*
X376500Y372410D02*
Y373590D01*
X393409Y391500D02*
X394590D01*
X394000Y390910D02*
Y392091D01*
X403909Y401500D02*
X405091D01*
X404500Y400910D02*
Y402091D01*
X415909Y410000D02*
X417091D01*
X416500Y409410D02*
Y410591D01*
X385409Y407500D02*
X386591D01*
X386000Y406910D02*
Y408090D01*
X405909Y413500D02*
X407091D01*
X406500Y412910D02*
Y414090D01*
X352909Y385500D02*
X354090D01*
X353500Y384910D02*
Y386090D01*
X352909Y319500D02*
X354090D01*
X353500Y318910D02*
Y320091D01*
X344910Y316500D02*
X346091D01*
X345500Y315910D02*
Y317091D01*
X358910Y416000D02*
X360090D01*
X359500Y415410D02*
Y416590D01*
X344409Y353000D02*
X345590D01*
X345000Y352410D02*
Y353590D01*
X435409Y514500D02*
X436590D01*
X436000Y513909D02*
Y515091D01*
X308910Y404500D02*
X310090D01*
X309500Y403909D02*
Y405091D01*
X297909Y444500D02*
X299091D01*
X298500Y443910D02*
Y445090D01*
X339910Y387000D02*
X341090D01*
X340500Y386409D02*
Y387591D01*
X339910Y412500D02*
X341090D01*
X340500Y411909D02*
Y413091D01*
X421410Y388000D02*
X422590D01*
X422000Y387409D02*
Y388591D01*
X426409Y388000D02*
X427591D01*
X427000Y387409D02*
Y388591D01*
X455409Y388000D02*
X456591D01*
X456000Y387409D02*
Y388591D01*
X450410Y388000D02*
X451590D01*
X451000Y387409D02*
Y388591D01*
M02*
