G04*
G04 #@! TF.GenerationSoftware,Altium Limited,Altium Designer,23.8.1 (32)*
G04*
G04 Layer_Color=255*
%FSLAX25Y25*%
%MOIN*%
G70*
G04*
G04 #@! TF.SameCoordinates,823993F6-8BEF-49D6-9206-44A6C2E96FBA*
G04*
G04*
G04 #@! TF.FilePolarity,Positive*
G04*
G01*
G75*
%ADD53R,0.05394X0.05394*%
%ADD54C,0.05394*%
%ADD55R,0.06319X0.06319*%
%ADD56C,0.06319*%
%ADD57C,0.17717*%
%ADD58R,0.08858X0.08858*%
%ADD59C,0.08858*%
%ADD60C,0.20079*%
D53*
X467500Y310500D02*
D03*
X298000Y311000D02*
D03*
D54*
X467500Y320500D02*
D03*
Y330500D02*
D03*
Y340500D02*
D03*
X298000Y361000D02*
D03*
Y351000D02*
D03*
Y341000D02*
D03*
Y331000D02*
D03*
Y321000D02*
D03*
D55*
X443000Y501000D02*
D03*
D56*
Y491000D02*
D03*
Y481000D02*
D03*
D57*
X381496Y452500D02*
D03*
X453075Y293862D02*
D03*
X312488D02*
D03*
D58*
X418181Y508500D02*
D03*
D59*
X406370D02*
D03*
X394559D02*
D03*
X382748D02*
D03*
X370937D02*
D03*
X359126D02*
D03*
X347315D02*
D03*
X353221Y498658D02*
D03*
X365032D02*
D03*
X376842D02*
D03*
X388653D02*
D03*
X400465D02*
D03*
X412276D02*
D03*
Y486846D02*
D03*
X400465D02*
D03*
X388653D02*
D03*
X376842D02*
D03*
X365032D02*
D03*
X353221D02*
D03*
X347315Y477004D02*
D03*
X359126D02*
D03*
X370937D02*
D03*
X382748D02*
D03*
X394559D02*
D03*
X406370D02*
D03*
X418181D02*
D03*
D60*
X446724Y534091D02*
D03*
X318772D02*
D03*
M02*
