G04*
G04 #@! TF.GenerationSoftware,Altium Limited,Altium Designer,23.8.1 (32)*
G04*
G04 Layer_Color=32896*
%FSLAX25Y25*%
%MOIN*%
G70*
G04*
G04 #@! TF.SameCoordinates,823993F6-8BEF-49D6-9206-44A6C2E96FBA*
G04*
G04*
G04 #@! TF.FilePolarity,Positive*
G04*
G01*
G75*
%ADD15C,0.01000*%
G36*
X389408Y348056D02*
X389608D01*
Y347457D01*
X389808D01*
Y347058D01*
X390007D01*
Y346459D01*
X390207D01*
Y345860D01*
X390406D01*
Y345460D01*
X390606D01*
Y344862D01*
X390806D01*
Y344462D01*
X391005D01*
Y343863D01*
X391205D01*
Y343264D01*
X391405D01*
Y342865D01*
X391604D01*
Y342266D01*
X391804D01*
Y341867D01*
X392004D01*
Y341268D01*
X392203D01*
Y340669D01*
X392403D01*
Y340270D01*
X392602D01*
Y339671D01*
X392802D01*
Y339072D01*
X393002D01*
Y338673D01*
X393201D01*
Y338273D01*
X392203D01*
Y338473D01*
X391005D01*
Y338673D01*
X390007D01*
Y338872D01*
X389608D01*
Y334879D01*
X389808D01*
Y334680D01*
X390207D01*
Y334879D01*
X390007D01*
Y338273D01*
X390406D01*
Y338074D01*
X391405D01*
Y337874D01*
X392403D01*
Y337674D01*
X393401D01*
Y333083D01*
X393601D01*
Y332883D01*
X393800D01*
Y332683D01*
X394000D01*
Y332484D01*
X394200D01*
Y332284D01*
X394599D01*
Y332084D01*
X394799D01*
Y331685D01*
X394998D01*
Y331486D01*
X395198D01*
Y331286D01*
X395397D01*
Y331086D01*
X395597D01*
Y330887D01*
X395797D01*
Y330487D01*
X395996D01*
Y330288D01*
X396196D01*
Y329889D01*
X396396D01*
Y329489D01*
X396595D01*
Y329090D01*
X396795D01*
Y328691D01*
X396995D01*
Y328092D01*
X397194D01*
Y327493D01*
X397394D01*
Y326295D01*
X397593D01*
Y323500D01*
X397394D01*
Y322502D01*
X397194D01*
Y321903D01*
X396995D01*
Y321304D01*
X396795D01*
Y320905D01*
X396595D01*
Y320505D01*
X396396D01*
Y320106D01*
X396196D01*
Y319707D01*
X395996D01*
Y319307D01*
X395797D01*
Y319108D01*
X395597D01*
Y318908D01*
X395397D01*
Y318509D01*
X395198D01*
Y318309D01*
X394998D01*
Y318110D01*
X394799D01*
Y317910D01*
X394599D01*
Y317710D01*
X394399D01*
Y317511D01*
X394200D01*
Y317311D01*
X393800D01*
Y317111D01*
X393601D01*
Y316912D01*
X393401D01*
Y316712D01*
X393002D01*
Y316513D01*
X392802D01*
Y316313D01*
X392403D01*
Y316113D01*
X392004D01*
Y315914D01*
X391604D01*
Y315714D01*
X391205D01*
Y315514D01*
X390606D01*
Y315315D01*
X389808D01*
Y315115D01*
X388610D01*
Y314915D01*
X386613D01*
Y315115D01*
X385416D01*
Y315315D01*
X384617D01*
Y315514D01*
X384018D01*
Y315714D01*
X383619D01*
Y315914D01*
X383020D01*
Y316113D01*
X382820D01*
Y316313D01*
X382421D01*
Y316513D01*
X382022D01*
Y316712D01*
X381822D01*
Y316912D01*
X381423D01*
Y317111D01*
X381223D01*
Y317311D01*
X381023D01*
Y317511D01*
X380824D01*
Y317710D01*
X380624D01*
Y317910D01*
X380424D01*
Y318110D01*
X380225D01*
Y318309D01*
X380025D01*
Y318509D01*
X379825D01*
Y318709D01*
X379626D01*
Y319108D01*
X379426D01*
Y319307D01*
X379227D01*
Y319707D01*
X379027D01*
Y319906D01*
X378827D01*
Y320306D01*
X378628D01*
Y320705D01*
X378428D01*
Y321104D01*
X378228D01*
Y321703D01*
X378029D01*
Y322302D01*
X377829D01*
Y323300D01*
X377629D01*
Y326694D01*
X377829D01*
Y327693D01*
X378029D01*
Y328291D01*
X378228D01*
Y328691D01*
X378428D01*
Y329290D01*
X378628D01*
Y329689D01*
X378827D01*
Y330088D01*
X379027D01*
Y330288D01*
X379227D01*
Y330687D01*
X379426D01*
Y330887D01*
X379626D01*
Y331086D01*
X379825D01*
Y331486D01*
X380025D01*
Y331685D01*
X380225D01*
Y331885D01*
X380424D01*
Y332084D01*
X380624D01*
Y332284D01*
X380824D01*
Y332484D01*
X381023D01*
Y332683D01*
X381423D01*
Y332883D01*
X381622D01*
Y333083D01*
X381822D01*
Y333282D01*
X382221D01*
Y333482D01*
X382421D01*
Y334281D01*
X382221D01*
Y339671D01*
X382820D01*
Y339471D01*
X384018D01*
Y339272D01*
X385016D01*
Y339072D01*
X385615D01*
Y337475D01*
X385815D01*
Y334879D01*
X386214D01*
Y338473D01*
X386014D01*
Y342666D01*
X387212D01*
Y342466D01*
X388410D01*
Y342266D01*
X389408D01*
Y345261D01*
X389209D01*
Y348455D01*
X389408D01*
Y348056D01*
D02*
G37*
%LPC*%
G36*
X388610Y331486D02*
X386613D01*
Y331286D01*
X385815D01*
Y331086D01*
X385216D01*
Y330887D01*
X384617D01*
Y330687D01*
X384417D01*
Y330487D01*
X384018D01*
Y330288D01*
X383818D01*
Y330088D01*
X383419D01*
Y329889D01*
X383219D01*
Y329689D01*
X383020D01*
Y329489D01*
X382820D01*
Y329290D01*
X382621D01*
Y329090D01*
X382421D01*
Y328691D01*
X382221D01*
Y328491D01*
X382022D01*
Y328092D01*
X381822D01*
Y327693D01*
X381622D01*
Y327293D01*
X381423D01*
Y326694D01*
X381223D01*
Y325496D01*
X381023D01*
Y324299D01*
X381223D01*
Y323300D01*
X381423D01*
Y322701D01*
X381622D01*
Y322102D01*
X381822D01*
Y321703D01*
X382022D01*
Y321504D01*
X382221D01*
Y321104D01*
X382421D01*
Y320905D01*
X382621D01*
Y320705D01*
X382820D01*
Y320505D01*
X383020D01*
Y320306D01*
X383219D01*
Y320106D01*
X383419D01*
Y319906D01*
X383619D01*
Y319707D01*
X384018D01*
Y319507D01*
X384218D01*
Y319307D01*
X384617D01*
Y319108D01*
X385016D01*
Y318908D01*
X385615D01*
Y318709D01*
X386214D01*
Y318509D01*
X388809D01*
Y318709D01*
X389608D01*
Y318908D01*
X390207D01*
Y319108D01*
X390606D01*
Y319307D01*
X391005D01*
Y319507D01*
X391205D01*
Y319707D01*
X391604D01*
Y319906D01*
X391804D01*
Y320106D01*
X392004D01*
Y320306D01*
X392203D01*
Y320505D01*
X392403D01*
Y320705D01*
X392602D01*
Y320905D01*
X392802D01*
Y321304D01*
X393002D01*
Y321504D01*
X393201D01*
Y321903D01*
X393401D01*
Y322302D01*
X393601D01*
Y322901D01*
X393800D01*
Y323500D01*
X394000D01*
Y326495D01*
X393800D01*
Y327094D01*
X393601D01*
Y327693D01*
X393401D01*
Y328092D01*
X393201D01*
Y328291D01*
X393002D01*
Y328691D01*
X392802D01*
Y328890D01*
X392602D01*
Y329290D01*
X392403D01*
Y329489D01*
X392203D01*
Y329689D01*
X392004D01*
Y329889D01*
X391604D01*
Y330088D01*
X391405D01*
Y330288D01*
X391205D01*
Y330487D01*
X390806D01*
Y330687D01*
X390406D01*
Y330887D01*
X390007D01*
Y331086D01*
X389408D01*
Y331286D01*
X388610D01*
Y331486D01*
D02*
G37*
%LPD*%
G36*
X388809Y329889D02*
X389209D01*
Y329689D01*
X389408D01*
Y329489D01*
X389608D01*
Y329090D01*
X389808D01*
Y327892D01*
X389608D01*
Y327493D01*
X389408D01*
Y327293D01*
X389209D01*
Y327094D01*
X388809D01*
Y326894D01*
X387612D01*
Y327094D01*
X387212D01*
Y327293D01*
X387013D01*
Y327493D01*
X386813D01*
Y327693D01*
X386613D01*
Y329290D01*
X386813D01*
Y329489D01*
X387013D01*
Y329689D01*
X387212D01*
Y329889D01*
X387612D01*
Y330088D01*
X388809D01*
Y329889D01*
D02*
G37*
D15*
X380500Y344000D02*
Y427500D01*
X382752Y427000D02*
X386688D01*
Y425032D01*
X386032Y424376D01*
X383408D01*
X382752Y425032D01*
Y427000D01*
X386688Y421096D02*
Y422408D01*
X386032Y423064D01*
X384720D01*
X384064Y422408D01*
Y421096D01*
X384720Y420440D01*
X385376D01*
Y423064D01*
X386688Y419129D02*
Y417161D01*
X386032Y416505D01*
X385376Y417161D01*
Y418473D01*
X384720Y419129D01*
X384064Y418473D01*
Y416505D01*
X386688Y415193D02*
Y413881D01*
Y414537D01*
X384064D01*
Y415193D01*
X388000Y410601D02*
Y409945D01*
X387344Y409289D01*
X384064D01*
Y411257D01*
X384720Y411913D01*
X386032D01*
X386688Y411257D01*
Y409289D01*
Y407977D02*
X384064D01*
Y406009D01*
X384720Y405353D01*
X386688D01*
Y402074D02*
Y403386D01*
X386032Y404041D01*
X384720D01*
X384064Y403386D01*
Y402074D01*
X384720Y401418D01*
X385376D01*
Y404041D01*
X382752Y397482D02*
X386688D01*
Y399450D01*
X386032Y400106D01*
X384720D01*
X384064Y399450D01*
Y397482D01*
X382752Y392234D02*
X386688D01*
Y390266D01*
X386032Y389611D01*
X385376D01*
X384720Y390266D01*
Y392234D01*
Y390266D01*
X384064Y389611D01*
X383408D01*
X382752Y390266D01*
Y392234D01*
X384064Y388299D02*
X386032D01*
X386688Y387643D01*
Y385675D01*
X387344D01*
X388000Y386331D01*
Y386987D01*
X386688Y385675D02*
X384064D01*
Y384363D02*
Y383707D01*
X384720D01*
Y384363D01*
X384064D01*
X386032D02*
Y383707D01*
X386688D01*
Y384363D01*
X386032D01*
X373752Y427000D02*
X377688D01*
Y425032D01*
X377032Y424376D01*
X374408D01*
X373752Y425032D01*
Y427000D01*
X375064Y423064D02*
X377032D01*
X377688Y422408D01*
Y420440D01*
X378344D01*
X379000Y421096D01*
Y421752D01*
X377688Y420440D02*
X375064D01*
X377688Y419129D02*
X375064D01*
Y417161D01*
X375720Y416505D01*
X377688D01*
X375064Y414537D02*
Y413225D01*
X375720Y412569D01*
X377688D01*
Y414537D01*
X377032Y415193D01*
X376376Y414537D01*
Y412569D01*
X377688Y411257D02*
X375064D01*
Y410601D01*
X375720Y409945D01*
X377688D01*
X375720D01*
X375064Y409289D01*
X375720Y408633D01*
X377688D01*
Y407321D02*
Y406009D01*
Y406665D01*
X375064D01*
Y407321D01*
Y401418D02*
Y403386D01*
X375720Y404041D01*
X377032D01*
X377688Y403386D01*
Y401418D01*
Y400106D02*
Y398138D01*
X377032Y397482D01*
X376376Y398138D01*
Y399450D01*
X375720Y400106D01*
X375064Y399450D01*
Y397482D01*
X377688Y392234D02*
X373752D01*
X375064Y390922D01*
X373752Y389611D01*
X377688D01*
Y387643D02*
Y386331D01*
X377032Y385675D01*
X375720D01*
X375064Y386331D01*
Y387643D01*
X375720Y388299D01*
X377032D01*
X377688Y387643D01*
X373752Y381739D02*
X377688D01*
Y383707D01*
X377032Y384363D01*
X375720D01*
X375064Y383707D01*
Y381739D01*
Y380427D02*
X377032D01*
X377688Y379771D01*
Y377803D01*
X375064D01*
X377688Y376491D02*
Y375179D01*
Y375835D01*
X373752D01*
Y376491D01*
X377688Y371244D02*
Y372556D01*
X377032Y373212D01*
X375720D01*
X375064Y372556D01*
Y371244D01*
X375720Y370588D01*
X376376D01*
Y373212D01*
X375064Y365340D02*
X377688Y364028D01*
X375064Y362716D01*
X377688Y358781D02*
Y361404D01*
X375064Y358781D01*
X374408D01*
X373752Y359436D01*
Y360748D01*
X374408Y361404D01*
X377688Y357469D02*
X377032D01*
Y356813D01*
X377688D01*
Y357469D01*
X374408Y354189D02*
X373752Y353533D01*
Y352221D01*
X374408Y351565D01*
X377032D01*
X377688Y352221D01*
Y353533D01*
X377032Y354189D01*
X374408D01*
X377688Y350253D02*
X377032D01*
Y349597D01*
X377688D01*
Y350253D01*
X374408Y346973D02*
X373752Y346317D01*
Y345005D01*
X374408Y344350D01*
X377032D01*
X377688Y345005D01*
Y346317D01*
X377032Y346973D01*
X374408D01*
X391720Y424376D02*
X391064Y425032D01*
Y426344D01*
X391720Y427000D01*
X394344D01*
X395000Y426344D01*
Y425032D01*
X394344Y424376D01*
X393032D01*
Y425688D01*
X392376Y423064D02*
X394344D01*
X395000Y422408D01*
Y420440D01*
X392376D01*
X395000Y419129D02*
Y417817D01*
Y418473D01*
X392376D01*
Y419129D01*
X395000Y415849D02*
Y414537D01*
Y415193D01*
X391064D01*
Y415849D01*
Y412569D02*
X395000D01*
X393032D01*
X392376Y411913D01*
Y410601D01*
X393032Y409945D01*
X395000D01*
Y406665D02*
Y407977D01*
X394344Y408633D01*
X393032D01*
X392376Y407977D01*
Y406665D01*
X393032Y406009D01*
X393688D01*
Y408633D01*
X392376Y404698D02*
X395000D01*
X393688D01*
X393032Y404041D01*
X392376Y403386D01*
Y402730D01*
X395000Y400762D02*
X392376D01*
Y400106D01*
X393032Y399450D01*
X395000D01*
X393032D01*
X392376Y398794D01*
X393032Y398138D01*
X395000D01*
Y394858D02*
Y396170D01*
X394344Y396826D01*
X393032D01*
X392376Y396170D01*
Y394858D01*
X393032Y394202D01*
X393688D01*
Y396826D01*
X391720Y386331D02*
X391064Y386987D01*
Y388299D01*
X391720Y388954D01*
X394344D01*
X395000Y388299D01*
Y386987D01*
X394344Y386331D01*
X392376Y384363D02*
Y383051D01*
X393032Y382395D01*
X395000D01*
Y384363D01*
X394344Y385019D01*
X393688Y384363D01*
Y382395D01*
X395000Y381083D02*
X392376D01*
Y379115D01*
X393032Y378459D01*
X395000D01*
X391064Y374523D02*
X395000D01*
Y376491D01*
X394344Y377147D01*
X393032D01*
X392376Y376491D01*
Y374523D01*
X395000Y373212D02*
Y371900D01*
Y372556D01*
X392376D01*
Y373212D01*
X391064Y367308D02*
X395000D01*
Y369276D01*
X394344Y369932D01*
X393032D01*
X392376Y369276D01*
Y367308D01*
X395000Y365340D02*
Y364028D01*
X394344Y363372D01*
X393032D01*
X392376Y364028D01*
Y365340D01*
X393032Y365996D01*
X394344D01*
X395000Y365340D01*
X366752Y427000D02*
X370688D01*
Y424376D01*
Y421096D02*
Y422408D01*
X370032Y423064D01*
X368720D01*
X368064Y422408D01*
Y421096D01*
X368720Y420440D01*
X369376D01*
Y423064D01*
X370688Y419129D02*
Y417817D01*
Y418473D01*
X368064D01*
Y419129D01*
Y415849D02*
X370688D01*
X369376D01*
X368720Y415193D01*
X368064Y414537D01*
Y413881D01*
X370688Y411913D02*
Y410601D01*
Y411257D01*
X368064D01*
Y411913D01*
Y407977D02*
Y406665D01*
X368720Y406009D01*
X370688D01*
Y407977D01*
X370032Y408633D01*
X369376Y407977D01*
Y406009D01*
X370688Y400762D02*
X368064D01*
X366752Y399450D01*
X368064Y398138D01*
X370688D01*
X368720D01*
Y400762D01*
X368064Y394202D02*
Y396170D01*
X368720Y396826D01*
X370032D01*
X370688Y396170D01*
Y394202D01*
X368064Y392234D02*
Y390922D01*
X368720Y390266D01*
X370688D01*
Y392234D01*
X370032Y392890D01*
X369376Y392234D01*
Y390266D01*
X366752Y386331D02*
X370688D01*
Y388299D01*
X370032Y388954D01*
X368720D01*
X368064Y388299D01*
Y386331D01*
X370688Y383051D02*
Y384363D01*
X370032Y385019D01*
X368720D01*
X368064Y384363D01*
Y383051D01*
X368720Y382395D01*
X369376D01*
Y385019D01*
X370688Y381083D02*
X368064D01*
Y380427D01*
X368720Y379771D01*
X370688D01*
X368720D01*
X368064Y379115D01*
X368720Y378459D01*
X370688D01*
Y377147D02*
Y375835D01*
Y376491D01*
X368064D01*
Y377147D01*
Y371244D02*
Y373212D01*
X368720Y373868D01*
X370032D01*
X370688Y373212D01*
Y371244D01*
Y365996D02*
X366752D01*
Y364028D01*
X367408Y363372D01*
X368720D01*
X369376Y364028D01*
Y365996D01*
Y364684D02*
X370688Y363372D01*
X368064Y361404D02*
Y360092D01*
X368720Y359436D01*
X370688D01*
Y361404D01*
X370032Y362060D01*
X369376Y361404D01*
Y359436D01*
X368064Y355501D02*
Y357469D01*
X368720Y358125D01*
X370032D01*
X370688Y357469D01*
Y355501D01*
Y354189D02*
Y352877D01*
Y353533D01*
X368064D01*
Y354189D01*
X370688Y350909D02*
X368064D01*
Y348941D01*
X368720Y348285D01*
X370688D01*
X372000Y345661D02*
Y345005D01*
X371344Y344350D01*
X368064D01*
Y346317D01*
X368720Y346973D01*
X370032D01*
X370688Y346317D01*
Y344350D01*
X366752Y339102D02*
Y336478D01*
Y337790D01*
X370688D01*
Y333198D02*
Y334510D01*
X370032Y335166D01*
X368720D01*
X368064Y334510D01*
Y333198D01*
X368720Y332542D01*
X369376D01*
Y335166D01*
X368064Y330574D02*
Y329262D01*
X368720Y328607D01*
X370688D01*
Y330574D01*
X370032Y331230D01*
X369376Y330574D01*
Y328607D01*
X370688Y327295D02*
X368064D01*
Y326639D01*
X368720Y325983D01*
X370688D01*
X368720D01*
X368064Y325327D01*
X368720Y324671D01*
X370688D01*
M02*
