M48
;Layer_Color=9474304
;FILE_FORMAT=2:4
INCH,TZ
;TYPE=PLATED
T01F00S00C0.0118
T02F00S00C0.0402
T03F00S00C0.0421
T04F00S00C0.0591
T05F00S00C0.1339
T06F00S00C0.1378
%
T01
X31890Y28346
X33071
X32480Y29528
X34843
X36024
X37300Y29800
X37750Y29900
X37422Y31122
X40157Y30709
X41339
Y28346
X42520
X43701
X46063
X46654Y29528
X40157Y28346
X38976
X37795
X34252Y30709
X30709Y28346
Y35433
Y37795
Y40157
X30950Y40450
X29850Y44450
X31299Y43701
X31890Y44882
X32480Y46063
X31299
X36024
X37205
Y41339
X38386
X38600Y40750
X39400Y39150
X40450Y40150
X40650Y41350
X41650Y41000
X42200Y38800
X42700
X44291Y38976
X45100Y38800
X45600
X46654Y38976
X46063Y40157
X44882
X43701
Y37795
X44000Y36900
X42400Y36900
X41000Y35850
X43050Y35000
X46550Y35450
X46063Y33071
X39000Y31250
X36750Y33100
X36850Y33500
X36750Y33950
Y34300
X34850Y34500
X34500Y35300
X34252Y37795
X34050Y38700
X35350Y38550
X36350Y39300
X35950Y41600
X34050Y41250
X33071Y37795
X31890
X31299Y36614
X31890Y35433
X32480Y34252
X31299
X33661Y31890
X34550Y31650
X35350Y31950
X37650Y37300
X38386Y36614
X43110Y43701
Y46063
X46654
X46063Y44882
X46654Y43701
X46063Y47244
X44882
Y49606
X46063
X46654Y50787
X46063Y51968
X44882
X43701
X43600Y51450
X43110Y53150
X41929
X40748
X39567
X38386
X37205
X36024
X34843
X33661
X33071Y51968
X31890
X32480Y50787
X31299
X31890Y49606
X33071
X32480Y48425
X31299
X31890Y47244
X33071
X43110Y48425
X42520Y49606
X46654Y48425
Y53150
X30709Y51968
Y49606
Y47244
T02
X46750Y31050
X29800Y31100
Y32100
Y33100
Y34100
Y35100
Y36100
X46750Y34050
Y33050
Y32050
T03
X44300Y48100
Y49100
Y50100
T04
X34732Y47700
X35913
X37094
X38275
X39456
X40637
X41818
X41228Y48685
Y49866
X40046
X38865
X37684
Y48685
X38865
X40046
X39456Y50850
X38275
X37094
X35913
X34732
X35322Y49866
X36503
Y48685
X35322
X40637Y50850
X41818
T05
X31877Y53409
X44672
T06
X45307Y29386
X31249
X38150Y45250
M30
