G04*
G04 #@! TF.GenerationSoftware,Altium Limited,Altium Designer,23.8.1 (32)*
G04*
G04 Layer_Color=2752767*
%FSLAX25Y25*%
%MOIN*%
G70*
G04*
G04 #@! TF.SameCoordinates,823993F6-8BEF-49D6-9206-44A6C2E96FBA*
G04*
G04*
G04 #@! TF.FilePolarity,Positive*
G04*
G01*
G75*
%ADD14C,0.00500*%
%ADD64C,0.00667*%
D14*
X441000Y499000D02*
Y503000D01*
X445000D01*
Y499000D01*
X441000D01*
Y489000D02*
Y493000D01*
X445000D01*
Y489000D01*
X441000D01*
Y479000D02*
Y483000D01*
X445000D01*
Y479000D01*
X441000D01*
X379496Y450500D02*
X380496Y452500D01*
X379496Y454500D01*
X381496Y453500D01*
X383496Y454500D01*
X382496Y452500D01*
X383496Y450500D01*
X381496Y451500D01*
X379496Y450500D01*
X451075Y291862D02*
X452075Y293862D01*
X451075Y295862D01*
X453075Y294862D01*
X455075Y295862D01*
X454075Y293862D01*
X455075Y291862D01*
X453075Y292862D01*
X451075Y291862D01*
X310488D02*
X311488Y293862D01*
X310488Y295862D01*
X312488Y294862D01*
X314488Y295862D01*
X313488Y293862D01*
X314488Y291862D01*
X312488Y292862D01*
X310488Y291862D01*
X418181Y506500D02*
X416181Y510500D01*
X420181D01*
X418181Y506500D01*
X406370D02*
X404370Y510500D01*
X408370D01*
X406370Y506500D01*
X394559D02*
X392559Y510500D01*
X396559D01*
X394559Y506500D01*
X382748D02*
X380748Y510500D01*
X384748D01*
X382748Y506500D01*
X370937D02*
X368937Y510500D01*
X372937D01*
X370937Y506500D01*
X359126D02*
X357126Y510500D01*
X361126D01*
X359126Y506500D01*
X347315D02*
X345315Y510500D01*
X349315D01*
X347315Y506500D01*
X353221Y496658D02*
X351220Y500658D01*
X355221D01*
X353221Y496658D01*
X365032D02*
X363032Y500658D01*
X367032D01*
X365032Y496658D01*
X376842D02*
X374843Y500658D01*
X378842D01*
X376842Y496658D01*
X388653D02*
X386653Y500658D01*
X390653D01*
X388653Y496658D01*
X400465D02*
X398465Y500658D01*
X402465D01*
X400465Y496658D01*
X412276D02*
X410276Y500658D01*
X414276D01*
X412276Y496658D01*
Y484846D02*
X410276Y488846D01*
X414276D01*
X412276Y484846D01*
X400465D02*
X398465Y488846D01*
X402465D01*
X400465Y484846D01*
X388653D02*
X386653Y488846D01*
X390653D01*
X388653Y484846D01*
X376842D02*
X374843Y488846D01*
X378842D01*
X376842Y484846D01*
X365032D02*
X363032Y488846D01*
X367032D01*
X365032Y484846D01*
X353221D02*
X351220Y488846D01*
X355221D01*
X353221Y484846D01*
X347315Y475004D02*
X345315Y479004D01*
X349315D01*
X347315Y475004D01*
X359126D02*
X357126Y479004D01*
X361126D01*
X359126Y475004D01*
X370937D02*
X368937Y479004D01*
X372937D01*
X370937Y475004D01*
X382748D02*
X380748Y479004D01*
X384748D01*
X382748Y475004D01*
X394559D02*
X392559Y479004D01*
X396559D01*
X394559Y475004D01*
X406370D02*
X404370Y479004D01*
X408370D01*
X406370Y475004D01*
X418181D02*
X416181Y479004D01*
X420181D01*
X418181Y475004D01*
X446724Y532091D02*
X447724Y533090D01*
X448724D01*
X447724Y534091D01*
X448724Y535090D01*
X447724D01*
X446724Y536091D01*
X445724Y535090D01*
X444724D01*
X445724Y534091D01*
X444724Y533090D01*
X445724D01*
X446724Y532091D01*
X318772D02*
X319772Y533090D01*
X320772D01*
X319772Y534091D01*
X320772Y535090D01*
X319772D01*
X318772Y536091D01*
X317772Y535090D01*
X316772D01*
X317772Y534091D01*
X316772Y533090D01*
X317772D01*
X318772Y532091D01*
X373223Y310223D02*
Y309223D01*
X375223D01*
Y310223D01*
X376223D01*
Y312223D01*
X375223D01*
Y313223D01*
X373223D01*
Y312223D01*
X372223D01*
Y310223D01*
X373223D01*
X372000Y297000D02*
Y296000D01*
X374000D01*
Y297000D01*
X375000D01*
Y299000D01*
X374000D01*
Y300000D01*
X372000D01*
Y299000D01*
X371000D01*
Y297000D01*
X372000D01*
X347500Y344000D02*
Y343000D01*
X349500D01*
Y344000D01*
X350500D01*
Y346000D01*
X349500D01*
Y347000D01*
X347500D01*
Y346000D01*
X346500D01*
Y344000D01*
X347500D01*
X465535Y530496D02*
Y529496D01*
X467535D01*
Y530496D01*
X468535D01*
Y532496D01*
X467535D01*
Y533496D01*
X465535D01*
Y532496D01*
X464535D01*
Y530496D01*
X465535D01*
X459630Y518685D02*
Y517685D01*
X461630D01*
Y518685D01*
X462630D01*
Y520685D01*
X461630D01*
Y521685D01*
X459630D01*
Y520685D01*
X458630D01*
Y518685D01*
X459630D01*
X465535Y506874D02*
Y505874D01*
X467535D01*
Y506874D01*
X468535D01*
Y508874D01*
X467535D01*
Y509874D01*
X465535D01*
Y508874D01*
X464535D01*
Y506874D01*
X465535D01*
X459630Y495063D02*
Y494063D01*
X461630D01*
Y495063D01*
X462630D01*
Y497063D01*
X461630D01*
Y498063D01*
X459630D01*
Y497063D01*
X458630D01*
Y495063D01*
X459630D01*
X465535Y483252D02*
Y482252D01*
X467535D01*
Y483252D01*
X468535D01*
Y485252D01*
X467535D01*
Y486252D01*
X465535D01*
Y485252D01*
X464535D01*
Y483252D01*
X465535D01*
X459630Y471441D02*
Y470441D01*
X461630D01*
Y471441D01*
X462630D01*
Y473441D01*
X461630D01*
Y474441D01*
X459630D01*
Y473441D01*
X458630D01*
Y471441D01*
X459630D01*
X465535Y459630D02*
Y458630D01*
X467535D01*
Y459630D01*
X468535D01*
Y461630D01*
X467535D01*
Y462630D01*
X465535D01*
Y461630D01*
X464535D01*
Y459630D01*
X465535D01*
X459630Y447819D02*
Y446819D01*
X461630D01*
Y447819D01*
X462630D01*
Y449819D01*
X461630D01*
Y450819D01*
X459630D01*
Y449819D01*
X458630D01*
Y447819D01*
X459630D01*
X465535Y436008D02*
Y435008D01*
X467535D01*
Y436008D01*
X468535D01*
Y438008D01*
X467535D01*
Y439008D01*
X465535D01*
Y438008D01*
X464535D01*
Y436008D01*
X465535D01*
X459630Y400575D02*
Y399575D01*
X461630D01*
Y400575D01*
X462630D01*
Y402575D01*
X461630D01*
Y403575D01*
X459630D01*
Y402575D01*
X458630D01*
Y400575D01*
X459630D01*
X465535Y388764D02*
Y387764D01*
X467535D01*
Y388764D01*
X468535D01*
Y390764D01*
X467535D01*
Y391764D01*
X465535D01*
Y390764D01*
X464535D01*
Y388764D01*
X465535D01*
X459630Y329709D02*
Y328709D01*
X461630D01*
Y329709D01*
X462630D01*
Y331709D01*
X461630D01*
Y332709D01*
X459630D01*
Y331709D01*
X458630D01*
Y329709D01*
X459630D01*
X465535Y294275D02*
Y293275D01*
X467535D01*
Y294275D01*
X468535D01*
Y296275D01*
X467535D01*
Y297275D01*
X465535D01*
Y296275D01*
X464535D01*
Y294275D01*
X465535D01*
X459630Y282465D02*
Y281465D01*
X461630D01*
Y282465D01*
X462630D01*
Y284465D01*
X461630D01*
Y285465D01*
X459630D01*
Y284465D01*
X458630D01*
Y282465D01*
X459630D01*
X447819Y518685D02*
Y517685D01*
X449819D01*
Y518685D01*
X450819D01*
Y520685D01*
X449819D01*
Y521685D01*
X447819D01*
Y520685D01*
X446819D01*
Y518685D01*
X447819D01*
Y495063D02*
Y494063D01*
X449819D01*
Y495063D01*
X450819D01*
Y497063D01*
X449819D01*
Y498063D01*
X447819D01*
Y497063D01*
X446819D01*
Y495063D01*
X447819D01*
Y471441D02*
Y470441D01*
X449819D01*
Y471441D01*
X450819D01*
Y473441D01*
X449819D01*
Y474441D01*
X447819D01*
Y473441D01*
X446819D01*
Y471441D01*
X447819D01*
Y400575D02*
Y399575D01*
X449819D01*
Y400575D01*
X450819D01*
Y402575D01*
X449819D01*
Y403575D01*
X447819D01*
Y402575D01*
X446819D01*
Y400575D01*
X447819D01*
X436008Y518685D02*
Y517685D01*
X438008D01*
Y518685D01*
X439008D01*
Y520685D01*
X438008D01*
Y521685D01*
X436008D01*
Y520685D01*
X435008D01*
Y518685D01*
X436008D01*
Y400575D02*
Y399575D01*
X438008D01*
Y400575D01*
X439008D01*
Y402575D01*
X438008D01*
Y403575D01*
X436008D01*
Y402575D01*
X435008D01*
Y400575D01*
X436008D01*
X441913Y388764D02*
Y387764D01*
X443913D01*
Y388764D01*
X444913D01*
Y390764D01*
X443913D01*
Y391764D01*
X441913D01*
Y390764D01*
X440913D01*
Y388764D01*
X441913D01*
X436008Y376953D02*
Y375953D01*
X438008D01*
Y376953D01*
X439008D01*
Y378953D01*
X438008D01*
Y379953D01*
X436008D01*
Y378953D01*
X435008D01*
Y376953D01*
X436008D01*
Y282465D02*
Y281465D01*
X438008D01*
Y282465D01*
X439008D01*
Y284465D01*
X438008D01*
Y285465D01*
X436008D01*
Y284465D01*
X435008D01*
Y282465D01*
X436008D01*
X430102Y530496D02*
Y529496D01*
X432102D01*
Y530496D01*
X433102D01*
Y532496D01*
X432102D01*
Y533496D01*
X430102D01*
Y532496D01*
X429102D01*
Y530496D01*
X430102D01*
X424197Y495063D02*
Y494063D01*
X426197D01*
Y495063D01*
X427197D01*
Y497063D01*
X426197D01*
Y498063D01*
X424197D01*
Y497063D01*
X423197D01*
Y495063D01*
X424197D01*
X430102Y483252D02*
Y482252D01*
X432102D01*
Y483252D01*
X433102D01*
Y485252D01*
X432102D01*
Y486252D01*
X430102D01*
Y485252D01*
X429102D01*
Y483252D01*
X430102D01*
Y459630D02*
Y458630D01*
X432102D01*
Y459630D01*
X433102D01*
Y461630D01*
X432102D01*
Y462630D01*
X430102D01*
Y461630D01*
X429102D01*
Y459630D01*
X430102D01*
Y436008D02*
Y435008D01*
X432102D01*
Y436008D01*
X433102D01*
Y438008D01*
X432102D01*
Y439008D01*
X430102D01*
Y438008D01*
X429102D01*
Y436008D01*
X430102D01*
X424197Y282465D02*
Y281465D01*
X426197D01*
Y282465D01*
X427197D01*
Y284465D01*
X426197D01*
Y285465D01*
X424197D01*
Y284465D01*
X423197D01*
Y282465D01*
X424197D01*
X418291Y530496D02*
Y529496D01*
X420291D01*
Y530496D01*
X421291D01*
Y532496D01*
X420291D01*
Y533496D01*
X418291D01*
Y532496D01*
X417291D01*
Y530496D01*
X418291D01*
X412386Y306086D02*
Y305086D01*
X414386D01*
Y306086D01*
X415386D01*
Y308086D01*
X414386D01*
Y309086D01*
X412386D01*
Y308086D01*
X411386D01*
Y306086D01*
X412386D01*
Y282465D02*
Y281465D01*
X414386D01*
Y282465D01*
X415386D01*
Y284465D01*
X414386D01*
Y285465D01*
X412386D01*
Y284465D01*
X411386D01*
Y282465D01*
X412386D01*
X406480Y530496D02*
Y529496D01*
X408480D01*
Y530496D01*
X409480D01*
Y532496D01*
X408480D01*
Y533496D01*
X406480D01*
Y532496D01*
X405480D01*
Y530496D01*
X406480D01*
X400575Y306086D02*
Y305086D01*
X402575D01*
Y306086D01*
X403575D01*
Y308086D01*
X402575D01*
Y309086D01*
X400575D01*
Y308086D01*
X399575D01*
Y306086D01*
X400575D01*
Y282465D02*
Y281465D01*
X402575D01*
Y282465D01*
X403575D01*
Y284465D01*
X402575D01*
Y285465D01*
X400575D01*
Y284465D01*
X399575D01*
Y282465D01*
X400575D01*
X394669Y530496D02*
Y529496D01*
X396669D01*
Y530496D01*
X397669D01*
Y532496D01*
X396669D01*
Y533496D01*
X394669D01*
Y532496D01*
X393669D01*
Y530496D01*
X394669D01*
X388764Y282465D02*
Y281465D01*
X390764D01*
Y282465D01*
X391764D01*
Y284465D01*
X390764D01*
Y285465D01*
X388764D01*
Y284465D01*
X387764D01*
Y282465D01*
X388764D01*
X382858Y530496D02*
Y529496D01*
X384858D01*
Y530496D01*
X385858D01*
Y532496D01*
X384858D01*
Y533496D01*
X382858D01*
Y532496D01*
X381858D01*
Y530496D01*
X382858D01*
Y412386D02*
Y411386D01*
X384858D01*
Y412386D01*
X385858D01*
Y414386D01*
X384858D01*
Y415386D01*
X382858D01*
Y414386D01*
X381858D01*
Y412386D01*
X382858D01*
Y365142D02*
Y364142D01*
X384858D01*
Y365142D01*
X385858D01*
Y367142D01*
X384858D01*
Y368142D01*
X382858D01*
Y367142D01*
X381858D01*
Y365142D01*
X382858D01*
X376953Y282465D02*
Y281465D01*
X378953D01*
Y282465D01*
X379953D01*
Y284465D01*
X378953D01*
Y285465D01*
X376953D01*
Y284465D01*
X375953D01*
Y282465D01*
X376953D01*
X371047Y530496D02*
Y529496D01*
X373047D01*
Y530496D01*
X374047D01*
Y532496D01*
X373047D01*
Y533496D01*
X371047D01*
Y532496D01*
X370047D01*
Y530496D01*
X371047D01*
Y459630D02*
Y458630D01*
X373047D01*
Y459630D01*
X374047D01*
Y461630D01*
X373047D01*
Y462630D01*
X371047D01*
Y461630D01*
X370047D01*
Y459630D01*
X371047D01*
Y412386D02*
Y411386D01*
X373047D01*
Y412386D01*
X374047D01*
Y414386D01*
X373047D01*
Y415386D01*
X371047D01*
Y414386D01*
X370047D01*
Y412386D01*
X371047D01*
X359236Y530496D02*
Y529496D01*
X361236D01*
Y530496D01*
X362236D01*
Y532496D01*
X361236D01*
Y533496D01*
X359236D01*
Y532496D01*
X358236D01*
Y530496D01*
X359236D01*
Y459630D02*
Y458630D01*
X361236D01*
Y459630D01*
X362236D01*
Y461630D01*
X361236D01*
Y462630D01*
X359236D01*
Y461630D01*
X358236D01*
Y459630D01*
X359236D01*
Y294275D02*
Y293275D01*
X361236D01*
Y294275D01*
X362236D01*
Y296275D01*
X361236D01*
Y297275D01*
X359236D01*
Y296275D01*
X358236D01*
Y294275D01*
X359236D01*
X347425Y530496D02*
Y529496D01*
X349425D01*
Y530496D01*
X350425D01*
Y532496D01*
X349425D01*
Y533496D01*
X347425D01*
Y532496D01*
X346425D01*
Y530496D01*
X347425D01*
X341520Y376953D02*
Y375953D01*
X343520D01*
Y376953D01*
X344520D01*
Y378953D01*
X343520D01*
Y379953D01*
X341520D01*
Y378953D01*
X340520D01*
Y376953D01*
X341520D01*
Y306086D02*
Y305086D01*
X343520D01*
Y306086D01*
X344520D01*
Y308086D01*
X343520D01*
Y309086D01*
X341520D01*
Y308086D01*
X340520D01*
Y306086D01*
X341520D01*
X347425Y294275D02*
Y293275D01*
X349425D01*
Y294275D01*
X350425D01*
Y296275D01*
X349425D01*
Y297275D01*
X347425D01*
Y296275D01*
X346425D01*
Y294275D01*
X347425D01*
X335614Y530496D02*
Y529496D01*
X337614D01*
Y530496D01*
X338614D01*
Y532496D01*
X337614D01*
Y533496D01*
X335614D01*
Y532496D01*
X334614D01*
Y530496D01*
X335614D01*
X329709Y518685D02*
Y517685D01*
X331709D01*
Y518685D01*
X332709D01*
Y520685D01*
X331709D01*
Y521685D01*
X329709D01*
Y520685D01*
X328709D01*
Y518685D01*
X329709D01*
Y495063D02*
Y494063D01*
X331709D01*
Y495063D01*
X332709D01*
Y497063D01*
X331709D01*
Y498063D01*
X329709D01*
Y497063D01*
X328709D01*
Y495063D01*
X329709D01*
Y471441D02*
Y470441D01*
X331709D01*
Y471441D01*
X332709D01*
Y473441D01*
X331709D01*
Y474441D01*
X329709D01*
Y473441D01*
X328709D01*
Y471441D01*
X329709D01*
Y376953D02*
Y375953D01*
X331709D01*
Y376953D01*
X332709D01*
Y378953D01*
X331709D01*
Y379953D01*
X329709D01*
Y378953D01*
X328709D01*
Y376953D01*
X329709D01*
X335614Y317898D02*
Y316898D01*
X337614D01*
Y317898D01*
X338614D01*
Y319898D01*
X337614D01*
Y320898D01*
X335614D01*
Y319898D01*
X334614D01*
Y317898D01*
X335614D01*
X329709Y282465D02*
Y281465D01*
X331709D01*
Y282465D01*
X332709D01*
Y284465D01*
X331709D01*
Y285465D01*
X329709D01*
Y284465D01*
X328709D01*
Y282465D01*
X329709D01*
X317898Y518685D02*
Y517685D01*
X319898D01*
Y518685D01*
X320898D01*
Y520685D01*
X319898D01*
Y521685D01*
X317898D01*
Y520685D01*
X316898D01*
Y518685D01*
X317898D01*
X323803Y506874D02*
Y505874D01*
X325803D01*
Y506874D01*
X326803D01*
Y508874D01*
X325803D01*
Y509874D01*
X323803D01*
Y508874D01*
X322803D01*
Y506874D01*
X323803D01*
X317898Y495063D02*
Y494063D01*
X319898D01*
Y495063D01*
X320898D01*
Y497063D01*
X319898D01*
Y498063D01*
X317898D01*
Y497063D01*
X316898D01*
Y495063D01*
X317898D01*
X323803Y483252D02*
Y482252D01*
X325803D01*
Y483252D01*
X326803D01*
Y485252D01*
X325803D01*
Y486252D01*
X323803D01*
Y485252D01*
X322803D01*
Y483252D01*
X323803D01*
X317898Y471441D02*
Y470441D01*
X319898D01*
Y471441D01*
X320898D01*
Y473441D01*
X319898D01*
Y474441D01*
X317898D01*
Y473441D01*
X316898D01*
Y471441D01*
X317898D01*
X323803Y459630D02*
Y458630D01*
X325803D01*
Y459630D01*
X326803D01*
Y461630D01*
X325803D01*
Y462630D01*
X323803D01*
Y461630D01*
X322803D01*
Y459630D01*
X323803D01*
X317898Y447819D02*
Y446819D01*
X319898D01*
Y447819D01*
X320898D01*
Y449819D01*
X319898D01*
Y450819D01*
X317898D01*
Y449819D01*
X316898D01*
Y447819D01*
X317898D01*
Y376953D02*
Y375953D01*
X319898D01*
Y376953D01*
X320898D01*
Y378953D01*
X319898D01*
Y379953D01*
X317898D01*
Y378953D01*
X316898D01*
Y376953D01*
X317898D01*
Y353331D02*
Y352331D01*
X319898D01*
Y353331D01*
X320898D01*
Y355331D01*
X319898D01*
Y356331D01*
X317898D01*
Y355331D01*
X316898D01*
Y353331D01*
X317898D01*
X323803Y341520D02*
Y340520D01*
X325803D01*
Y341520D01*
X326803D01*
Y343520D01*
X325803D01*
Y344520D01*
X323803D01*
Y343520D01*
X322803D01*
Y341520D01*
X323803D01*
Y294275D02*
Y293275D01*
X325803D01*
Y294275D01*
X326803D01*
Y296275D01*
X325803D01*
Y297275D01*
X323803D01*
Y296275D01*
X322803D01*
Y294275D01*
X323803D01*
X317898Y282465D02*
Y281465D01*
X319898D01*
Y282465D01*
X320898D01*
Y284465D01*
X319898D01*
Y285465D01*
X317898D01*
Y284465D01*
X316898D01*
Y282465D01*
X317898D01*
X306086Y518685D02*
Y517685D01*
X308086D01*
Y518685D01*
X309086D01*
Y520685D01*
X308086D01*
Y521685D01*
X306086D01*
Y520685D01*
X305086D01*
Y518685D01*
X306086D01*
X311992Y506874D02*
Y505874D01*
X313992D01*
Y506874D01*
X314992D01*
Y508874D01*
X313992D01*
Y509874D01*
X311992D01*
Y508874D01*
X310992D01*
Y506874D01*
X311992D01*
X306086Y495063D02*
Y494063D01*
X308086D01*
Y495063D01*
X309086D01*
Y497063D01*
X308086D01*
Y498063D01*
X306086D01*
Y497063D01*
X305086D01*
Y495063D01*
X306086D01*
X311992Y483252D02*
Y482252D01*
X313992D01*
Y483252D01*
X314992D01*
Y485252D01*
X313992D01*
Y486252D01*
X311992D01*
Y485252D01*
X310992D01*
Y483252D01*
X311992D01*
X306086Y471441D02*
Y470441D01*
X308086D01*
Y471441D01*
X309086D01*
Y473441D01*
X308086D01*
Y474441D01*
X306086D01*
Y473441D01*
X305086D01*
Y471441D01*
X306086D01*
X311992Y459630D02*
Y458630D01*
X313992D01*
Y459630D01*
X314992D01*
Y461630D01*
X313992D01*
Y462630D01*
X311992D01*
Y461630D01*
X310992D01*
Y459630D01*
X311992D01*
Y436008D02*
Y435008D01*
X313992D01*
Y436008D01*
X314992D01*
Y438008D01*
X313992D01*
Y439008D01*
X311992D01*
Y438008D01*
X310992D01*
Y436008D01*
X311992D01*
X306086Y400575D02*
Y399575D01*
X308086D01*
Y400575D01*
X309086D01*
Y402575D01*
X308086D01*
Y403575D01*
X306086D01*
Y402575D01*
X305086D01*
Y400575D01*
X306086D01*
Y376953D02*
Y375953D01*
X308086D01*
Y376953D01*
X309086D01*
Y378953D01*
X308086D01*
Y379953D01*
X306086D01*
Y378953D01*
X305086D01*
Y376953D01*
X306086D01*
X311992Y365142D02*
Y364142D01*
X313992D01*
Y365142D01*
X314992D01*
Y367142D01*
X313992D01*
Y368142D01*
X311992D01*
Y367142D01*
X310992D01*
Y365142D01*
X311992D01*
X306086Y353331D02*
Y352331D01*
X308086D01*
Y353331D01*
X309086D01*
Y355331D01*
X308086D01*
Y356331D01*
X306086D01*
Y355331D01*
X305086D01*
Y353331D01*
X306086D01*
X311992Y341520D02*
Y340520D01*
X313992D01*
Y341520D01*
X314992D01*
Y343520D01*
X313992D01*
Y344520D01*
X311992D01*
Y343520D01*
X310992D01*
Y341520D01*
X311992D01*
X306086Y282465D02*
Y281465D01*
X308086D01*
Y282465D01*
X309086D01*
Y284465D01*
X308086D01*
Y285465D01*
X306086D01*
Y284465D01*
X305086D01*
Y282465D01*
X306086D01*
X366500Y330000D02*
Y329000D01*
X368500D01*
Y330000D01*
X369500D01*
Y332000D01*
X368500D01*
Y333000D01*
X366500D01*
Y332000D01*
X365500D01*
Y330000D01*
X366500D01*
X367500Y334000D02*
Y333000D01*
X369500D01*
Y334000D01*
X370500D01*
Y336000D01*
X369500D01*
Y337000D01*
X367500D01*
Y336000D01*
X366500D01*
Y334000D01*
X367500D01*
X366500Y342000D02*
Y341000D01*
X368500D01*
Y342000D01*
X369500D01*
Y344000D01*
X368500D01*
Y345000D01*
X366500D01*
Y344000D01*
X365500D01*
Y342000D01*
X366500D01*
X423000Y368000D02*
Y367000D01*
X425000D01*
Y368000D01*
X426000D01*
Y370000D01*
X425000D01*
Y371000D01*
X423000D01*
Y370000D01*
X422000D01*
Y368000D01*
X423000D01*
X464500Y353500D02*
Y352500D01*
X466500D01*
Y353500D01*
X467500D01*
Y355500D01*
X466500D01*
Y356500D01*
X464500D01*
Y355500D01*
X463500D01*
Y353500D01*
X464500D01*
X439000Y368000D02*
Y367000D01*
X441000D01*
Y368000D01*
X442000D01*
Y370000D01*
X441000D01*
Y371000D01*
X439000D01*
Y370000D01*
X438000D01*
Y368000D01*
X439000D01*
X429500Y349000D02*
Y348000D01*
X431500D01*
Y349000D01*
X432500D01*
Y351000D01*
X431500D01*
Y352000D01*
X429500D01*
Y351000D01*
X428500D01*
Y349000D01*
X429500D01*
X409000Y357500D02*
Y356500D01*
X411000D01*
Y357500D01*
X412000D01*
Y359500D01*
X411000D01*
Y360500D01*
X409000D01*
Y359500D01*
X408000D01*
Y357500D01*
X409000D01*
X366500Y338500D02*
Y337500D01*
X368500D01*
Y338500D01*
X369500D01*
Y340500D01*
X368500D01*
Y341500D01*
X366500D01*
Y340500D01*
X365500D01*
Y338500D01*
X366500D01*
X376500Y298000D02*
Y297000D01*
X378500D01*
Y298000D01*
X379500D01*
Y300000D01*
X378500D01*
Y301000D01*
X376500D01*
Y300000D01*
X375500D01*
Y298000D01*
X376500D01*
X389000Y311500D02*
Y310500D01*
X391000D01*
Y311500D01*
X392000D01*
Y313500D01*
X391000D01*
Y314500D01*
X389000D01*
Y313500D01*
X388000D01*
Y311500D01*
X389000D01*
X362500Y392000D02*
Y391000D01*
X364500D01*
Y392000D01*
X365500D01*
Y394000D01*
X364500D01*
Y395000D01*
X362500D01*
Y394000D01*
X361500D01*
Y392000D01*
X362500D01*
X375500Y372000D02*
Y371000D01*
X377500D01*
Y372000D01*
X378500D01*
Y374000D01*
X377500D01*
Y375000D01*
X375500D01*
Y374000D01*
X374500D01*
Y372000D01*
X375500D01*
X393000Y390500D02*
Y389500D01*
X395000D01*
Y390500D01*
X396000D01*
Y392500D01*
X395000D01*
Y393500D01*
X393000D01*
Y392500D01*
X392000D01*
Y390500D01*
X393000D01*
X403500Y400500D02*
Y399500D01*
X405500D01*
Y400500D01*
X406500D01*
Y402500D01*
X405500D01*
Y403500D01*
X403500D01*
Y402500D01*
X402500D01*
Y400500D01*
X403500D01*
X415500Y409000D02*
Y408000D01*
X417500D01*
Y409000D01*
X418500D01*
Y411000D01*
X417500D01*
Y412000D01*
X415500D01*
Y411000D01*
X414500D01*
Y409000D01*
X415500D01*
X385000Y406500D02*
Y405500D01*
X387000D01*
Y406500D01*
X388000D01*
Y408500D01*
X387000D01*
Y409500D01*
X385000D01*
Y408500D01*
X384000D01*
Y406500D01*
X385000D01*
X405500Y412500D02*
Y411500D01*
X407500D01*
Y412500D01*
X408500D01*
Y414500D01*
X407500D01*
Y415500D01*
X405500D01*
Y414500D01*
X404500D01*
Y412500D01*
X405500D01*
X352500Y384500D02*
Y383500D01*
X354500D01*
Y384500D01*
X355500D01*
Y386500D01*
X354500D01*
Y387500D01*
X352500D01*
Y386500D01*
X351500D01*
Y384500D01*
X352500D01*
Y318500D02*
Y317500D01*
X354500D01*
Y318500D01*
X355500D01*
Y320500D01*
X354500D01*
Y321500D01*
X352500D01*
Y320500D01*
X351500D01*
Y318500D01*
X352500D01*
X344500Y315500D02*
Y314500D01*
X346500D01*
Y315500D01*
X347500D01*
Y317500D01*
X346500D01*
Y318500D01*
X344500D01*
Y317500D01*
X343500D01*
Y315500D01*
X344500D01*
X358500Y415000D02*
Y414000D01*
X360500D01*
Y415000D01*
X361500D01*
Y417000D01*
X360500D01*
Y418000D01*
X358500D01*
Y417000D01*
X357500D01*
Y415000D01*
X358500D01*
X344000Y352000D02*
Y351000D01*
X346000D01*
Y352000D01*
X347000D01*
Y354000D01*
X346000D01*
Y355000D01*
X344000D01*
Y354000D01*
X343000D01*
Y352000D01*
X344000D01*
X435000Y513500D02*
Y512500D01*
X437000D01*
Y513500D01*
X438000D01*
Y515500D01*
X437000D01*
Y516500D01*
X435000D01*
Y515500D01*
X434000D01*
Y513500D01*
X435000D01*
X308500Y403500D02*
Y402500D01*
X310500D01*
Y403500D01*
X311500D01*
Y405500D01*
X310500D01*
Y406500D01*
X308500D01*
Y405500D01*
X307500D01*
Y403500D01*
X308500D01*
X297500Y443500D02*
Y442500D01*
X299500D01*
Y443500D01*
X300500D01*
Y445500D01*
X299500D01*
Y446500D01*
X297500D01*
Y445500D01*
X296500D01*
Y443500D01*
X297500D01*
X339500Y386000D02*
Y385000D01*
X341500D01*
Y386000D01*
X342500D01*
Y388000D01*
X341500D01*
Y389000D01*
X339500D01*
Y388000D01*
X338500D01*
Y386000D01*
X339500D01*
Y411500D02*
Y410500D01*
X341500D01*
Y411500D01*
X342500D01*
Y413500D01*
X341500D01*
Y414500D01*
X339500D01*
Y413500D01*
X338500D01*
Y411500D01*
X339500D01*
X421000Y387000D02*
Y386000D01*
X423000D01*
Y387000D01*
X424000D01*
Y389000D01*
X423000D01*
Y390000D01*
X421000D01*
Y389000D01*
X420000D01*
Y387000D01*
X421000D01*
X426000D02*
Y386000D01*
X428000D01*
Y387000D01*
X429000D01*
Y389000D01*
X428000D01*
Y390000D01*
X426000D01*
Y389000D01*
X425000D01*
Y387000D01*
X426000D01*
X455000D02*
Y386000D01*
X457000D01*
Y387000D01*
X458000D01*
Y389000D01*
X457000D01*
Y390000D01*
X455000D01*
Y389000D01*
X454000D01*
Y387000D01*
X455000D01*
X450000D02*
Y386000D01*
X452000D01*
Y387000D01*
X453000D01*
Y389000D01*
X452000D01*
Y390000D01*
X450000D01*
Y389000D01*
X449000D01*
Y387000D01*
X450000D01*
D64*
X469500Y310500D02*
X469271Y311429D01*
X468636Y312146D01*
X467741Y312485D01*
X466791Y312370D01*
X466003Y311826D01*
X465558Y310979D01*
Y310021D01*
X466003Y309174D01*
X466791Y308630D01*
X467741Y308515D01*
X468636Y308854D01*
X469271Y309571D01*
X469500Y310500D01*
Y320500D02*
X469271Y321429D01*
X468636Y322146D01*
X467741Y322485D01*
X466791Y322370D01*
X466003Y321826D01*
X465558Y320979D01*
Y320021D01*
X466003Y319174D01*
X466791Y318630D01*
X467741Y318515D01*
X468636Y318854D01*
X469271Y319571D01*
X469500Y320500D01*
Y330500D02*
X469271Y331429D01*
X468636Y332146D01*
X467741Y332485D01*
X466791Y332370D01*
X466003Y331826D01*
X465558Y330979D01*
Y330021D01*
X466003Y329174D01*
X466791Y328630D01*
X467741Y328515D01*
X468636Y328854D01*
X469271Y329571D01*
X469500Y330500D01*
Y340500D02*
X469271Y341429D01*
X468636Y342146D01*
X467741Y342485D01*
X466791Y342370D01*
X466003Y341826D01*
X465558Y340979D01*
Y340021D01*
X466003Y339174D01*
X466791Y338630D01*
X467741Y338515D01*
X468636Y338854D01*
X469271Y339571D01*
X469500Y340500D01*
X300000Y361000D02*
X299771Y361929D01*
X299136Y362646D01*
X298241Y362985D01*
X297291Y362870D01*
X296503Y362326D01*
X296058Y361479D01*
Y360521D01*
X296503Y359674D01*
X297291Y359130D01*
X298241Y359015D01*
X299136Y359354D01*
X299771Y360071D01*
X300000Y361000D01*
Y351000D02*
X299771Y351929D01*
X299136Y352646D01*
X298241Y352985D01*
X297291Y352870D01*
X296503Y352326D01*
X296058Y351479D01*
Y350521D01*
X296503Y349674D01*
X297291Y349130D01*
X298241Y349015D01*
X299136Y349354D01*
X299771Y350071D01*
X300000Y351000D01*
Y341000D02*
X299771Y341929D01*
X299136Y342646D01*
X298241Y342985D01*
X297291Y342870D01*
X296503Y342326D01*
X296058Y341479D01*
Y340521D01*
X296503Y339674D01*
X297291Y339130D01*
X298241Y339015D01*
X299136Y339354D01*
X299771Y340071D01*
X300000Y341000D01*
Y331000D02*
X299771Y331929D01*
X299136Y332646D01*
X298241Y332985D01*
X297291Y332870D01*
X296503Y332326D01*
X296058Y331479D01*
Y330521D01*
X296503Y329674D01*
X297291Y329130D01*
X298241Y329015D01*
X299136Y329354D01*
X299771Y330071D01*
X300000Y331000D01*
Y321000D02*
X299771Y321929D01*
X299136Y322646D01*
X298241Y322985D01*
X297291Y322870D01*
X296503Y322326D01*
X296058Y321479D01*
Y320521D01*
X296503Y319674D01*
X297291Y319130D01*
X298241Y319015D01*
X299136Y319354D01*
X299771Y320071D01*
X300000Y321000D01*
Y311000D02*
X299771Y311929D01*
X299136Y312646D01*
X298241Y312985D01*
X297291Y312870D01*
X296503Y312326D01*
X296058Y311479D01*
Y310521D01*
X296503Y309674D01*
X297291Y309130D01*
X298241Y309015D01*
X299136Y309354D01*
X299771Y310071D01*
X300000Y311000D01*
M02*
