G04*
G04 #@! TF.GenerationSoftware,Altium Limited,Altium Designer,23.8.1 (32)*
G04*
G04 Layer_Color=8421504*
%FSLAX25Y25*%
%MOIN*%
G70*
G04*
G04 #@! TF.SameCoordinates,823993F6-8BEF-49D6-9206-44A6C2E96FBA*
G04*
G04*
G04 #@! TF.FilePolarity,Positive*
G04*
G01*
G75*
%ADD16R,0.01181X0.05807*%
%ADD17R,0.05807X0.01181*%
G04:AMPARAMS|DCode=18|XSize=47.64mil|YSize=28.74mil|CornerRadius=2.59mil|HoleSize=0mil|Usage=FLASHONLY|Rotation=90.000|XOffset=0mil|YOffset=0mil|HoleType=Round|Shape=RoundedRectangle|*
%AMROUNDEDRECTD18*
21,1,0.04764,0.02357,0,0,90.0*
21,1,0.04247,0.02874,0,0,90.0*
1,1,0.00517,0.01178,0.02123*
1,1,0.00517,0.01178,-0.02123*
1,1,0.00517,-0.01178,-0.02123*
1,1,0.00517,-0.01178,0.02123*
%
%ADD18ROUNDEDRECTD18*%
G04:AMPARAMS|DCode=19|XSize=39.37mil|YSize=55.91mil|CornerRadius=4.92mil|HoleSize=0mil|Usage=FLASHONLY|Rotation=270.000|XOffset=0mil|YOffset=0mil|HoleType=Round|Shape=RoundedRectangle|*
%AMROUNDEDRECTD19*
21,1,0.03937,0.04606,0,0,270.0*
21,1,0.02953,0.05591,0,0,270.0*
1,1,0.00984,-0.02303,-0.01476*
1,1,0.00984,-0.02303,0.01476*
1,1,0.00984,0.02303,0.01476*
1,1,0.00984,0.02303,-0.01476*
%
%ADD19ROUNDEDRECTD19*%
G04:AMPARAMS|DCode=20|XSize=39.37mil|YSize=55.91mil|CornerRadius=4.92mil|HoleSize=0mil|Usage=FLASHONLY|Rotation=180.000|XOffset=0mil|YOffset=0mil|HoleType=Round|Shape=RoundedRectangle|*
%AMROUNDEDRECTD20*
21,1,0.03937,0.04606,0,0,180.0*
21,1,0.02953,0.05591,0,0,180.0*
1,1,0.00984,-0.01476,0.02303*
1,1,0.00984,0.01476,0.02303*
1,1,0.00984,0.01476,-0.02303*
1,1,0.00984,-0.01476,-0.02303*
%
%ADD20ROUNDEDRECTD20*%
%ADD21R,0.05709X0.04331*%
%ADD22R,0.06890X0.03740*%
%ADD23R,0.06890X0.12598*%
G04:AMPARAMS|DCode=24|XSize=83.86mil|YSize=61.81mil|CornerRadius=15.45mil|HoleSize=0mil|Usage=FLASHONLY|Rotation=270.000|XOffset=0mil|YOffset=0mil|HoleType=Round|Shape=RoundedRectangle|*
%AMROUNDEDRECTD24*
21,1,0.08386,0.03091,0,0,270.0*
21,1,0.05295,0.06181,0,0,270.0*
1,1,0.03091,-0.01545,-0.02648*
1,1,0.03091,-0.01545,0.02648*
1,1,0.03091,0.01545,0.02648*
1,1,0.03091,0.01545,-0.02648*
%
%ADD24ROUNDEDRECTD24*%
%ADD25R,0.02559X0.06004*%
%ADD26R,0.06004X0.02559*%
G04:AMPARAMS|DCode=27|XSize=40.55mil|YSize=20.47mil|CornerRadius=2.56mil|HoleSize=0mil|Usage=FLASHONLY|Rotation=270.000|XOffset=0mil|YOffset=0mil|HoleType=Round|Shape=RoundedRectangle|*
%AMROUNDEDRECTD27*
21,1,0.04055,0.01535,0,0,270.0*
21,1,0.03543,0.02047,0,0,270.0*
1,1,0.00512,-0.00768,-0.01772*
1,1,0.00512,-0.00768,0.01772*
1,1,0.00512,0.00768,0.01772*
1,1,0.00512,0.00768,-0.01772*
%
%ADD27ROUNDEDRECTD27*%
%ADD28R,0.05512X0.06299*%
%ADD29R,0.08268X0.09449*%
D16*
X367736Y350091D02*
D03*
X369705D02*
D03*
X371673D02*
D03*
X373642D02*
D03*
X375610D02*
D03*
X377579D02*
D03*
X379547D02*
D03*
X381516D02*
D03*
X383484D02*
D03*
X385453D02*
D03*
X387421D02*
D03*
X389390D02*
D03*
X391358D02*
D03*
X393327D02*
D03*
X395295D02*
D03*
X397264D02*
D03*
Y304909D02*
D03*
X395295D02*
D03*
X393327D02*
D03*
X391358D02*
D03*
X389390D02*
D03*
X387421D02*
D03*
X385453D02*
D03*
X383484D02*
D03*
X381516D02*
D03*
X379547D02*
D03*
X377579D02*
D03*
X375610D02*
D03*
X373642D02*
D03*
X371673D02*
D03*
X369705D02*
D03*
X367736D02*
D03*
D17*
X405091Y342264D02*
D03*
Y340295D02*
D03*
Y338327D02*
D03*
Y336358D02*
D03*
Y334390D02*
D03*
Y332421D02*
D03*
Y330453D02*
D03*
Y328484D02*
D03*
Y326516D02*
D03*
Y324547D02*
D03*
Y322579D02*
D03*
Y320610D02*
D03*
Y318642D02*
D03*
Y316673D02*
D03*
Y314705D02*
D03*
Y312736D02*
D03*
X359910D02*
D03*
Y314705D02*
D03*
Y316673D02*
D03*
Y318642D02*
D03*
Y320610D02*
D03*
Y322579D02*
D03*
Y324547D02*
D03*
Y326516D02*
D03*
Y328484D02*
D03*
Y330453D02*
D03*
Y332421D02*
D03*
Y334390D02*
D03*
Y336358D02*
D03*
Y338327D02*
D03*
Y340295D02*
D03*
Y342264D02*
D03*
D18*
X418500Y460614D02*
D03*
Y447386D02*
D03*
D19*
X361500Y367319D02*
D03*
Y374681D02*
D03*
Y388362D02*
D03*
Y381000D02*
D03*
X427500Y447319D02*
D03*
Y454681D02*
D03*
X456666Y417378D02*
D03*
Y424740D02*
D03*
X447833Y417378D02*
D03*
Y424740D02*
D03*
X404000Y387181D02*
D03*
Y379819D02*
D03*
X397000Y451181D02*
D03*
Y443819D02*
D03*
X405000D02*
D03*
Y451181D02*
D03*
X365000D02*
D03*
Y443819D02*
D03*
X356500D02*
D03*
Y451181D02*
D03*
X324109Y420681D02*
D03*
Y413319D02*
D03*
X314222Y420681D02*
D03*
Y413319D02*
D03*
X333996D02*
D03*
Y420681D02*
D03*
Y388319D02*
D03*
Y395681D02*
D03*
X314220D02*
D03*
Y388319D02*
D03*
X324110Y395681D02*
D03*
Y388319D02*
D03*
X416500Y315819D02*
D03*
Y323181D02*
D03*
X308500Y310921D02*
D03*
Y318284D02*
D03*
X308000Y327319D02*
D03*
Y334681D02*
D03*
X316500Y327319D02*
D03*
Y334681D02*
D03*
X348000Y328681D02*
D03*
Y321319D02*
D03*
D20*
X443319Y449500D02*
D03*
X450681D02*
D03*
X443319Y458000D02*
D03*
X450681D02*
D03*
X367681Y399000D02*
D03*
X360319D02*
D03*
X440681Y344000D02*
D03*
X433319D02*
D03*
X421681Y331500D02*
D03*
X414319D02*
D03*
X424181Y349500D02*
D03*
X416819D02*
D03*
X456181D02*
D03*
X448819D02*
D03*
X336638Y447000D02*
D03*
X344000D02*
D03*
X354362Y420500D02*
D03*
X347000D02*
D03*
Y412000D02*
D03*
X354362D02*
D03*
Y393000D02*
D03*
X347000D02*
D03*
Y401500D02*
D03*
X354362D02*
D03*
X378319Y360500D02*
D03*
X385681D02*
D03*
X440000Y306000D02*
D03*
X432638D02*
D03*
X389362Y292000D02*
D03*
X382000D02*
D03*
X367319D02*
D03*
X374681D02*
D03*
X340181Y346500D02*
D03*
X332819D02*
D03*
Y362500D02*
D03*
X340181D02*
D03*
X332819Y354500D02*
D03*
X340181D02*
D03*
D21*
X465000Y417457D02*
D03*
Y424543D02*
D03*
X438500Y417457D02*
D03*
Y424543D02*
D03*
X317000Y311000D02*
D03*
Y318087D02*
D03*
D22*
X370598Y388555D02*
D03*
Y379500D02*
D03*
Y370445D02*
D03*
D23*
X395402Y379500D02*
D03*
D24*
X395500Y433390D02*
D03*
X385500D02*
D03*
Y399610D02*
D03*
X395500D02*
D03*
X421000Y433390D02*
D03*
X411000D02*
D03*
Y399610D02*
D03*
X421000D02*
D03*
D25*
X417000Y360323D02*
D03*
X422000D02*
D03*
X427000D02*
D03*
X432000D02*
D03*
Y381677D02*
D03*
X427000D02*
D03*
X422000D02*
D03*
X417000D02*
D03*
X446000Y360323D02*
D03*
X451000D02*
D03*
X456000D02*
D03*
X461000D02*
D03*
Y381677D02*
D03*
X456000D02*
D03*
X451000D02*
D03*
X446000D02*
D03*
D26*
X305323Y447500D02*
D03*
Y442500D02*
D03*
Y437500D02*
D03*
Y432500D02*
D03*
X326677D02*
D03*
Y437500D02*
D03*
Y442500D02*
D03*
Y447500D02*
D03*
D27*
X303508Y412472D02*
D03*
Y421528D02*
D03*
Y387472D02*
D03*
Y396528D02*
D03*
D28*
X443055Y317000D02*
D03*
Y331961D02*
D03*
X434000D02*
D03*
Y317000D02*
D03*
D29*
X335000Y305000D02*
D03*
Y330984D02*
D03*
M02*
