G04*
G04 #@! TF.GenerationSoftware,Altium Limited,Altium Designer,23.8.1 (32)*
G04*
G04 Layer_Physical_Order=2*
G04 Layer_Color=16711680*
%FSLAX25Y25*%
%MOIN*%
G70*
G04*
G04 #@! TF.SameCoordinates,823993F6-8BEF-49D6-9206-44A6C2E96FBA*
G04*
G04*
G04 #@! TF.FilePolarity,Positive*
G04*
G01*
G75*
%ADD12C,0.01181*%
%ADD52C,0.01968*%
%ADD53R,0.05394X0.05394*%
%ADD54C,0.05394*%
%ADD55R,0.06319X0.06319*%
%ADD56C,0.06319*%
%ADD57C,0.17717*%
%ADD58R,0.08858X0.08858*%
%ADD59C,0.08858*%
%ADD60C,0.20079*%
%ADD61C,0.01968*%
G36*
X462955Y546654D02*
X464652Y546139D01*
X466217Y545303D01*
X467588Y544178D01*
X468713Y542807D01*
X469549Y541242D01*
X470064Y539545D01*
X470231Y537855D01*
X470221Y537780D01*
Y365392D01*
X469721Y365241D01*
X469533Y365521D01*
X462021Y373033D01*
X461435Y373425D01*
X460744Y373562D01*
X433949D01*
X433257Y373425D01*
X432671Y373033D01*
X430445Y370806D01*
X424000D01*
X423826Y370772D01*
X423648D01*
X423483Y370704D01*
X423309Y370669D01*
X423161Y370570D01*
X422996Y370502D01*
X422871Y370376D01*
X422723Y370277D01*
X422624Y370129D01*
X422498Y370004D01*
X422430Y369839D01*
X422331Y369691D01*
X422296Y369517D01*
X422228Y369352D01*
Y369175D01*
X422194Y369000D01*
X422228Y368826D01*
Y368648D01*
X422296Y368483D01*
X422331Y368309D01*
X422430Y368161D01*
X422498Y367997D01*
X422624Y367871D01*
X422723Y367723D01*
X422871Y367624D01*
X422996Y367498D01*
X423161Y367430D01*
X423309Y367331D01*
X423483Y367296D01*
X423648Y367228D01*
X423826D01*
X424000Y367194D01*
X431193D01*
X431884Y367331D01*
X432470Y367723D01*
X434697Y369950D01*
X437742D01*
X437933Y369488D01*
X405252Y336806D01*
X368500D01*
X368325Y336772D01*
X368148D01*
X367983Y336704D01*
X367809Y336669D01*
X367661Y336570D01*
X367496Y336502D01*
X367371Y336376D01*
X367223Y336277D01*
X367124Y336129D01*
X366998Y336004D01*
X366930Y335839D01*
X366831Y335691D01*
X366796Y335517D01*
X366728Y335352D01*
Y335174D01*
X366694Y335000D01*
X366728Y334825D01*
Y334648D01*
X366796Y334483D01*
X366831Y334309D01*
X366930Y334161D01*
X366998Y333996D01*
X367124Y333871D01*
X367223Y333723D01*
X367371Y333624D01*
X367496Y333498D01*
X367661Y333430D01*
X367809Y333331D01*
X367811Y333306D01*
X367500Y332806D01*
X367325Y332772D01*
X367148D01*
X366983Y332704D01*
X366809Y332669D01*
X366661Y332570D01*
X366496Y332502D01*
X366371Y332376D01*
X366306Y332333D01*
X365997Y332428D01*
X365806Y332554D01*
Y337946D01*
X365997Y338072D01*
X366306Y338167D01*
X366371Y338124D01*
X366496Y337998D01*
X366661Y337930D01*
X366809Y337831D01*
X366983Y337796D01*
X367148Y337728D01*
X367325D01*
X367500Y337694D01*
X391000D01*
X391691Y337831D01*
X392277Y338223D01*
X411277Y357223D01*
X411376Y357371D01*
X411502Y357496D01*
X411570Y357661D01*
X411669Y357809D01*
X411704Y357983D01*
X411772Y358148D01*
Y358326D01*
X411806Y358500D01*
X411772Y358675D01*
Y358852D01*
X411704Y359017D01*
X411669Y359191D01*
X411570Y359339D01*
X411502Y359504D01*
X411376Y359629D01*
X411277Y359777D01*
X411129Y359876D01*
X411004Y360002D01*
X410839Y360070D01*
X410691Y360169D01*
X410517Y360204D01*
X410352Y360272D01*
X410175D01*
X410000Y360306D01*
X409826Y360272D01*
X409648D01*
X409483Y360204D01*
X409309Y360169D01*
X409161Y360070D01*
X408996Y360002D01*
X408871Y359876D01*
X408723Y359777D01*
X390252Y341306D01*
X368986D01*
X368833Y341806D01*
X368876Y341871D01*
X369002Y341996D01*
X369070Y342161D01*
X369169Y342309D01*
X369204Y342483D01*
X369272Y342648D01*
Y342826D01*
X369306Y343000D01*
X369272Y343175D01*
Y343352D01*
X369204Y343517D01*
X369169Y343691D01*
X369070Y343839D01*
X369002Y344004D01*
X368876Y344129D01*
X368777Y344277D01*
X368629Y344376D01*
X368504Y344502D01*
X368339Y344570D01*
X368191Y344669D01*
X368017Y344704D01*
X367852Y344772D01*
X367674D01*
X367500Y344806D01*
X367325Y344772D01*
X367148D01*
X366983Y344704D01*
X366809Y344669D01*
X366661Y344570D01*
X366496Y344502D01*
X366371Y344376D01*
X366223Y344277D01*
X365921Y343975D01*
X365667Y343925D01*
X365081Y343533D01*
X362723Y341175D01*
X362331Y340589D01*
X362194Y339897D01*
Y331569D01*
X361732Y331378D01*
X359806Y333303D01*
Y386752D01*
X364777Y391723D01*
X364876Y391871D01*
X365002Y391996D01*
X365070Y392161D01*
X365169Y392309D01*
X365204Y392483D01*
X365272Y392648D01*
Y392826D01*
X365306Y393000D01*
X365272Y393175D01*
Y393352D01*
X365204Y393517D01*
X365169Y393691D01*
X365070Y393839D01*
X365002Y394004D01*
X364876Y394129D01*
X364777Y394277D01*
X364629Y394376D01*
X364504Y394502D01*
X364339Y394570D01*
X364191Y394669D01*
X364017Y394704D01*
X363852Y394772D01*
X363674D01*
X363500Y394806D01*
X363326Y394772D01*
X363148D01*
X362983Y394704D01*
X362809Y394669D01*
X362661Y394570D01*
X362496Y394502D01*
X362371Y394376D01*
X362223Y394277D01*
X356723Y388777D01*
X356331Y388191D01*
X356194Y387500D01*
Y332555D01*
X356331Y331863D01*
X356723Y331277D01*
X359438Y328562D01*
Y326756D01*
X359575Y326065D01*
X359967Y325479D01*
X372416Y313029D01*
X372572Y312925D01*
X372621Y312427D01*
X372540Y312347D01*
X372282Y311723D01*
X376163D01*
X376048Y312000D01*
X376383Y312500D01*
X387445D01*
X388723Y311223D01*
X388871Y311124D01*
X388996Y310998D01*
X389161Y310930D01*
X389309Y310831D01*
X389483Y310796D01*
X389648Y310728D01*
X389826D01*
X390000Y310694D01*
X390175Y310728D01*
X390352D01*
X390517Y310796D01*
X390691Y310831D01*
X390839Y310930D01*
X391004Y310998D01*
X391129Y311124D01*
X391277Y311223D01*
X391376Y311371D01*
X391502Y311496D01*
X391570Y311661D01*
X391669Y311809D01*
X391704Y311983D01*
X391772Y312148D01*
Y312326D01*
X391806Y312500D01*
X391772Y312674D01*
Y312852D01*
X391704Y313017D01*
X391669Y313191D01*
X391570Y313339D01*
X391502Y313504D01*
X391376Y313629D01*
X391277Y313777D01*
X389471Y315584D01*
X388885Y315975D01*
X388194Y316113D01*
X374442D01*
X366323Y324232D01*
X366514Y324694D01*
X437500D01*
X438191Y324831D01*
X438777Y325223D01*
X465988Y352433D01*
X466449Y352242D01*
Y343826D01*
X466155Y343747D01*
X465361Y343288D01*
X464712Y342639D01*
X464253Y341845D01*
X464016Y340959D01*
Y340041D01*
X464253Y339155D01*
X464712Y338361D01*
X465361Y337712D01*
X466155Y337253D01*
X467041Y337016D01*
X467959D01*
X468845Y337253D01*
X469639Y337712D01*
X469759Y337831D01*
X470221Y337640D01*
Y333645D01*
X470102Y333596D01*
X469721Y333487D01*
X468927Y333945D01*
X468000Y334193D01*
Y330500D01*
Y326807D01*
X468927Y327055D01*
X469721Y327513D01*
X470102Y327404D01*
X470221Y327355D01*
Y323360D01*
X469759Y323169D01*
X469639Y323288D01*
X468845Y323747D01*
X467959Y323984D01*
X467041D01*
X466155Y323747D01*
X465361Y323288D01*
X464712Y322639D01*
X464520Y322306D01*
X433037D01*
X432345Y322169D01*
X431759Y321777D01*
X410788Y300806D01*
X377500D01*
X377326Y300772D01*
X377148D01*
X376983Y300704D01*
X376809Y300669D01*
X376661Y300570D01*
X376496Y300502D01*
X376371Y300376D01*
X376223Y300277D01*
X376124Y300129D01*
X375998Y300004D01*
X375930Y299839D01*
X375831Y299691D01*
X375796Y299517D01*
X375728Y299352D01*
Y299174D01*
X375694Y299000D01*
X375728Y298826D01*
Y298648D01*
X375340Y298326D01*
X375258Y298297D01*
X374277Y299277D01*
X374129Y299376D01*
X374004Y299502D01*
X373839Y299570D01*
X373691Y299669D01*
X373517Y299704D01*
X373352Y299772D01*
X373175D01*
X373000Y299806D01*
X372826Y299772D01*
X372648D01*
X372483Y299704D01*
X372309Y299669D01*
X372161Y299570D01*
X371996Y299502D01*
X371871Y299376D01*
X371723Y299277D01*
X371624Y299129D01*
X371498Y299004D01*
X371430Y298839D01*
X371331Y298691D01*
X371296Y298517D01*
X371228Y298352D01*
Y298175D01*
X371194Y298000D01*
X371228Y297826D01*
Y297648D01*
X371296Y297483D01*
X371331Y297309D01*
X371430Y297161D01*
X371498Y296996D01*
X371624Y296871D01*
X371723Y296723D01*
X373479Y294967D01*
X374065Y294575D01*
X374756Y294438D01*
X414195D01*
X414886Y294575D01*
X415472Y294967D01*
X429199Y308694D01*
X464016D01*
Y307016D01*
X470221D01*
Y285811D01*
X470231Y285736D01*
X470064Y284046D01*
X469549Y282348D01*
X468713Y280784D01*
X467588Y279413D01*
X466217Y278287D01*
X464652Y277451D01*
X462955Y276936D01*
X461265Y276770D01*
X461189Y276780D01*
X304311D01*
X304236Y276770D01*
X302546Y276936D01*
X300848Y277451D01*
X299284Y278287D01*
X297913Y279413D01*
X296787Y280784D01*
X295951Y282348D01*
X295436Y284046D01*
X295270Y285736D01*
X295280Y285811D01*
Y307516D01*
X301484D01*
Y314484D01*
X295280D01*
Y318140D01*
X295742Y318331D01*
X295861Y318212D01*
X296655Y317753D01*
X297541Y317516D01*
X298459D01*
X299345Y317753D01*
X300139Y318212D01*
X300788Y318861D01*
X301247Y319655D01*
X301484Y320541D01*
Y321459D01*
X301247Y322345D01*
X300788Y323139D01*
X300139Y323788D01*
X299345Y324247D01*
X298459Y324484D01*
X297541D01*
X296655Y324247D01*
X295861Y323788D01*
X295742Y323669D01*
X295280Y323860D01*
Y328140D01*
X295742Y328331D01*
X295861Y328212D01*
X296655Y327753D01*
X297541Y327516D01*
X298459D01*
X299345Y327753D01*
X300139Y328212D01*
X300788Y328861D01*
X301247Y329655D01*
X301484Y330541D01*
Y331459D01*
X301247Y332345D01*
X300788Y333139D01*
X300139Y333788D01*
X299345Y334247D01*
X298459Y334484D01*
X297541D01*
X296655Y334247D01*
X295861Y333788D01*
X295742Y333669D01*
X295280Y333860D01*
Y337855D01*
X295395Y337903D01*
X295780Y338013D01*
X296573Y337555D01*
X297500Y337307D01*
Y341000D01*
Y344693D01*
X296573Y344445D01*
X295780Y343987D01*
X295395Y344097D01*
X295280Y344145D01*
Y348140D01*
X295742Y348331D01*
X295861Y348212D01*
X296655Y347753D01*
X297541Y347516D01*
X298459D01*
X299345Y347753D01*
X300139Y348212D01*
X300788Y348861D01*
X301247Y349655D01*
X301484Y350541D01*
Y351459D01*
X301247Y352345D01*
X300788Y353139D01*
X300139Y353788D01*
X299345Y354247D01*
X298459Y354484D01*
X297541D01*
X296655Y354247D01*
X295861Y353788D01*
X295742Y353669D01*
X295280Y353860D01*
Y358140D01*
X295742Y358331D01*
X295861Y358212D01*
X296655Y357753D01*
X297541Y357516D01*
X298459D01*
X299345Y357753D01*
X300139Y358212D01*
X300788Y358861D01*
X301247Y359655D01*
X301484Y360541D01*
Y361459D01*
X301247Y362345D01*
X300788Y363139D01*
X300139Y363788D01*
X299345Y364247D01*
X298459Y364484D01*
X297541D01*
X296655Y364247D01*
X295861Y363788D01*
X295742Y363669D01*
X295280Y363860D01*
Y537780D01*
X295270Y537855D01*
X295436Y539545D01*
X295951Y541242D01*
X296787Y542807D01*
X297913Y544178D01*
X299284Y545303D01*
X300848Y546139D01*
X302546Y546654D01*
X304236Y546821D01*
X304311Y546811D01*
X461189D01*
X461265Y546821D01*
X462955Y546654D01*
D02*
G37*
%LPC*%
G36*
X467035Y533436D02*
Y531996D01*
X468476D01*
X468218Y532620D01*
X467659Y533178D01*
X467035Y533436D01*
D02*
G37*
G36*
X466035D02*
X465411Y533178D01*
X464853Y532620D01*
X464595Y531996D01*
X466035D01*
Y533436D01*
D02*
G37*
G36*
X431602D02*
Y531996D01*
X433043D01*
X432784Y532620D01*
X432226Y533178D01*
X431602Y533436D01*
D02*
G37*
G36*
X430602D02*
X429978Y533178D01*
X429420Y532620D01*
X429162Y531996D01*
X430602D01*
Y533436D01*
D02*
G37*
G36*
X419791D02*
Y531996D01*
X421232D01*
X420973Y532620D01*
X420415Y533178D01*
X419791Y533436D01*
D02*
G37*
G36*
X418791D02*
X418167Y533178D01*
X417609Y532620D01*
X417351Y531996D01*
X418791D01*
Y533436D01*
D02*
G37*
G36*
X407980D02*
Y531996D01*
X409421D01*
X409162Y532620D01*
X408604Y533178D01*
X407980Y533436D01*
D02*
G37*
G36*
X406980D02*
X406356Y533178D01*
X405798Y532620D01*
X405540Y531996D01*
X406980D01*
Y533436D01*
D02*
G37*
G36*
X396169D02*
Y531996D01*
X397610D01*
X397351Y532620D01*
X396793Y533178D01*
X396169Y533436D01*
D02*
G37*
G36*
X395169D02*
X394545Y533178D01*
X393987Y532620D01*
X393728Y531996D01*
X395169D01*
Y533436D01*
D02*
G37*
G36*
X384358D02*
Y531996D01*
X385799D01*
X385540Y532620D01*
X384982Y533178D01*
X384358Y533436D01*
D02*
G37*
G36*
X383358D02*
X382734Y533178D01*
X382176Y532620D01*
X381918Y531996D01*
X383358D01*
Y533436D01*
D02*
G37*
G36*
X372547D02*
Y531996D01*
X373988D01*
X373729Y532620D01*
X373171Y533178D01*
X372547Y533436D01*
D02*
G37*
G36*
X371547D02*
X370923Y533178D01*
X370365Y532620D01*
X370107Y531996D01*
X371547D01*
Y533436D01*
D02*
G37*
G36*
X360736D02*
Y531996D01*
X362177D01*
X361918Y532620D01*
X361360Y533178D01*
X360736Y533436D01*
D02*
G37*
G36*
X359736D02*
X359112Y533178D01*
X358554Y532620D01*
X358295Y531996D01*
X359736D01*
Y533436D01*
D02*
G37*
G36*
X348925D02*
Y531996D01*
X350366D01*
X350107Y532620D01*
X349549Y533178D01*
X348925Y533436D01*
D02*
G37*
G36*
X347925D02*
X347301Y533178D01*
X346743Y532620D01*
X346484Y531996D01*
X347925D01*
Y533436D01*
D02*
G37*
G36*
X337114D02*
Y531996D01*
X338555D01*
X338296Y532620D01*
X337738Y533178D01*
X337114Y533436D01*
D02*
G37*
G36*
X336114D02*
X335490Y533178D01*
X334932Y532620D01*
X334673Y531996D01*
X336114D01*
Y533436D01*
D02*
G37*
G36*
X468476Y530996D02*
X467035D01*
Y529555D01*
X467659Y529814D01*
X468218Y530372D01*
X468476Y530996D01*
D02*
G37*
G36*
X466035D02*
X464595D01*
X464853Y530372D01*
X465411Y529814D01*
X466035Y529555D01*
Y530996D01*
D02*
G37*
G36*
X433043D02*
X431602D01*
Y529555D01*
X432226Y529814D01*
X432784Y530372D01*
X433043Y530996D01*
D02*
G37*
G36*
X430602D02*
X429162D01*
X429420Y530372D01*
X429978Y529814D01*
X430602Y529555D01*
Y530996D01*
D02*
G37*
G36*
X421232D02*
X419791D01*
Y529555D01*
X420415Y529814D01*
X420973Y530372D01*
X421232Y530996D01*
D02*
G37*
G36*
X418791D02*
X417351D01*
X417609Y530372D01*
X418167Y529814D01*
X418791Y529555D01*
Y530996D01*
D02*
G37*
G36*
X409421D02*
X407980D01*
Y529555D01*
X408604Y529814D01*
X409162Y530372D01*
X409421Y530996D01*
D02*
G37*
G36*
X406980D02*
X405540D01*
X405798Y530372D01*
X406356Y529814D01*
X406980Y529555D01*
Y530996D01*
D02*
G37*
G36*
X397610D02*
X396169D01*
Y529555D01*
X396793Y529814D01*
X397351Y530372D01*
X397610Y530996D01*
D02*
G37*
G36*
X395169D02*
X393728D01*
X393987Y530372D01*
X394545Y529814D01*
X395169Y529555D01*
Y530996D01*
D02*
G37*
G36*
X385799D02*
X384358D01*
Y529555D01*
X384982Y529814D01*
X385540Y530372D01*
X385799Y530996D01*
D02*
G37*
G36*
X383358D02*
X381918D01*
X382176Y530372D01*
X382734Y529814D01*
X383358Y529555D01*
Y530996D01*
D02*
G37*
G36*
X373988D02*
X372547D01*
Y529555D01*
X373171Y529814D01*
X373729Y530372D01*
X373988Y530996D01*
D02*
G37*
G36*
X371547D02*
X370107D01*
X370365Y530372D01*
X370923Y529814D01*
X371547Y529555D01*
Y530996D01*
D02*
G37*
G36*
X362177D02*
X360736D01*
Y529555D01*
X361360Y529814D01*
X361918Y530372D01*
X362177Y530996D01*
D02*
G37*
G36*
X359736D02*
X358295D01*
X358554Y530372D01*
X359112Y529814D01*
X359736Y529555D01*
Y530996D01*
D02*
G37*
G36*
X350366D02*
X348925D01*
Y529555D01*
X349549Y529814D01*
X350107Y530372D01*
X350366Y530996D01*
D02*
G37*
G36*
X347925D02*
X346484D01*
X346743Y530372D01*
X347301Y529814D01*
X347925Y529555D01*
Y530996D01*
D02*
G37*
G36*
X338555D02*
X337114D01*
Y529555D01*
X337738Y529814D01*
X338296Y530372D01*
X338555Y530996D01*
D02*
G37*
G36*
X336114D02*
X334673D01*
X334932Y530372D01*
X335490Y529814D01*
X336114Y529555D01*
Y530996D01*
D02*
G37*
G36*
X447577Y544917D02*
X445872D01*
X444189Y544651D01*
X442568Y544124D01*
X441050Y543350D01*
X439671Y542349D01*
X438466Y541144D01*
X437465Y539765D01*
X436691Y538247D01*
X436164Y536626D01*
X435898Y534943D01*
Y533239D01*
X436164Y531555D01*
X436691Y529935D01*
X437465Y528416D01*
X438466Y527037D01*
X439671Y525832D01*
X441050Y524831D01*
X442568Y524057D01*
X444189Y523530D01*
X445872Y523264D01*
X447577D01*
X449260Y523530D01*
X450880Y524057D01*
X452399Y524831D01*
X453778Y525832D01*
X454983Y527037D01*
X455984Y528416D01*
X456758Y529935D01*
X457285Y531555D01*
X457551Y533239D01*
Y534943D01*
X457285Y536626D01*
X456758Y538247D01*
X455984Y539765D01*
X454983Y541144D01*
X453778Y542349D01*
X452399Y543350D01*
X450880Y544124D01*
X449260Y544651D01*
X447577Y544917D01*
D02*
G37*
G36*
X319624D02*
X317920D01*
X316236Y544651D01*
X314616Y544124D01*
X313097Y543350D01*
X311719Y542349D01*
X310513Y541144D01*
X309512Y539765D01*
X308738Y538247D01*
X308211Y536626D01*
X307945Y534943D01*
Y533239D01*
X308211Y531555D01*
X308738Y529935D01*
X309512Y528416D01*
X310513Y527037D01*
X311719Y525832D01*
X313097Y524831D01*
X314616Y524057D01*
X316236Y523530D01*
X317920Y523264D01*
X319624D01*
X321307Y523530D01*
X322928Y524057D01*
X324446Y524831D01*
X325825Y525832D01*
X327030Y527037D01*
X328031Y528416D01*
X328805Y529935D01*
X329332Y531555D01*
X329598Y533239D01*
Y534943D01*
X329332Y536626D01*
X328805Y538247D01*
X328031Y539765D01*
X327030Y541144D01*
X325825Y542349D01*
X324446Y543350D01*
X322928Y544124D01*
X321307Y544651D01*
X319624Y544917D01*
D02*
G37*
G36*
X461130Y521626D02*
Y520185D01*
X462570D01*
X462312Y520809D01*
X461754Y521367D01*
X461130Y521626D01*
D02*
G37*
G36*
X460130D02*
X459506Y521367D01*
X458948Y520809D01*
X458689Y520185D01*
X460130D01*
Y521626D01*
D02*
G37*
G36*
X449319D02*
Y520185D01*
X450759D01*
X450501Y520809D01*
X449943Y521367D01*
X449319Y521626D01*
D02*
G37*
G36*
X448319D02*
X447695Y521367D01*
X447137Y520809D01*
X446878Y520185D01*
X448319D01*
Y521626D01*
D02*
G37*
G36*
X437508D02*
Y520185D01*
X438948D01*
X438690Y520809D01*
X438132Y521367D01*
X437508Y521626D01*
D02*
G37*
G36*
X436508D02*
X435884Y521367D01*
X435326Y520809D01*
X435067Y520185D01*
X436508D01*
Y521626D01*
D02*
G37*
G36*
X331209D02*
Y520185D01*
X332649D01*
X332391Y520809D01*
X331833Y521367D01*
X331209Y521626D01*
D02*
G37*
G36*
X330209D02*
X329585Y521367D01*
X329026Y520809D01*
X328768Y520185D01*
X330209D01*
Y521626D01*
D02*
G37*
G36*
X319397D02*
Y520185D01*
X320838D01*
X320580Y520809D01*
X320022Y521367D01*
X319397Y521626D01*
D02*
G37*
G36*
X318397D02*
X317774Y521367D01*
X317215Y520809D01*
X316957Y520185D01*
X318397D01*
Y521626D01*
D02*
G37*
G36*
X307587D02*
Y520185D01*
X309027D01*
X308769Y520809D01*
X308210Y521367D01*
X307587Y521626D01*
D02*
G37*
G36*
X306587D02*
X305962Y521367D01*
X305404Y520809D01*
X305146Y520185D01*
X306587D01*
Y521626D01*
D02*
G37*
G36*
X462570Y519185D02*
X461130D01*
Y517744D01*
X461754Y518003D01*
X462312Y518561D01*
X462570Y519185D01*
D02*
G37*
G36*
X460130D02*
X458689D01*
X458948Y518561D01*
X459506Y518003D01*
X460130Y517744D01*
Y519185D01*
D02*
G37*
G36*
X450759D02*
X449319D01*
Y517744D01*
X449943Y518003D01*
X450501Y518561D01*
X450759Y519185D01*
D02*
G37*
G36*
X448319D02*
X446878D01*
X447137Y518561D01*
X447695Y518003D01*
X448319Y517744D01*
Y519185D01*
D02*
G37*
G36*
X438948D02*
X437508D01*
Y517744D01*
X438132Y518003D01*
X438690Y518561D01*
X438948Y519185D01*
D02*
G37*
G36*
X436508D02*
X435067D01*
X435326Y518561D01*
X435884Y518003D01*
X436508Y517744D01*
Y519185D01*
D02*
G37*
G36*
X332649D02*
X331209D01*
Y517744D01*
X331833Y518003D01*
X332391Y518561D01*
X332649Y519185D01*
D02*
G37*
G36*
X330209D02*
X328768D01*
X329026Y518561D01*
X329585Y518003D01*
X330209Y517744D01*
Y519185D01*
D02*
G37*
G36*
X320838D02*
X319397D01*
Y517744D01*
X320022Y518003D01*
X320580Y518561D01*
X320838Y519185D01*
D02*
G37*
G36*
X318397D02*
X316957D01*
X317215Y518561D01*
X317774Y518003D01*
X318397Y517744D01*
Y519185D01*
D02*
G37*
G36*
X309027D02*
X307587D01*
Y517744D01*
X308210Y518003D01*
X308769Y518561D01*
X309027Y519185D01*
D02*
G37*
G36*
X306587D02*
X305146D01*
X305404Y518561D01*
X305962Y518003D01*
X306587Y517744D01*
Y519185D01*
D02*
G37*
G36*
X359841Y513929D02*
X359626D01*
Y509000D01*
X364555D01*
Y509215D01*
X364185Y510596D01*
X363470Y511834D01*
X362459Y512844D01*
X361222Y513559D01*
X359841Y513929D01*
D02*
G37*
G36*
X395274D02*
X395059D01*
Y509000D01*
X399988D01*
Y509215D01*
X399618Y510596D01*
X398903Y511834D01*
X397893Y512844D01*
X396655Y513559D01*
X395274Y513929D01*
D02*
G37*
G36*
X394059D02*
X393844D01*
X392463Y513559D01*
X391226Y512844D01*
X390215Y511834D01*
X389500Y510596D01*
X389130Y509215D01*
Y509000D01*
X394059D01*
Y513929D01*
D02*
G37*
G36*
X358626D02*
X358411D01*
X357030Y513559D01*
X355792Y512844D01*
X354782Y511834D01*
X354067Y510596D01*
X353697Y509215D01*
Y509000D01*
X358626D01*
Y513929D01*
D02*
G37*
G36*
X467035Y509815D02*
Y508374D01*
X468476D01*
X468218Y508998D01*
X467659Y509556D01*
X467035Y509815D01*
D02*
G37*
G36*
X466035D02*
X465411Y509556D01*
X464853Y508998D01*
X464595Y508374D01*
X466035D01*
Y509815D01*
D02*
G37*
G36*
X325303D02*
Y508374D01*
X326744D01*
X326485Y508998D01*
X325927Y509556D01*
X325303Y509815D01*
D02*
G37*
G36*
X324303D02*
X323679Y509556D01*
X323121Y508998D01*
X322862Y508374D01*
X324303D01*
Y509815D01*
D02*
G37*
G36*
X313492D02*
Y508374D01*
X314933D01*
X314674Y508998D01*
X314116Y509556D01*
X313492Y509815D01*
D02*
G37*
G36*
X312492D02*
X311868Y509556D01*
X311310Y508998D01*
X311051Y508374D01*
X312492D01*
Y509815D01*
D02*
G37*
G36*
X468476Y507374D02*
X467035D01*
Y505933D01*
X467659Y506192D01*
X468218Y506750D01*
X468476Y507374D01*
D02*
G37*
G36*
X466035D02*
X464595D01*
X464853Y506750D01*
X465411Y506192D01*
X466035Y505933D01*
Y507374D01*
D02*
G37*
G36*
X326744D02*
X325303D01*
Y505933D01*
X325927Y506192D01*
X326485Y506750D01*
X326744Y507374D01*
D02*
G37*
G36*
X324303D02*
X322862D01*
X323121Y506750D01*
X323679Y506192D01*
X324303Y505933D01*
Y507374D01*
D02*
G37*
G36*
X314933D02*
X313492D01*
Y505933D01*
X314116Y506192D01*
X314674Y506750D01*
X314933Y507374D01*
D02*
G37*
G36*
X312492D02*
X311051D01*
X311310Y506750D01*
X311868Y506192D01*
X312492Y505933D01*
Y507374D01*
D02*
G37*
G36*
X393370Y523306D02*
X344603D01*
X343911Y523169D01*
X343325Y522777D01*
X336467Y515919D01*
X336075Y515333D01*
X335938Y514642D01*
Y389756D01*
X336075Y389065D01*
X336467Y388479D01*
X338880Y386065D01*
X338967Y385521D01*
X336223Y382777D01*
X335831Y382191D01*
X335694Y381500D01*
Y324500D01*
X335831Y323809D01*
X336223Y323223D01*
X344223Y315223D01*
X344371Y315124D01*
X344496Y314998D01*
X344661Y314930D01*
X344809Y314831D01*
X344983Y314796D01*
X345148Y314728D01*
X345325D01*
X345500Y314694D01*
X345674Y314728D01*
X345852D01*
X346017Y314796D01*
X346191Y314831D01*
X346339Y314930D01*
X346504Y314998D01*
X346629Y315124D01*
X346777Y315223D01*
X346876Y315371D01*
X347002Y315496D01*
X347070Y315661D01*
X347169Y315809D01*
X347204Y315983D01*
X347272Y316148D01*
Y316325D01*
X347306Y316500D01*
X347272Y316674D01*
Y316852D01*
X347204Y317017D01*
X347169Y317191D01*
X347070Y317339D01*
X347002Y317504D01*
X346876Y317629D01*
X346777Y317777D01*
X339306Y325248D01*
Y380752D01*
X340992Y382438D01*
X341641D01*
X342333Y382575D01*
X342919Y382967D01*
X344533Y384581D01*
X344925Y385167D01*
X345062Y385858D01*
Y386508D01*
X360777Y402223D01*
X361169Y402809D01*
X361306Y403500D01*
Y416000D01*
X361272Y416175D01*
Y416352D01*
X361204Y416517D01*
X361169Y416691D01*
X361070Y416839D01*
X361002Y417004D01*
X360876Y417129D01*
X360777Y417277D01*
X360629Y417376D01*
X360504Y417502D01*
X360339Y417570D01*
X360191Y417669D01*
X360017Y417704D01*
X359852Y417772D01*
X359675D01*
X359500Y417806D01*
X359326Y417772D01*
X359148D01*
X358983Y417704D01*
X358809Y417669D01*
X358661Y417570D01*
X358496Y417502D01*
X358371Y417376D01*
X358223Y417277D01*
X358124Y417129D01*
X357998Y417004D01*
X357930Y416839D01*
X357831Y416691D01*
X357796Y416517D01*
X357728Y416352D01*
Y416175D01*
X357694Y416000D01*
Y404248D01*
X341979Y388533D01*
X341435Y388620D01*
X339550Y390504D01*
Y410412D01*
X339595Y410484D01*
X339855Y410693D01*
X340051Y410769D01*
X340148Y410728D01*
X340325D01*
X340500Y410694D01*
X340674Y410728D01*
X340852D01*
X341017Y410796D01*
X341191Y410831D01*
X341339Y410930D01*
X341504Y410998D01*
X341629Y411124D01*
X341777Y411223D01*
X341876Y411371D01*
X342002Y411496D01*
X342070Y411661D01*
X342169Y411809D01*
X342204Y411983D01*
X342272Y412148D01*
Y412325D01*
X342306Y412500D01*
Y474246D01*
X342806Y474380D01*
X343141Y473801D01*
X344112Y472830D01*
X345302Y472143D01*
X346628Y471787D01*
X348002D01*
X349328Y472143D01*
X350518Y472830D01*
X351489Y473801D01*
X352176Y474990D01*
X352532Y476317D01*
Y477691D01*
X352176Y479017D01*
X351489Y480207D01*
X350518Y481178D01*
X349328Y481865D01*
X348002Y482221D01*
X346628D01*
X345302Y481865D01*
X344112Y481178D01*
X343141Y480207D01*
X342806Y479628D01*
X342306Y479762D01*
Y505742D01*
X342806Y505876D01*
X343141Y505297D01*
X344112Y504326D01*
X345302Y503639D01*
X345910Y503476D01*
Y496350D01*
X346017Y495813D01*
X346322Y495357D01*
X349822Y491857D01*
X350120Y491657D01*
X350162Y491104D01*
X350017Y491021D01*
X349046Y490050D01*
X348359Y488860D01*
X348004Y487533D01*
Y486160D01*
X348359Y484833D01*
X349046Y483643D01*
X350017Y482672D01*
X351207Y481985D01*
X352534Y481630D01*
X353907D01*
X355234Y481985D01*
X356423Y482672D01*
X357395Y483643D01*
X358082Y484833D01*
X358437Y486160D01*
Y487533D01*
X358082Y488860D01*
X357395Y490050D01*
X356499Y490945D01*
X356605Y491445D01*
X361647D01*
X361753Y490945D01*
X360857Y490050D01*
X360171Y488860D01*
X359815Y487533D01*
Y486160D01*
X360171Y484833D01*
X360857Y483643D01*
X361828Y482672D01*
X363018Y481985D01*
X363627Y481822D01*
Y480588D01*
X363126Y480381D01*
X362329Y481178D01*
X361139Y481865D01*
X359813Y482221D01*
X358439D01*
X357113Y481865D01*
X355923Y481178D01*
X354952Y480207D01*
X354265Y479017D01*
X353909Y477691D01*
Y476317D01*
X354265Y474990D01*
X354952Y473801D01*
X355923Y472830D01*
X357113Y472143D01*
X358439Y471787D01*
X359813D01*
X361139Y472143D01*
X362329Y472830D01*
X363126Y473627D01*
X363516Y473504D01*
X363635Y473428D01*
X363734Y472931D01*
X364038Y472475D01*
X370507Y466007D01*
X370962Y465702D01*
X371500Y465595D01*
X397418D01*
X417595Y445418D01*
Y412005D01*
X417590Y411996D01*
X417436Y411870D01*
X417095Y411688D01*
X417017Y411704D01*
X416852Y411772D01*
X416675D01*
X416500Y411806D01*
X416326Y411772D01*
X416148D01*
X415983Y411704D01*
X415809Y411669D01*
X415661Y411570D01*
X415496Y411502D01*
X415371Y411376D01*
X415223Y411277D01*
X407252Y403306D01*
X404500D01*
X404325Y403272D01*
X404148D01*
X403983Y403204D01*
X403809Y403169D01*
X403661Y403070D01*
X403496Y403002D01*
X403371Y402876D01*
X403223Y402777D01*
X403124Y402629D01*
X402998Y402504D01*
X402930Y402339D01*
X402831Y402191D01*
X402796Y402017D01*
X402728Y401852D01*
Y401675D01*
X402694Y401500D01*
X402728Y401326D01*
Y401148D01*
X402796Y400983D01*
X402831Y400809D01*
X402930Y400661D01*
X402998Y400496D01*
X403124Y400371D01*
X403223Y400223D01*
X403371Y400124D01*
X403496Y399998D01*
X403661Y399930D01*
X403809Y399831D01*
X403983Y399796D01*
X404148Y399728D01*
X404325D01*
X404500Y399694D01*
X408000D01*
X408691Y399831D01*
X409277Y400223D01*
X417133Y408078D01*
X417595Y407887D01*
Y385000D01*
X417702Y384462D01*
X418007Y384007D01*
X419507Y382507D01*
X419962Y382202D01*
X420500Y382095D01*
X426000D01*
X426538Y382202D01*
X426994Y382507D01*
X427993Y383507D01*
X428298Y383962D01*
X428405Y384500D01*
Y386899D01*
X428502Y386996D01*
X428772Y387648D01*
Y388352D01*
X428502Y389004D01*
X428004Y389502D01*
X427352Y389772D01*
X426648D01*
X425996Y389502D01*
X425498Y389004D01*
X425228Y388352D01*
Y387648D01*
X425498Y386996D01*
X425595Y386899D01*
Y385082D01*
X425418Y384905D01*
X421082D01*
X420405Y385582D01*
Y386383D01*
X420905Y386590D01*
X420996Y386498D01*
X421648Y386228D01*
X422352D01*
X423004Y386498D01*
X423502Y386996D01*
X423772Y387648D01*
Y388352D01*
X423502Y389004D01*
X423405Y389101D01*
Y447000D01*
X423298Y447538D01*
X422994Y447994D01*
X402335Y468652D01*
X402470Y469172D01*
X402499Y469195D01*
X403000Y469095D01*
X433469D01*
X451095Y451469D01*
Y402571D01*
X450595Y402471D01*
X450501Y402699D01*
X449943Y403257D01*
X449319Y403515D01*
Y401575D01*
Y399634D01*
X449943Y399892D01*
X450501Y400451D01*
X450595Y400678D01*
X451095Y400578D01*
Y390082D01*
X450785Y389772D01*
X450648D01*
X449996Y389502D01*
X449498Y389004D01*
X449228Y388352D01*
Y387648D01*
X449498Y386996D01*
X449996Y386498D01*
X450648Y386228D01*
X451352D01*
X452004Y386498D01*
X452502Y386996D01*
X452772Y387648D01*
Y387785D01*
X453493Y388507D01*
X453699Y388527D01*
X454228Y387998D01*
Y387648D01*
X454498Y386996D01*
X454996Y386498D01*
X455648Y386228D01*
X456352D01*
X457004Y386498D01*
X457502Y386996D01*
X457772Y387648D01*
Y388352D01*
X457502Y389004D01*
X457004Y389502D01*
X456482Y389718D01*
X455873Y390326D01*
Y452866D01*
X455766Y453404D01*
X455462Y453860D01*
X415674Y493647D01*
X415376Y493847D01*
X415334Y494400D01*
X415479Y494483D01*
X416450Y495455D01*
X417137Y496644D01*
X417492Y497971D01*
Y499344D01*
X417137Y500671D01*
X416450Y501861D01*
X415527Y502783D01*
X415590Y503249D01*
X415600Y503284D01*
X423398D01*
Y513717D01*
X412965D01*
Y503876D01*
X412962Y503874D01*
X411589D01*
X410262Y503518D01*
X409073Y502832D01*
X408101Y501861D01*
X407415Y500671D01*
X407059Y499344D01*
Y497971D01*
X407415Y496644D01*
X408101Y495455D01*
X408997Y494558D01*
X408891Y494059D01*
X404251D01*
X404043Y494558D01*
X404809Y495324D01*
X405524Y496562D01*
X405894Y497943D01*
Y498158D01*
X400465D01*
X395035D01*
Y497943D01*
X395405Y496562D01*
X396120Y495324D01*
X396886Y494558D01*
X396678Y494059D01*
X394461D01*
X393923Y493952D01*
X393467Y493647D01*
X391213Y491393D01*
X390667Y491708D01*
X389340Y492063D01*
X387967D01*
X386640Y491708D01*
X385451Y491021D01*
X384479Y490050D01*
X383792Y488860D01*
X383437Y487533D01*
Y486160D01*
X383792Y484833D01*
X384479Y483643D01*
X385451Y482672D01*
X386640Y481985D01*
X387967Y481630D01*
X389340D01*
X390667Y481985D01*
X391857Y482672D01*
X392828Y483643D01*
X393515Y484833D01*
X393870Y486160D01*
Y487533D01*
X393515Y488860D01*
X393200Y489406D01*
X395043Y491249D01*
X396782D01*
X396989Y490749D01*
X396290Y490050D01*
X395603Y488860D01*
X395248Y487533D01*
Y486160D01*
X395603Y484833D01*
X396290Y483643D01*
X397262Y482672D01*
X398451Y481985D01*
X399060Y481822D01*
Y480588D01*
X398560Y480381D01*
X397762Y481178D01*
X396573Y481865D01*
X395246Y482221D01*
X393872D01*
X392546Y481865D01*
X391356Y481178D01*
X390385Y480207D01*
X389698Y479017D01*
X389342Y477691D01*
Y476317D01*
X389698Y474990D01*
X390385Y473801D01*
X391356Y472830D01*
X392546Y472143D01*
X393434Y471905D01*
X393368Y471405D01*
X383939D01*
X383874Y471905D01*
X384762Y472143D01*
X385951Y472830D01*
X386922Y473801D01*
X387609Y474990D01*
X387965Y476317D01*
Y477691D01*
X387609Y479017D01*
X386922Y480207D01*
X385951Y481178D01*
X384762Y481865D01*
X383435Y482221D01*
X382061D01*
X380734Y481865D01*
X379545Y481178D01*
X378748Y480381D01*
X378247Y480588D01*
Y481822D01*
X378856Y481985D01*
X380046Y482672D01*
X381017Y483643D01*
X381703Y484833D01*
X382059Y486160D01*
Y487533D01*
X381703Y488860D01*
X381017Y490050D01*
X380046Y491021D01*
X378856Y491708D01*
X377529Y492063D01*
X376156D01*
X374829Y491708D01*
X373639Y491021D01*
X372668Y490050D01*
X371982Y488860D01*
X371626Y487533D01*
Y486160D01*
X371982Y484833D01*
X372668Y483643D01*
X373639Y482672D01*
X374829Y481985D01*
X375438Y481822D01*
Y480588D01*
X374938Y480381D01*
X374140Y481178D01*
X372951Y481865D01*
X371624Y482221D01*
X370250D01*
X368923Y481865D01*
X367734Y481178D01*
X366936Y480381D01*
X366436Y480588D01*
Y481822D01*
X367045Y481985D01*
X368234Y482672D01*
X369206Y483643D01*
X369893Y484833D01*
X370248Y486160D01*
Y487533D01*
X369893Y488860D01*
X369206Y490050D01*
X368310Y490945D01*
X368416Y491445D01*
X371035D01*
X371573Y491552D01*
X372029Y491857D01*
X374283Y494111D01*
X374829Y493796D01*
X376156Y493441D01*
X377529D01*
X378856Y493796D01*
X380046Y494483D01*
X381017Y495455D01*
X381703Y496644D01*
X382059Y497971D01*
Y499344D01*
X381703Y500671D01*
X381017Y501861D01*
X380046Y502832D01*
X378856Y503518D01*
X377529Y503874D01*
X376156D01*
X374829Y503518D01*
X373639Y502832D01*
X372668Y501861D01*
X371982Y500671D01*
X371626Y499344D01*
Y497971D01*
X371982Y496644D01*
X372297Y496098D01*
X370454Y494255D01*
X369014D01*
X368807Y494755D01*
X369376Y495324D01*
X370091Y496562D01*
X370461Y497943D01*
Y498158D01*
X365032D01*
X359602D01*
Y497943D01*
X359972Y496562D01*
X360687Y495324D01*
X361256Y494755D01*
X361049Y494255D01*
X356903D01*
X356696Y494755D01*
X357395Y495455D01*
X358082Y496644D01*
X358437Y497971D01*
Y499344D01*
X358082Y500671D01*
X357395Y501861D01*
X356423Y502832D01*
X355234Y503518D01*
X353907Y503874D01*
X352534D01*
X351207Y503518D01*
X350017Y502832D01*
X349220Y502034D01*
X348720Y502241D01*
Y503476D01*
X349328Y503639D01*
X350518Y504326D01*
X351489Y505297D01*
X352176Y506487D01*
X352532Y507813D01*
Y509187D01*
X352176Y510513D01*
X351489Y511703D01*
X350518Y512674D01*
X349328Y513361D01*
X348002Y513717D01*
X346628D01*
X345302Y513361D01*
X344112Y512674D01*
X343141Y511703D01*
X342806Y511124D01*
X342306Y511258D01*
Y512752D01*
X345748Y516194D01*
X360689D01*
X366183Y510699D01*
X366076Y510513D01*
X365721Y509187D01*
Y507813D01*
X366076Y506487D01*
X366763Y505297D01*
X367734Y504326D01*
X368923Y503639D01*
X370250Y503284D01*
X371624D01*
X372951Y503639D01*
X374140Y504326D01*
X375111Y505297D01*
X375798Y506487D01*
X376153Y507813D01*
Y509187D01*
X375798Y510513D01*
X375111Y511703D01*
X374140Y512674D01*
X372951Y513361D01*
X371624Y513717D01*
X370250D01*
X368923Y513361D01*
X368738Y513254D01*
X362798Y519194D01*
X362875Y519519D01*
X362991Y519694D01*
X392622D01*
X401616Y510699D01*
X401509Y510513D01*
X401154Y509187D01*
Y507813D01*
X401509Y506487D01*
X402196Y505297D01*
X403167Y504326D01*
X404357Y503639D01*
X405683Y503284D01*
X407057D01*
X408384Y503639D01*
X409573Y504326D01*
X410544Y505297D01*
X411231Y506487D01*
X411587Y507813D01*
Y509187D01*
X411231Y510513D01*
X410544Y511703D01*
X409573Y512674D01*
X408384Y513361D01*
X407057Y513717D01*
X405683D01*
X404357Y513361D01*
X404171Y513254D01*
X394647Y522777D01*
X394061Y523169D01*
X393370Y523306D01*
D02*
G37*
G36*
X383435Y513717D02*
X382061D01*
X380734Y513361D01*
X379545Y512674D01*
X378574Y511703D01*
X377887Y510513D01*
X377532Y509187D01*
Y507813D01*
X377887Y506487D01*
X378574Y505297D01*
X379545Y504326D01*
X380734Y503639D01*
X382061Y503284D01*
X383435D01*
X384762Y503639D01*
X385951Y504326D01*
X386922Y505297D01*
X387609Y506487D01*
X387965Y507813D01*
Y509187D01*
X387609Y510513D01*
X386922Y511703D01*
X385951Y512674D01*
X384762Y513361D01*
X383435Y513717D01*
D02*
G37*
G36*
X399988Y508000D02*
X395059D01*
Y503071D01*
X395274D01*
X396655Y503441D01*
X397893Y504156D01*
X398903Y505166D01*
X399618Y506404D01*
X399988Y507785D01*
Y508000D01*
D02*
G37*
G36*
X394059D02*
X389130D01*
Y507785D01*
X389500Y506404D01*
X390215Y505166D01*
X391226Y504156D01*
X392463Y503441D01*
X393844Y503071D01*
X394059D01*
Y508000D01*
D02*
G37*
G36*
X364555D02*
X359626D01*
Y503071D01*
X359841D01*
X361222Y503441D01*
X362459Y504156D01*
X363470Y505166D01*
X364185Y506404D01*
X364555Y507785D01*
Y508000D01*
D02*
G37*
G36*
X358626D02*
X353697D01*
Y507785D01*
X354067Y506404D01*
X354782Y505166D01*
X355792Y504156D01*
X357030Y503441D01*
X358411Y503071D01*
X358626D01*
Y508000D01*
D02*
G37*
G36*
X401179Y504087D02*
X400965D01*
Y499157D01*
X405894D01*
Y499372D01*
X405524Y500753D01*
X404809Y501991D01*
X403798Y503002D01*
X402560Y503717D01*
X401179Y504087D01*
D02*
G37*
G36*
X365746D02*
X365531D01*
Y499157D01*
X370461D01*
Y499372D01*
X370091Y500753D01*
X369376Y501991D01*
X368365Y503002D01*
X367127Y503717D01*
X365746Y504087D01*
D02*
G37*
G36*
X364531D02*
X364317D01*
X362936Y503717D01*
X361698Y503002D01*
X360687Y501991D01*
X359972Y500753D01*
X359602Y499372D01*
Y499157D01*
X364531D01*
Y504087D01*
D02*
G37*
G36*
X399965D02*
X399750D01*
X398369Y503717D01*
X397131Y503002D01*
X396120Y501991D01*
X395405Y500753D01*
X395035Y499372D01*
Y499157D01*
X399965D01*
Y504087D01*
D02*
G37*
G36*
X461130Y498003D02*
Y496563D01*
X462570D01*
X462312Y497187D01*
X461754Y497745D01*
X461130Y498003D01*
D02*
G37*
G36*
X460130D02*
X459506Y497745D01*
X458948Y497187D01*
X458689Y496563D01*
X460130D01*
Y498003D01*
D02*
G37*
G36*
X449319D02*
Y496563D01*
X450759D01*
X450501Y497187D01*
X449943Y497745D01*
X449319Y498003D01*
D02*
G37*
G36*
X436000Y516306D02*
X435825Y516272D01*
X435648D01*
X435483Y516204D01*
X435309Y516169D01*
X435161Y516070D01*
X434996Y516002D01*
X434871Y515876D01*
X434723Y515777D01*
X434624Y515629D01*
X434498Y515504D01*
X434430Y515339D01*
X434331Y515191D01*
X434296Y515017D01*
X434228Y514852D01*
Y514675D01*
X434194Y514500D01*
X434228Y514326D01*
Y514148D01*
X434296Y513983D01*
X434331Y513809D01*
X434430Y513661D01*
X434498Y513496D01*
X434624Y513371D01*
X434723Y513223D01*
X441194Y506752D01*
Y504947D01*
X439053D01*
Y497053D01*
X446540D01*
X446868Y496563D01*
X448319D01*
Y498003D01*
X447695Y497745D01*
X447447Y497497D01*
X446947Y497704D01*
Y504947D01*
X444806D01*
Y507500D01*
X444669Y508191D01*
X444277Y508777D01*
X437277Y515777D01*
X437129Y515876D01*
X437004Y516002D01*
X436839Y516070D01*
X436691Y516169D01*
X436517Y516204D01*
X436352Y516272D01*
X436174D01*
X436000Y516306D01*
D02*
G37*
G36*
X425697Y498003D02*
Y496563D01*
X427137D01*
X426879Y497187D01*
X426321Y497745D01*
X425697Y498003D01*
D02*
G37*
G36*
X424697D02*
X424073Y497745D01*
X423515Y497187D01*
X423256Y496563D01*
X424697D01*
Y498003D01*
D02*
G37*
G36*
X331209D02*
Y496563D01*
X332649D01*
X332391Y497187D01*
X331833Y497745D01*
X331209Y498003D01*
D02*
G37*
G36*
X330209D02*
X329585Y497745D01*
X329026Y497187D01*
X328768Y496563D01*
X330209D01*
Y498003D01*
D02*
G37*
G36*
X319397D02*
Y496563D01*
X320838D01*
X320580Y497187D01*
X320022Y497745D01*
X319397Y498003D01*
D02*
G37*
G36*
X318397D02*
X317774Y497745D01*
X317215Y497187D01*
X316957Y496563D01*
X318397D01*
Y498003D01*
D02*
G37*
G36*
X307587D02*
Y496563D01*
X309027D01*
X308769Y497187D01*
X308210Y497745D01*
X307587Y498003D01*
D02*
G37*
G36*
X306587D02*
X305962Y497745D01*
X305404Y497187D01*
X305146Y496563D01*
X306587D01*
Y498003D01*
D02*
G37*
G36*
X462570Y495563D02*
X461130D01*
Y494122D01*
X461754Y494381D01*
X462312Y494939D01*
X462570Y495563D01*
D02*
G37*
G36*
X460130D02*
X458689D01*
X458948Y494939D01*
X459506Y494381D01*
X460130Y494122D01*
Y495563D01*
D02*
G37*
G36*
X450759D02*
X449319D01*
Y494122D01*
X449943Y494381D01*
X450501Y494939D01*
X450759Y495563D01*
D02*
G37*
G36*
X448319D02*
X446878D01*
X447137Y494939D01*
X447695Y494381D01*
X448319Y494122D01*
Y495563D01*
D02*
G37*
G36*
X427137D02*
X425697D01*
Y494122D01*
X426321Y494381D01*
X426879Y494939D01*
X427137Y495563D01*
D02*
G37*
G36*
X424697D02*
X423256D01*
X423515Y494939D01*
X424073Y494381D01*
X424697Y494122D01*
Y495563D01*
D02*
G37*
G36*
X332649D02*
X331209D01*
Y494122D01*
X331833Y494381D01*
X332391Y494939D01*
X332649Y495563D01*
D02*
G37*
G36*
X330209D02*
X328768D01*
X329026Y494939D01*
X329585Y494381D01*
X330209Y494122D01*
Y495563D01*
D02*
G37*
G36*
X320838D02*
X319397D01*
Y494122D01*
X320022Y494381D01*
X320580Y494939D01*
X320838Y495563D01*
D02*
G37*
G36*
X318397D02*
X316957D01*
X317215Y494939D01*
X317774Y494381D01*
X318397Y494122D01*
Y495563D01*
D02*
G37*
G36*
X309027D02*
X307587D01*
Y494122D01*
X308210Y494381D01*
X308769Y494939D01*
X309027Y495563D01*
D02*
G37*
G36*
X306587D02*
X305146D01*
X305404Y494939D01*
X305962Y494381D01*
X306587Y494122D01*
Y495563D01*
D02*
G37*
G36*
X389340Y503874D02*
X387967D01*
X386640Y503518D01*
X385451Y502832D01*
X384479Y501861D01*
X383792Y500671D01*
X383437Y499344D01*
Y497971D01*
X383792Y496644D01*
X384479Y495455D01*
X385451Y494483D01*
X386640Y493796D01*
X387967Y493441D01*
X389340D01*
X390667Y493796D01*
X391857Y494483D01*
X392828Y495455D01*
X393515Y496644D01*
X393870Y497971D01*
Y499344D01*
X393515Y500671D01*
X392828Y501861D01*
X391857Y502832D01*
X390667Y503518D01*
X389340Y503874D01*
D02*
G37*
G36*
X443548Y495159D02*
X443500D01*
Y491500D01*
X447159D01*
Y491548D01*
X446876Y492605D01*
X446328Y493554D01*
X445554Y494328D01*
X444605Y494876D01*
X443548Y495159D01*
D02*
G37*
G36*
X442500D02*
X442452D01*
X441395Y494876D01*
X440446Y494328D01*
X439672Y493554D01*
X439124Y492605D01*
X438840Y491548D01*
Y491500D01*
X442500D01*
Y495159D01*
D02*
G37*
G36*
X447159Y490500D02*
X443500D01*
Y486840D01*
X443548D01*
X444605Y487124D01*
X445554Y487672D01*
X446328Y488446D01*
X446876Y489395D01*
X447159Y490452D01*
Y490500D01*
D02*
G37*
G36*
X442500D02*
X438840D01*
Y490452D01*
X439124Y489395D01*
X439672Y488446D01*
X440446Y487672D01*
X441395Y487124D01*
X442452Y486840D01*
X442500D01*
Y490500D01*
D02*
G37*
G36*
X467035Y486193D02*
Y484752D01*
X468476D01*
X468218Y485376D01*
X467659Y485934D01*
X467035Y486193D01*
D02*
G37*
G36*
X466035D02*
X465411Y485934D01*
X464853Y485376D01*
X464595Y484752D01*
X466035D01*
Y486193D01*
D02*
G37*
G36*
X431602D02*
Y484752D01*
X433043D01*
X432784Y485376D01*
X432226Y485934D01*
X431602Y486193D01*
D02*
G37*
G36*
X430602D02*
X429978Y485934D01*
X429420Y485376D01*
X429162Y484752D01*
X430602D01*
Y486193D01*
D02*
G37*
G36*
X325303D02*
Y484752D01*
X326744D01*
X326485Y485376D01*
X325927Y485934D01*
X325303Y486193D01*
D02*
G37*
G36*
X324303D02*
X323679Y485934D01*
X323121Y485376D01*
X322862Y484752D01*
X324303D01*
Y486193D01*
D02*
G37*
G36*
X313492D02*
Y484752D01*
X314933D01*
X314674Y485376D01*
X314116Y485934D01*
X313492Y486193D01*
D02*
G37*
G36*
X312492D02*
X311868Y485934D01*
X311310Y485376D01*
X311051Y484752D01*
X312492D01*
Y486193D01*
D02*
G37*
G36*
X326744Y483752D02*
X325303D01*
Y482311D01*
X325927Y482570D01*
X326485Y483128D01*
X326744Y483752D01*
D02*
G37*
G36*
X324303D02*
X322862D01*
X323121Y483128D01*
X323679Y482570D01*
X324303Y482311D01*
Y483752D01*
D02*
G37*
G36*
X314933D02*
X313492D01*
Y482311D01*
X314116Y482570D01*
X314674Y483128D01*
X314933Y483752D01*
D02*
G37*
G36*
X312492D02*
X311051D01*
X311310Y483128D01*
X311868Y482570D01*
X312492Y482311D01*
Y483752D01*
D02*
G37*
G36*
X468476D02*
X467035D01*
Y482311D01*
X467659Y482570D01*
X468218Y483128D01*
X468476Y483752D01*
D02*
G37*
G36*
X466035D02*
X464595D01*
X464853Y483128D01*
X465411Y482570D01*
X466035Y482311D01*
Y483752D01*
D02*
G37*
G36*
X433043D02*
X431602D01*
Y482311D01*
X432226Y482570D01*
X432784Y483128D01*
X433043Y483752D01*
D02*
G37*
G36*
X430602D02*
X429162D01*
X429420Y483128D01*
X429978Y482570D01*
X430602Y482311D01*
Y483752D01*
D02*
G37*
G36*
X443520Y484947D02*
X442480D01*
X441477Y484678D01*
X440577Y484158D01*
X439842Y483423D01*
X439322Y482523D01*
X439053Y481520D01*
Y480480D01*
X439322Y479477D01*
X439842Y478577D01*
X440577Y477842D01*
X441477Y477322D01*
X442480Y477053D01*
X443520D01*
X444523Y477322D01*
X445423Y477842D01*
X446158Y478577D01*
X446678Y479477D01*
X446947Y480480D01*
Y481520D01*
X446678Y482523D01*
X446158Y483423D01*
X445423Y484158D01*
X444523Y484678D01*
X443520Y484947D01*
D02*
G37*
G36*
X461130Y474381D02*
Y472941D01*
X462570D01*
X462312Y473565D01*
X461754Y474123D01*
X461130Y474381D01*
D02*
G37*
G36*
X460130D02*
X459506Y474123D01*
X458948Y473565D01*
X458689Y472941D01*
X460130D01*
Y474381D01*
D02*
G37*
G36*
X449319D02*
Y472941D01*
X450759D01*
X450501Y473565D01*
X449943Y474123D01*
X449319Y474381D01*
D02*
G37*
G36*
X448319D02*
X447695Y474123D01*
X447137Y473565D01*
X446878Y472941D01*
X448319D01*
Y474381D01*
D02*
G37*
G36*
X331209D02*
Y472941D01*
X332649D01*
X332391Y473565D01*
X331833Y474123D01*
X331209Y474381D01*
D02*
G37*
G36*
X330209D02*
X329585Y474123D01*
X329026Y473565D01*
X328768Y472941D01*
X330209D01*
Y474381D01*
D02*
G37*
G36*
X319397D02*
Y472941D01*
X320838D01*
X320580Y473565D01*
X320022Y474123D01*
X319397Y474381D01*
D02*
G37*
G36*
X318397D02*
X317774Y474123D01*
X317215Y473565D01*
X316957Y472941D01*
X318397D01*
Y474381D01*
D02*
G37*
G36*
X307587D02*
Y472941D01*
X309027D01*
X308769Y473565D01*
X308210Y474123D01*
X307587Y474381D01*
D02*
G37*
G36*
X306587D02*
X305962Y474123D01*
X305404Y473565D01*
X305146Y472941D01*
X306587D01*
Y474381D01*
D02*
G37*
G36*
X462570Y471941D02*
X461130D01*
Y470500D01*
X461754Y470759D01*
X462312Y471317D01*
X462570Y471941D01*
D02*
G37*
G36*
X460130D02*
X458689D01*
X458948Y471317D01*
X459506Y470759D01*
X460130Y470500D01*
Y471941D01*
D02*
G37*
G36*
X450759D02*
X449319D01*
Y470500D01*
X449943Y470759D01*
X450501Y471317D01*
X450759Y471941D01*
D02*
G37*
G36*
X448319D02*
X446878D01*
X447137Y471317D01*
X447695Y470759D01*
X448319Y470500D01*
Y471941D01*
D02*
G37*
G36*
X332649D02*
X331209D01*
Y470500D01*
X331833Y470759D01*
X332391Y471317D01*
X332649Y471941D01*
D02*
G37*
G36*
X330209D02*
X328768D01*
X329026Y471317D01*
X329585Y470759D01*
X330209Y470500D01*
Y471941D01*
D02*
G37*
G36*
X320838D02*
X319397D01*
Y470500D01*
X320022Y470759D01*
X320580Y471317D01*
X320838Y471941D01*
D02*
G37*
G36*
X318397D02*
X316957D01*
X317215Y471317D01*
X317774Y470759D01*
X318397Y470500D01*
Y471941D01*
D02*
G37*
G36*
X309027D02*
X307587D01*
Y470500D01*
X308210Y470759D01*
X308769Y471317D01*
X309027Y471941D01*
D02*
G37*
G36*
X306587D02*
X305146D01*
X305404Y471317D01*
X305962Y470759D01*
X306587Y470500D01*
Y471941D01*
D02*
G37*
G36*
X467035Y462570D02*
Y461130D01*
X468476D01*
X468218Y461754D01*
X467659Y462312D01*
X467035Y462570D01*
D02*
G37*
G36*
X466035D02*
X465411Y462312D01*
X464853Y461754D01*
X464595Y461130D01*
X466035D01*
Y462570D01*
D02*
G37*
G36*
X431602D02*
Y461130D01*
X433043D01*
X432784Y461754D01*
X432226Y462312D01*
X431602Y462570D01*
D02*
G37*
G36*
X430602D02*
X429978Y462312D01*
X429420Y461754D01*
X429162Y461130D01*
X430602D01*
Y462570D01*
D02*
G37*
G36*
X372547D02*
Y461130D01*
X373988D01*
X373729Y461754D01*
X373171Y462312D01*
X372547Y462570D01*
D02*
G37*
G36*
X371547D02*
X370923Y462312D01*
X370365Y461754D01*
X370107Y461130D01*
X371547D01*
Y462570D01*
D02*
G37*
G36*
X360736D02*
Y461130D01*
X362177D01*
X361918Y461754D01*
X361360Y462312D01*
X360736Y462570D01*
D02*
G37*
G36*
X359736D02*
X359112Y462312D01*
X358554Y461754D01*
X358295Y461130D01*
X359736D01*
Y462570D01*
D02*
G37*
G36*
X325303D02*
Y461130D01*
X326744D01*
X326485Y461754D01*
X325927Y462312D01*
X325303Y462570D01*
D02*
G37*
G36*
X324303D02*
X323679Y462312D01*
X323121Y461754D01*
X322862Y461130D01*
X324303D01*
Y462570D01*
D02*
G37*
G36*
X313492D02*
Y461130D01*
X314933D01*
X314674Y461754D01*
X314116Y462312D01*
X313492Y462570D01*
D02*
G37*
G36*
X312492D02*
X311868Y462312D01*
X311310Y461754D01*
X311051Y461130D01*
X312492D01*
Y462570D01*
D02*
G37*
G36*
X326744Y460130D02*
X325303D01*
Y458689D01*
X325927Y458948D01*
X326485Y459506D01*
X326744Y460130D01*
D02*
G37*
G36*
X324303D02*
X322862D01*
X323121Y459506D01*
X323679Y458948D01*
X324303Y458689D01*
Y460130D01*
D02*
G37*
G36*
X314933D02*
X313492D01*
Y458689D01*
X314116Y458948D01*
X314674Y459506D01*
X314933Y460130D01*
D02*
G37*
G36*
X312492D02*
X311051D01*
X311310Y459506D01*
X311868Y458948D01*
X312492Y458689D01*
Y460130D01*
D02*
G37*
G36*
X468476D02*
X467035D01*
Y458689D01*
X467659Y458948D01*
X468218Y459506D01*
X468476Y460130D01*
D02*
G37*
G36*
X466035D02*
X464595D01*
X464853Y459506D01*
X465411Y458948D01*
X466035Y458689D01*
Y460130D01*
D02*
G37*
G36*
X433043D02*
X431602D01*
Y458689D01*
X432226Y458948D01*
X432784Y459506D01*
X433043Y460130D01*
D02*
G37*
G36*
X430602D02*
X429162D01*
X429420Y459506D01*
X429978Y458948D01*
X430602Y458689D01*
Y460130D01*
D02*
G37*
G36*
X373988D02*
X372547D01*
Y458689D01*
X373171Y458948D01*
X373729Y459506D01*
X373988Y460130D01*
D02*
G37*
G36*
X371547D02*
X370107D01*
X370365Y459506D01*
X370923Y458948D01*
X371547Y458689D01*
Y460130D01*
D02*
G37*
G36*
X362177D02*
X360736D01*
Y458689D01*
X361360Y458948D01*
X361918Y459506D01*
X362177Y460130D01*
D02*
G37*
G36*
X359736D02*
X358295D01*
X358554Y459506D01*
X359112Y458948D01*
X359736Y458689D01*
Y460130D01*
D02*
G37*
G36*
X461130Y450759D02*
Y449319D01*
X462570D01*
X462312Y449943D01*
X461754Y450501D01*
X461130Y450759D01*
D02*
G37*
G36*
X460130D02*
X459506Y450501D01*
X458948Y449943D01*
X458689Y449319D01*
X460130D01*
Y450759D01*
D02*
G37*
G36*
X319397D02*
Y449319D01*
X320838D01*
X320580Y449943D01*
X320022Y450501D01*
X319397Y450759D01*
D02*
G37*
G36*
X318397D02*
X317774Y450501D01*
X317215Y449943D01*
X316957Y449319D01*
X318397D01*
Y450759D01*
D02*
G37*
G36*
X462570Y448319D02*
X461130D01*
Y446878D01*
X461754Y447137D01*
X462312Y447695D01*
X462570Y448319D01*
D02*
G37*
G36*
X460130D02*
X458689D01*
X458948Y447695D01*
X459506Y447137D01*
X460130Y446878D01*
Y448319D01*
D02*
G37*
G36*
X320838D02*
X319397D01*
Y446878D01*
X320022Y447137D01*
X320580Y447695D01*
X320838Y448319D01*
D02*
G37*
G36*
X318397D02*
X316957D01*
X317215Y447695D01*
X317774Y447137D01*
X318397Y446878D01*
Y448319D01*
D02*
G37*
G36*
X382446Y462146D02*
X380546D01*
X378682Y461775D01*
X376927Y461048D01*
X375347Y459992D01*
X374004Y458649D01*
X372948Y457069D01*
X372221Y455313D01*
X371850Y453450D01*
Y451550D01*
X372221Y449686D01*
X372948Y447931D01*
X374004Y446351D01*
X375347Y445008D01*
X376927Y443952D01*
X378682Y443225D01*
X380546Y442854D01*
X382446D01*
X384310Y443225D01*
X386065Y443952D01*
X387645Y445008D01*
X388988Y446351D01*
X390044Y447931D01*
X390771Y449686D01*
X391142Y451550D01*
Y453450D01*
X390771Y455313D01*
X390044Y457069D01*
X388988Y458649D01*
X387645Y459992D01*
X386065Y461048D01*
X384310Y461775D01*
X382446Y462146D01*
D02*
G37*
G36*
X467035Y438948D02*
Y437508D01*
X468476D01*
X468218Y438132D01*
X467659Y438690D01*
X467035Y438948D01*
D02*
G37*
G36*
X466035D02*
X465411Y438690D01*
X464853Y438132D01*
X464595Y437508D01*
X466035D01*
Y438948D01*
D02*
G37*
G36*
X431602D02*
Y437508D01*
X433043D01*
X432784Y438132D01*
X432226Y438690D01*
X431602Y438948D01*
D02*
G37*
G36*
X430602D02*
X429978Y438690D01*
X429420Y438132D01*
X429162Y437508D01*
X430602D01*
Y438948D01*
D02*
G37*
G36*
X313492D02*
Y437508D01*
X314933D01*
X314674Y438132D01*
X314116Y438690D01*
X313492Y438948D01*
D02*
G37*
G36*
X312492D02*
X311868Y438690D01*
X311310Y438132D01*
X311051Y437508D01*
X312492D01*
Y438948D01*
D02*
G37*
G36*
X468476Y436508D02*
X467035D01*
Y435067D01*
X467659Y435326D01*
X468218Y435884D01*
X468476Y436508D01*
D02*
G37*
G36*
X466035D02*
X464595D01*
X464853Y435884D01*
X465411Y435326D01*
X466035Y435067D01*
Y436508D01*
D02*
G37*
G36*
X433043D02*
X431602D01*
Y435067D01*
X432226Y435326D01*
X432784Y435884D01*
X433043Y436508D01*
D02*
G37*
G36*
X430602D02*
X429162D01*
X429420Y435884D01*
X429978Y435326D01*
X430602Y435067D01*
Y436508D01*
D02*
G37*
G36*
X314933D02*
X313492D01*
Y435067D01*
X314116Y435326D01*
X314674Y435884D01*
X314933Y436508D01*
D02*
G37*
G36*
X312492D02*
X311051D01*
X311310Y435884D01*
X311868Y435326D01*
X312492Y435067D01*
Y436508D01*
D02*
G37*
G36*
X384358Y415326D02*
Y413886D01*
X385799D01*
X385540Y414510D01*
X384982Y415068D01*
X384358Y415326D01*
D02*
G37*
G36*
X383358D02*
X382734Y415068D01*
X382176Y414510D01*
X381918Y413886D01*
X383358D01*
Y415326D01*
D02*
G37*
G36*
X372547D02*
Y413886D01*
X373988D01*
X373729Y414510D01*
X373171Y415068D01*
X372547Y415326D01*
D02*
G37*
G36*
X371547D02*
X370923Y415068D01*
X370365Y414510D01*
X370107Y413886D01*
X371547D01*
Y415326D01*
D02*
G37*
G36*
X385799Y412886D02*
X384358D01*
Y411445D01*
X384982Y411703D01*
X385540Y412262D01*
X385799Y412886D01*
D02*
G37*
G36*
X383358D02*
X381918D01*
X382176Y412262D01*
X382734Y411703D01*
X383358Y411445D01*
Y412886D01*
D02*
G37*
G36*
X373988D02*
X372547D01*
Y411445D01*
X373171Y411703D01*
X373729Y412262D01*
X373988Y412886D01*
D02*
G37*
G36*
X371547D02*
X370107D01*
X370365Y412262D01*
X370923Y411703D01*
X371547Y411445D01*
Y412886D01*
D02*
G37*
G36*
X406500Y415306D02*
X392000D01*
X391309Y415169D01*
X390723Y414777D01*
X384723Y408777D01*
X384624Y408629D01*
X384498Y408504D01*
X384430Y408339D01*
X384331Y408191D01*
X384296Y408017D01*
X384228Y407852D01*
Y407675D01*
X384194Y407500D01*
X384228Y407326D01*
Y407148D01*
X384296Y406983D01*
X384331Y406809D01*
X384430Y406661D01*
X384498Y406496D01*
X384624Y406371D01*
X384723Y406223D01*
X384871Y406124D01*
X384996Y405998D01*
X385161Y405930D01*
X385309Y405831D01*
X385483Y405796D01*
X385648Y405728D01*
X385825D01*
X386000Y405694D01*
X386175Y405728D01*
X386352D01*
X386517Y405796D01*
X386691Y405831D01*
X386839Y405930D01*
X387004Y405998D01*
X387129Y406124D01*
X387277Y406223D01*
X392748Y411694D01*
X406500D01*
X406674Y411728D01*
X406852D01*
X407017Y411796D01*
X407191Y411831D01*
X407339Y411930D01*
X407504Y411998D01*
X407629Y412124D01*
X407777Y412223D01*
X407876Y412371D01*
X408002Y412496D01*
X408070Y412661D01*
X408169Y412809D01*
X408204Y412983D01*
X408272Y413148D01*
Y413326D01*
X408306Y413500D01*
X408272Y413674D01*
Y413852D01*
X408204Y414017D01*
X408169Y414191D01*
X408070Y414339D01*
X408002Y414504D01*
X407876Y414629D01*
X407777Y414777D01*
X407629Y414876D01*
X407504Y415002D01*
X407339Y415070D01*
X407191Y415169D01*
X407017Y415204D01*
X406852Y415272D01*
X406674D01*
X406500Y415306D01*
D02*
G37*
G36*
X298500Y446306D02*
X298325Y446272D01*
X298148D01*
X297983Y446204D01*
X297809Y446169D01*
X297661Y446070D01*
X297496Y446002D01*
X297371Y445876D01*
X297223Y445777D01*
X297124Y445629D01*
X296998Y445504D01*
X296930Y445339D01*
X296831Y445191D01*
X296796Y445017D01*
X296728Y444852D01*
Y444674D01*
X296694Y444500D01*
Y415500D01*
X296831Y414809D01*
X297223Y414223D01*
X307386Y404059D01*
X307179Y403559D01*
X306692D01*
X305962Y403257D01*
X305404Y402699D01*
X305146Y402075D01*
X309027D01*
X308946Y402271D01*
X309008Y402411D01*
X309298Y402728D01*
X309326D01*
X309500Y402694D01*
X309675Y402728D01*
X309852D01*
X310017Y402796D01*
X310191Y402831D01*
X310339Y402930D01*
X310504Y402998D01*
X310629Y403124D01*
X310777Y403223D01*
X310876Y403371D01*
X311002Y403496D01*
X311070Y403661D01*
X311169Y403809D01*
X311204Y403983D01*
X311272Y404148D01*
Y404325D01*
X311306Y404500D01*
X311272Y404674D01*
Y404852D01*
X311204Y405017D01*
X311169Y405191D01*
X311070Y405339D01*
X311002Y405504D01*
X310876Y405629D01*
X310777Y405777D01*
X300306Y416248D01*
Y444500D01*
X300272Y444674D01*
Y444852D01*
X300204Y445017D01*
X300169Y445191D01*
X300070Y445339D01*
X300002Y445504D01*
X299876Y445629D01*
X299777Y445777D01*
X299629Y445876D01*
X299504Y446002D01*
X299339Y446070D01*
X299191Y446169D01*
X299017Y446204D01*
X298852Y446272D01*
X298675D01*
X298500Y446306D01*
D02*
G37*
G36*
X461130Y403515D02*
Y402075D01*
X462570D01*
X462312Y402699D01*
X461754Y403257D01*
X461130Y403515D01*
D02*
G37*
G36*
X460130D02*
X459506Y403257D01*
X458948Y402699D01*
X458689Y402075D01*
X460130D01*
Y403515D01*
D02*
G37*
G36*
X448319D02*
X447695Y403257D01*
X447137Y402699D01*
X446878Y402075D01*
X448319D01*
Y403515D01*
D02*
G37*
G36*
X437508D02*
Y402075D01*
X438948D01*
X438690Y402699D01*
X438132Y403257D01*
X437508Y403515D01*
D02*
G37*
G36*
X436508D02*
X435884Y403257D01*
X435326Y402699D01*
X435067Y402075D01*
X436508D01*
Y403515D01*
D02*
G37*
G36*
X309027Y401075D02*
X307587D01*
Y399634D01*
X308210Y399892D01*
X308769Y400451D01*
X309027Y401075D01*
D02*
G37*
G36*
X306587D02*
X305146D01*
X305404Y400451D01*
X305962Y399892D01*
X306587Y399634D01*
Y401075D01*
D02*
G37*
G36*
X462570D02*
X461130D01*
Y399634D01*
X461754Y399892D01*
X462312Y400451D01*
X462570Y401075D01*
D02*
G37*
G36*
X460130D02*
X458689D01*
X458948Y400451D01*
X459506Y399892D01*
X460130Y399634D01*
Y401075D01*
D02*
G37*
G36*
X448319D02*
X446878D01*
X447137Y400451D01*
X447695Y399892D01*
X448319Y399634D01*
Y401075D01*
D02*
G37*
G36*
X438948D02*
X437508D01*
Y399634D01*
X438132Y399892D01*
X438690Y400451D01*
X438948Y401075D01*
D02*
G37*
G36*
X436508D02*
X435067D01*
X435326Y400451D01*
X435884Y399892D01*
X436508Y399634D01*
Y401075D01*
D02*
G37*
G36*
X467035Y391704D02*
Y390264D01*
X468476D01*
X468218Y390888D01*
X467659Y391446D01*
X467035Y391704D01*
D02*
G37*
G36*
X466035D02*
X465411Y391446D01*
X464853Y390888D01*
X464595Y390264D01*
X466035D01*
Y391704D01*
D02*
G37*
G36*
X443413D02*
Y390264D01*
X444854D01*
X444595Y390888D01*
X444037Y391446D01*
X443413Y391704D01*
D02*
G37*
G36*
X442413D02*
X441789Y391446D01*
X441231Y390888D01*
X440973Y390264D01*
X442413D01*
Y391704D01*
D02*
G37*
G36*
X468476Y389264D02*
X467035D01*
Y387823D01*
X467659Y388082D01*
X468218Y388640D01*
X468476Y389264D01*
D02*
G37*
G36*
X466035D02*
X464595D01*
X464853Y388640D01*
X465411Y388082D01*
X466035Y387823D01*
Y389264D01*
D02*
G37*
G36*
X444854D02*
X443413D01*
Y387823D01*
X444037Y388082D01*
X444595Y388640D01*
X444854Y389264D01*
D02*
G37*
G36*
X442413D02*
X440973D01*
X441231Y388640D01*
X441789Y388082D01*
X442413Y387823D01*
Y389264D01*
D02*
G37*
G36*
X437508Y379893D02*
Y378453D01*
X438948D01*
X438690Y379077D01*
X438132Y379635D01*
X437508Y379893D01*
D02*
G37*
G36*
X436508D02*
X435884Y379635D01*
X435326Y379077D01*
X435067Y378453D01*
X436508D01*
Y379893D01*
D02*
G37*
G36*
X343020D02*
Y378453D01*
X344460D01*
X344202Y379077D01*
X343644Y379635D01*
X343020Y379893D01*
D02*
G37*
G36*
X342020D02*
X341396Y379635D01*
X340837Y379077D01*
X340579Y378453D01*
X342020D01*
Y379893D01*
D02*
G37*
G36*
X331209D02*
Y378453D01*
X332649D01*
X332391Y379077D01*
X331833Y379635D01*
X331209Y379893D01*
D02*
G37*
G36*
X330209D02*
X329585Y379635D01*
X329026Y379077D01*
X328768Y378453D01*
X330209D01*
Y379893D01*
D02*
G37*
G36*
X319397D02*
Y378453D01*
X320838D01*
X320580Y379077D01*
X320022Y379635D01*
X319397Y379893D01*
D02*
G37*
G36*
X318397D02*
X317774Y379635D01*
X317215Y379077D01*
X316957Y378453D01*
X318397D01*
Y379893D01*
D02*
G37*
G36*
X307587D02*
Y378453D01*
X309027D01*
X308769Y379077D01*
X308210Y379635D01*
X307587Y379893D01*
D02*
G37*
G36*
X306587D02*
X305962Y379635D01*
X305404Y379077D01*
X305146Y378453D01*
X306587D01*
Y379893D01*
D02*
G37*
G36*
X438948Y377453D02*
X437508D01*
Y376012D01*
X438132Y376271D01*
X438690Y376829D01*
X438948Y377453D01*
D02*
G37*
G36*
X436508D02*
X435067D01*
X435326Y376829D01*
X435884Y376271D01*
X436508Y376012D01*
Y377453D01*
D02*
G37*
G36*
X344460D02*
X343020D01*
Y376012D01*
X343644Y376271D01*
X344202Y376829D01*
X344460Y377453D01*
D02*
G37*
G36*
X342020D02*
X340579D01*
X340837Y376829D01*
X341396Y376271D01*
X342020Y376012D01*
Y377453D01*
D02*
G37*
G36*
X332649D02*
X331209D01*
Y376012D01*
X331833Y376271D01*
X332391Y376829D01*
X332649Y377453D01*
D02*
G37*
G36*
X330209D02*
X328768D01*
X329026Y376829D01*
X329585Y376271D01*
X330209Y376012D01*
Y377453D01*
D02*
G37*
G36*
X320838D02*
X319397D01*
Y376012D01*
X320022Y376271D01*
X320580Y376829D01*
X320838Y377453D01*
D02*
G37*
G36*
X318397D02*
X316957D01*
X317215Y376829D01*
X317774Y376271D01*
X318397Y376012D01*
Y377453D01*
D02*
G37*
G36*
X309027D02*
X307587D01*
Y376012D01*
X308210Y376271D01*
X308769Y376829D01*
X309027Y377453D01*
D02*
G37*
G36*
X306587D02*
X305146D01*
X305404Y376829D01*
X305962Y376271D01*
X306587Y376012D01*
Y377453D01*
D02*
G37*
G36*
X394000Y393306D02*
X393826Y393272D01*
X393648D01*
X393483Y393204D01*
X393309Y393169D01*
X393161Y393070D01*
X392996Y393002D01*
X392871Y392876D01*
X392723Y392777D01*
X392624Y392629D01*
X392498Y392504D01*
X392430Y392339D01*
X392331Y392191D01*
X392296Y392017D01*
X392228Y391852D01*
Y391674D01*
X392194Y391500D01*
Y391248D01*
X375223Y374277D01*
X375124Y374129D01*
X374998Y374004D01*
X374930Y373839D01*
X374831Y373691D01*
X374796Y373517D01*
X374728Y373352D01*
Y373175D01*
X374694Y373000D01*
X374728Y372826D01*
Y372648D01*
X374796Y372483D01*
X374831Y372309D01*
X374930Y372161D01*
X374998Y371996D01*
X375124Y371871D01*
X375223Y371723D01*
X375371Y371624D01*
X375496Y371498D01*
X375661Y371430D01*
X375809Y371331D01*
X375983Y371296D01*
X376148Y371228D01*
X376325D01*
X376500Y371194D01*
X376675Y371228D01*
X376852D01*
X377017Y371296D01*
X377191Y371331D01*
X377339Y371430D01*
X377504Y371498D01*
X377629Y371624D01*
X377777Y371723D01*
X395277Y389223D01*
X395669Y389809D01*
X395806Y390500D01*
Y391500D01*
X395772Y391674D01*
Y391852D01*
X395704Y392017D01*
X395669Y392191D01*
X395570Y392339D01*
X395502Y392504D01*
X395376Y392629D01*
X395277Y392777D01*
X395129Y392876D01*
X395004Y393002D01*
X394839Y393070D01*
X394691Y393169D01*
X394517Y393204D01*
X394352Y393272D01*
X394175D01*
X394000Y393306D01*
D02*
G37*
G36*
X384358Y368082D02*
Y366642D01*
X385799D01*
X385540Y367266D01*
X384982Y367824D01*
X384358Y368082D01*
D02*
G37*
G36*
X383358D02*
X382734Y367824D01*
X382176Y367266D01*
X381918Y366642D01*
X383358D01*
Y368082D01*
D02*
G37*
G36*
X313492D02*
Y366642D01*
X314933D01*
X314674Y367266D01*
X314116Y367824D01*
X313492Y368082D01*
D02*
G37*
G36*
X312492D02*
X311868Y367824D01*
X311310Y367266D01*
X311051Y366642D01*
X312492D01*
Y368082D01*
D02*
G37*
G36*
X385799Y365642D02*
X384358D01*
Y364201D01*
X384982Y364459D01*
X385540Y365018D01*
X385799Y365642D01*
D02*
G37*
G36*
X383358D02*
X381918D01*
X382176Y365018D01*
X382734Y364459D01*
X383358Y364201D01*
Y365642D01*
D02*
G37*
G36*
X314933D02*
X313492D01*
Y364201D01*
X314116Y364459D01*
X314674Y365018D01*
X314933Y365642D01*
D02*
G37*
G36*
X312492D02*
X311051D01*
X311310Y365018D01*
X311868Y364459D01*
X312492Y364201D01*
Y365642D01*
D02*
G37*
G36*
X319397Y356271D02*
Y354831D01*
X320838D01*
X320580Y355455D01*
X320022Y356013D01*
X319397Y356271D01*
D02*
G37*
G36*
X318397D02*
X317774Y356013D01*
X317215Y355455D01*
X316957Y354831D01*
X318397D01*
Y356271D01*
D02*
G37*
G36*
X307587D02*
Y354831D01*
X309027D01*
X308769Y355455D01*
X308210Y356013D01*
X307587Y356271D01*
D02*
G37*
G36*
X306587D02*
X305962Y356013D01*
X305404Y355455D01*
X305146Y354831D01*
X306587D01*
Y356271D01*
D02*
G37*
G36*
X320838Y353831D02*
X319397D01*
Y352390D01*
X320022Y352648D01*
X320580Y353207D01*
X320838Y353831D01*
D02*
G37*
G36*
X318397D02*
X316957D01*
X317215Y353207D01*
X317774Y352648D01*
X318397Y352390D01*
Y353831D01*
D02*
G37*
G36*
X309027D02*
X307587D01*
Y352390D01*
X308210Y352648D01*
X308769Y353207D01*
X309027Y353831D01*
D02*
G37*
G36*
X306587D02*
X305146D01*
X305404Y353207D01*
X305962Y352648D01*
X306587Y352390D01*
Y353831D01*
D02*
G37*
G36*
X345000Y354806D02*
X344826Y354772D01*
X344648D01*
X344483Y354704D01*
X344309Y354669D01*
X344161Y354570D01*
X343996Y354502D01*
X343871Y354376D01*
X343723Y354277D01*
X343624Y354129D01*
X343498Y354004D01*
X343430Y353839D01*
X343331Y353691D01*
X343296Y353517D01*
X343228Y353352D01*
Y353174D01*
X343194Y353000D01*
X343228Y352825D01*
Y352648D01*
X343296Y352483D01*
X343331Y352309D01*
X343430Y352161D01*
X343498Y351996D01*
X343624Y351871D01*
X343723Y351723D01*
X346694Y348752D01*
Y345000D01*
X346728Y344826D01*
Y344648D01*
X346796Y344483D01*
X346831Y344309D01*
X346930Y344161D01*
X346998Y343996D01*
X347124Y343871D01*
X347223Y343723D01*
X347371Y343624D01*
X347496Y343498D01*
X347661Y343430D01*
X347809Y343331D01*
X347983Y343296D01*
X348148Y343228D01*
X348325D01*
X348500Y343194D01*
X348675Y343228D01*
X348852D01*
X349017Y343296D01*
X349191Y343331D01*
X349339Y343430D01*
X349504Y343498D01*
X349629Y343624D01*
X349777Y343723D01*
X349876Y343871D01*
X350002Y343996D01*
X350070Y344161D01*
X350169Y344309D01*
X350204Y344483D01*
X350272Y344648D01*
Y344826D01*
X350306Y345000D01*
Y349500D01*
X350169Y350191D01*
X349777Y350777D01*
X346277Y354277D01*
X346129Y354376D01*
X346004Y354502D01*
X345839Y354570D01*
X345691Y354669D01*
X345517Y354704D01*
X345352Y354772D01*
X345175D01*
X345000Y354806D01*
D02*
G37*
G36*
X325303Y344460D02*
Y343020D01*
X326744D01*
X326485Y343644D01*
X325927Y344202D01*
X325303Y344460D01*
D02*
G37*
G36*
X324303D02*
X323679Y344202D01*
X323121Y343644D01*
X322862Y343020D01*
X324303D01*
Y344460D01*
D02*
G37*
G36*
X313492D02*
Y343020D01*
X314933D01*
X314674Y343644D01*
X314116Y344202D01*
X313492Y344460D01*
D02*
G37*
G36*
X312492D02*
X311868Y344202D01*
X311310Y343644D01*
X311051Y343020D01*
X312492D01*
Y344460D01*
D02*
G37*
G36*
X298500Y344693D02*
Y341500D01*
X301693D01*
X301445Y342427D01*
X300958Y343270D01*
X300270Y343958D01*
X299427Y344445D01*
X298500Y344693D01*
D02*
G37*
G36*
X326744Y342020D02*
X325303D01*
Y340579D01*
X325927Y340837D01*
X326485Y341396D01*
X326744Y342020D01*
D02*
G37*
G36*
X324303D02*
X322862D01*
X323121Y341396D01*
X323679Y340837D01*
X324303Y340579D01*
Y342020D01*
D02*
G37*
G36*
X314933D02*
X313492D01*
Y340579D01*
X314116Y340837D01*
X314674Y341396D01*
X314933Y342020D01*
D02*
G37*
G36*
X312492D02*
X311051D01*
X311310Y341396D01*
X311868Y340837D01*
X312492Y340579D01*
Y342020D01*
D02*
G37*
G36*
X301693Y340500D02*
X298500D01*
Y337307D01*
X299427Y337555D01*
X300270Y338042D01*
X300958Y338730D01*
X301445Y339573D01*
X301693Y340500D01*
D02*
G37*
G36*
X461130Y332649D02*
Y331209D01*
X462570D01*
X462312Y331833D01*
X461754Y332391D01*
X461130Y332649D01*
D02*
G37*
G36*
X460130D02*
X459506Y332391D01*
X458948Y331833D01*
X458689Y331209D01*
X460130D01*
Y332649D01*
D02*
G37*
G36*
X467000Y334193D02*
X466073Y333945D01*
X465230Y333458D01*
X464542Y332770D01*
X464055Y331927D01*
X463807Y331000D01*
X467000D01*
Y334193D01*
D02*
G37*
G36*
X462570Y330209D02*
X461130D01*
Y328768D01*
X461754Y329026D01*
X462312Y329585D01*
X462570Y330209D01*
D02*
G37*
G36*
X460130D02*
X458689D01*
X458948Y329585D01*
X459506Y329026D01*
X460130Y328768D01*
Y330209D01*
D02*
G37*
G36*
X467000Y330000D02*
X463807D01*
X464055Y329073D01*
X464542Y328230D01*
X465230Y327542D01*
X466073Y327055D01*
X467000Y326807D01*
Y330000D01*
D02*
G37*
G36*
X337114Y320838D02*
Y319397D01*
X338555D01*
X338296Y320022D01*
X337738Y320580D01*
X337114Y320838D01*
D02*
G37*
G36*
X336114D02*
X335490Y320580D01*
X334932Y320022D01*
X334673Y319397D01*
X336114D01*
Y320838D01*
D02*
G37*
G36*
X353500Y387306D02*
X353326Y387272D01*
X353148D01*
X352983Y387204D01*
X352809Y387169D01*
X352661Y387070D01*
X352496Y387002D01*
X352371Y386876D01*
X352223Y386777D01*
X352124Y386629D01*
X351998Y386504D01*
X351930Y386339D01*
X351831Y386191D01*
X351796Y386017D01*
X351728Y385852D01*
Y385675D01*
X351694Y385500D01*
Y319500D01*
X351728Y319325D01*
Y319148D01*
X351796Y318983D01*
X351831Y318809D01*
X351930Y318661D01*
X351998Y318496D01*
X352124Y318371D01*
X352223Y318223D01*
X352371Y318124D01*
X352496Y317998D01*
X352661Y317930D01*
X352809Y317831D01*
X352983Y317796D01*
X353148Y317728D01*
X353326D01*
X353500Y317694D01*
X353675Y317728D01*
X353852D01*
X354017Y317796D01*
X354191Y317831D01*
X354339Y317930D01*
X354504Y317998D01*
X354629Y318124D01*
X354777Y318223D01*
X354876Y318371D01*
X355002Y318496D01*
X355070Y318661D01*
X355169Y318809D01*
X355204Y318983D01*
X355272Y319148D01*
Y319325D01*
X355306Y319500D01*
Y385500D01*
X355272Y385675D01*
Y385852D01*
X355204Y386017D01*
X355169Y386191D01*
X355070Y386339D01*
X355002Y386504D01*
X354876Y386629D01*
X354777Y386777D01*
X354629Y386876D01*
X354504Y387002D01*
X354339Y387070D01*
X354191Y387169D01*
X354017Y387204D01*
X353852Y387272D01*
X353675D01*
X353500Y387306D01*
D02*
G37*
G36*
X338555Y318397D02*
X337114D01*
Y316957D01*
X337738Y317215D01*
X338296Y317774D01*
X338555Y318397D01*
D02*
G37*
G36*
X336114D02*
X334673D01*
X334932Y317774D01*
X335490Y317215D01*
X336114Y316957D01*
Y318397D01*
D02*
G37*
G36*
X376163Y310723D02*
X374723D01*
Y309282D01*
X375347Y309541D01*
X375905Y310099D01*
X376163Y310723D01*
D02*
G37*
G36*
X373723D02*
X372282D01*
X372540Y310099D01*
X373099Y309541D01*
X373723Y309282D01*
Y310723D01*
D02*
G37*
G36*
X413886Y309027D02*
Y307587D01*
X415326D01*
X415068Y308210D01*
X414510Y308769D01*
X413886Y309027D01*
D02*
G37*
G36*
X412886D02*
X412262Y308769D01*
X411703Y308210D01*
X411445Y307587D01*
X412886D01*
Y309027D01*
D02*
G37*
G36*
X402075D02*
Y307587D01*
X403515D01*
X403257Y308210D01*
X402699Y308769D01*
X402075Y309027D01*
D02*
G37*
G36*
X401075D02*
X400451Y308769D01*
X399892Y308210D01*
X399634Y307587D01*
X401075D01*
Y309027D01*
D02*
G37*
G36*
X343020D02*
Y307587D01*
X344460D01*
X344202Y308210D01*
X343644Y308769D01*
X343020Y309027D01*
D02*
G37*
G36*
X342020D02*
X341396Y308769D01*
X340837Y308210D01*
X340579Y307587D01*
X342020D01*
Y309027D01*
D02*
G37*
G36*
X415326Y306587D02*
X413886D01*
Y305146D01*
X414510Y305404D01*
X415068Y305962D01*
X415326Y306587D01*
D02*
G37*
G36*
X412886D02*
X411445D01*
X411703Y305962D01*
X412262Y305404D01*
X412886Y305146D01*
Y306587D01*
D02*
G37*
G36*
X403515D02*
X402075D01*
Y305146D01*
X402699Y305404D01*
X403257Y305962D01*
X403515Y306587D01*
D02*
G37*
G36*
X401075D02*
X399634D01*
X399892Y305962D01*
X400451Y305404D01*
X401075Y305146D01*
Y306587D01*
D02*
G37*
G36*
X344460D02*
X343020D01*
Y305146D01*
X343644Y305404D01*
X344202Y305962D01*
X344460Y306587D01*
D02*
G37*
G36*
X342020D02*
X340579D01*
X340837Y305962D01*
X341396Y305404D01*
X342020Y305146D01*
Y306587D01*
D02*
G37*
G36*
X467035Y297216D02*
Y295776D01*
X468476D01*
X468218Y296399D01*
X467659Y296958D01*
X467035Y297216D01*
D02*
G37*
G36*
X466035D02*
X465411Y296958D01*
X464853Y296399D01*
X464595Y295776D01*
X466035D01*
Y297216D01*
D02*
G37*
G36*
X360736D02*
Y295776D01*
X362177D01*
X361918Y296399D01*
X361360Y296958D01*
X360736Y297216D01*
D02*
G37*
G36*
X359736D02*
X359112Y296958D01*
X358554Y296399D01*
X358295Y295776D01*
X359736D01*
Y297216D01*
D02*
G37*
G36*
X348925D02*
Y295776D01*
X350366D01*
X350107Y296399D01*
X349549Y296958D01*
X348925Y297216D01*
D02*
G37*
G36*
X347925D02*
X347301Y296958D01*
X346743Y296399D01*
X346484Y295776D01*
X347925D01*
Y297216D01*
D02*
G37*
G36*
X325303D02*
Y295776D01*
X326744D01*
X326485Y296399D01*
X325927Y296958D01*
X325303Y297216D01*
D02*
G37*
G36*
X324303D02*
X323679Y296958D01*
X323121Y296399D01*
X322862Y295776D01*
X324303D01*
Y297216D01*
D02*
G37*
G36*
X468476Y294776D02*
X467035D01*
Y293335D01*
X467659Y293593D01*
X468218Y294151D01*
X468476Y294776D01*
D02*
G37*
G36*
X466035D02*
X464595D01*
X464853Y294151D01*
X465411Y293593D01*
X466035Y293335D01*
Y294776D01*
D02*
G37*
G36*
X362177D02*
X360736D01*
Y293335D01*
X361360Y293593D01*
X361918Y294151D01*
X362177Y294776D01*
D02*
G37*
G36*
X359736D02*
X358295D01*
X358554Y294151D01*
X359112Y293593D01*
X359736Y293335D01*
Y294776D01*
D02*
G37*
G36*
X350366D02*
X348925D01*
Y293335D01*
X349549Y293593D01*
X350107Y294151D01*
X350366Y294776D01*
D02*
G37*
G36*
X347925D02*
X346484D01*
X346743Y294151D01*
X347301Y293593D01*
X347925Y293335D01*
Y294776D01*
D02*
G37*
G36*
X326744D02*
X325303D01*
Y293335D01*
X325927Y293593D01*
X326485Y294151D01*
X326744Y294776D01*
D02*
G37*
G36*
X324303D02*
X322862D01*
X323121Y294151D01*
X323679Y293593D01*
X324303Y293335D01*
Y294776D01*
D02*
G37*
G36*
X454025Y303508D02*
X452125D01*
X450261Y303137D01*
X448506Y302410D01*
X446926Y301355D01*
X445582Y300011D01*
X444527Y298431D01*
X443800Y296676D01*
X443429Y294812D01*
Y292912D01*
X443800Y291049D01*
X444527Y289293D01*
X445582Y287713D01*
X446926Y286370D01*
X448506Y285314D01*
X450261Y284587D01*
X452125Y284216D01*
X454025D01*
X455888Y284587D01*
X457644Y285314D01*
X459224Y286370D01*
X460567Y287713D01*
X461623Y289293D01*
X462350Y291049D01*
X462720Y292912D01*
Y294812D01*
X462350Y296676D01*
X461623Y298431D01*
X460567Y300011D01*
X459224Y301355D01*
X457644Y302410D01*
X455888Y303137D01*
X454025Y303508D01*
D02*
G37*
G36*
X313438D02*
X311538D01*
X309675Y303137D01*
X307919Y302410D01*
X306339Y301355D01*
X304996Y300011D01*
X303940Y298431D01*
X303213Y296676D01*
X302842Y294812D01*
Y292912D01*
X303213Y291049D01*
X303940Y289293D01*
X304996Y287713D01*
X306339Y286370D01*
X306970Y285949D01*
X306818Y285449D01*
X306692D01*
X305962Y285147D01*
X305404Y284589D01*
X305146Y283964D01*
X309027D01*
X308852Y284387D01*
X309235Y284769D01*
X309675Y284587D01*
X311538Y284216D01*
X313438D01*
X315302Y284587D01*
X317057Y285314D01*
X318637Y286370D01*
X319981Y287713D01*
X321036Y289293D01*
X321763Y291049D01*
X322134Y292912D01*
Y294812D01*
X321763Y296676D01*
X321036Y298431D01*
X319981Y300011D01*
X318637Y301355D01*
X317057Y302410D01*
X315302Y303137D01*
X313438Y303508D01*
D02*
G37*
G36*
X461130Y285405D02*
Y283964D01*
X462570D01*
X462312Y284589D01*
X461754Y285147D01*
X461130Y285405D01*
D02*
G37*
G36*
X460130D02*
X459506Y285147D01*
X458948Y284589D01*
X458689Y283964D01*
X460130D01*
Y285405D01*
D02*
G37*
G36*
X437508D02*
Y283964D01*
X438948D01*
X438690Y284589D01*
X438132Y285147D01*
X437508Y285405D01*
D02*
G37*
G36*
X436508D02*
X435884Y285147D01*
X435326Y284589D01*
X435067Y283964D01*
X436508D01*
Y285405D01*
D02*
G37*
G36*
X425697D02*
Y283964D01*
X427137D01*
X426879Y284589D01*
X426321Y285147D01*
X425697Y285405D01*
D02*
G37*
G36*
X424697D02*
X424073Y285147D01*
X423515Y284589D01*
X423256Y283964D01*
X424697D01*
Y285405D01*
D02*
G37*
G36*
X413886D02*
Y283964D01*
X415326D01*
X415068Y284589D01*
X414510Y285147D01*
X413886Y285405D01*
D02*
G37*
G36*
X412886D02*
X412262Y285147D01*
X411703Y284589D01*
X411445Y283964D01*
X412886D01*
Y285405D01*
D02*
G37*
G36*
X402075D02*
Y283964D01*
X403515D01*
X403257Y284589D01*
X402699Y285147D01*
X402075Y285405D01*
D02*
G37*
G36*
X401075D02*
X400451Y285147D01*
X399892Y284589D01*
X399634Y283964D01*
X401075D01*
Y285405D01*
D02*
G37*
G36*
X390264D02*
Y283964D01*
X391704D01*
X391446Y284589D01*
X390888Y285147D01*
X390264Y285405D01*
D02*
G37*
G36*
X389264D02*
X388640Y285147D01*
X388082Y284589D01*
X387823Y283964D01*
X389264D01*
Y285405D01*
D02*
G37*
G36*
X378453D02*
Y283964D01*
X379893D01*
X379635Y284589D01*
X379077Y285147D01*
X378453Y285405D01*
D02*
G37*
G36*
X377453D02*
X376829Y285147D01*
X376271Y284589D01*
X376012Y283964D01*
X377453D01*
Y285405D01*
D02*
G37*
G36*
X331209D02*
Y283964D01*
X332649D01*
X332391Y284589D01*
X331833Y285147D01*
X331209Y285405D01*
D02*
G37*
G36*
X330209D02*
X329585Y285147D01*
X329026Y284589D01*
X328768Y283964D01*
X330209D01*
Y285405D01*
D02*
G37*
G36*
X319397D02*
Y283964D01*
X320838D01*
X320580Y284589D01*
X320022Y285147D01*
X319397Y285405D01*
D02*
G37*
G36*
X318397D02*
X317774Y285147D01*
X317215Y284589D01*
X316957Y283964D01*
X318397D01*
Y285405D01*
D02*
G37*
G36*
X462570Y282964D02*
X461130D01*
Y281524D01*
X461754Y281782D01*
X462312Y282341D01*
X462570Y282964D01*
D02*
G37*
G36*
X460130D02*
X458689D01*
X458948Y282341D01*
X459506Y281782D01*
X460130Y281524D01*
Y282964D01*
D02*
G37*
G36*
X438948D02*
X437508D01*
Y281524D01*
X438132Y281782D01*
X438690Y282341D01*
X438948Y282964D01*
D02*
G37*
G36*
X436508D02*
X435067D01*
X435326Y282341D01*
X435884Y281782D01*
X436508Y281524D01*
Y282964D01*
D02*
G37*
G36*
X427137D02*
X425697D01*
Y281524D01*
X426321Y281782D01*
X426879Y282341D01*
X427137Y282964D01*
D02*
G37*
G36*
X424697D02*
X423256D01*
X423515Y282341D01*
X424073Y281782D01*
X424697Y281524D01*
Y282964D01*
D02*
G37*
G36*
X415326D02*
X413886D01*
Y281524D01*
X414510Y281782D01*
X415068Y282341D01*
X415326Y282964D01*
D02*
G37*
G36*
X412886D02*
X411445D01*
X411703Y282341D01*
X412262Y281782D01*
X412886Y281524D01*
Y282964D01*
D02*
G37*
G36*
X403515D02*
X402075D01*
Y281524D01*
X402699Y281782D01*
X403257Y282341D01*
X403515Y282964D01*
D02*
G37*
G36*
X401075D02*
X399634D01*
X399892Y282341D01*
X400451Y281782D01*
X401075Y281524D01*
Y282964D01*
D02*
G37*
G36*
X391704D02*
X390264D01*
Y281524D01*
X390888Y281782D01*
X391446Y282341D01*
X391704Y282964D01*
D02*
G37*
G36*
X389264D02*
X387823D01*
X388082Y282341D01*
X388640Y281782D01*
X389264Y281524D01*
Y282964D01*
D02*
G37*
G36*
X379893D02*
X378453D01*
Y281524D01*
X379077Y281782D01*
X379635Y282341D01*
X379893Y282964D01*
D02*
G37*
G36*
X377453D02*
X376012D01*
X376271Y282341D01*
X376829Y281782D01*
X377453Y281524D01*
Y282964D01*
D02*
G37*
G36*
X332649D02*
X331209D01*
Y281524D01*
X331833Y281782D01*
X332391Y282341D01*
X332649Y282964D01*
D02*
G37*
G36*
X330209D02*
X328768D01*
X329026Y282341D01*
X329585Y281782D01*
X330209Y281524D01*
Y282964D01*
D02*
G37*
G36*
X320838D02*
X319397D01*
Y281524D01*
X320022Y281782D01*
X320580Y282341D01*
X320838Y282964D01*
D02*
G37*
G36*
X318397D02*
X316957D01*
X317215Y282341D01*
X317774Y281782D01*
X318397Y281524D01*
Y282964D01*
D02*
G37*
G36*
X309027D02*
X307587D01*
Y281524D01*
X308210Y281782D01*
X308769Y282341D01*
X309027Y282964D01*
D02*
G37*
G36*
X306587D02*
X305146D01*
X305404Y282341D01*
X305962Y281782D01*
X306587Y281524D01*
Y282964D01*
D02*
G37*
%LPD*%
G36*
X408801Y490749D02*
X408101Y490050D01*
X407415Y488860D01*
X407059Y487533D01*
Y486160D01*
X407415Y484833D01*
X408101Y483643D01*
X409073Y482672D01*
X410262Y481985D01*
X411589Y481630D01*
X412962D01*
X414289Y481985D01*
X415479Y482672D01*
X416450Y483643D01*
X417137Y484833D01*
X417492Y486160D01*
Y487148D01*
X417992Y487356D01*
X432981Y472367D01*
X432789Y471905D01*
X421208D01*
X421074Y472405D01*
X421515Y472660D01*
X422526Y473670D01*
X423240Y474908D01*
X423610Y476289D01*
Y476504D01*
X418181D01*
X412752D01*
Y476289D01*
X413122Y474908D01*
X413837Y473670D01*
X414848Y472660D01*
X415288Y472405D01*
X415155Y471905D01*
X408971D01*
X408837Y472405D01*
X409573Y472830D01*
X410544Y473801D01*
X411231Y474990D01*
X411587Y476317D01*
Y477691D01*
X411231Y479017D01*
X410544Y480207D01*
X409573Y481178D01*
X408384Y481865D01*
X407057Y482221D01*
X405683D01*
X404357Y481865D01*
X403167Y481178D01*
X402369Y480381D01*
X401869Y480588D01*
Y481822D01*
X402478Y481985D01*
X403668Y482672D01*
X404639Y483643D01*
X405326Y484833D01*
X405681Y486160D01*
Y487533D01*
X405326Y488860D01*
X404639Y490050D01*
X403940Y490749D01*
X404147Y491249D01*
X408593D01*
X408801Y490749D01*
D02*
G37*
%LPC*%
G36*
X418896Y482433D02*
X418681D01*
Y477504D01*
X423610D01*
Y477719D01*
X423240Y479100D01*
X422526Y480337D01*
X421515Y481348D01*
X420277Y482063D01*
X418896Y482433D01*
D02*
G37*
G36*
X417681D02*
X417466D01*
X416085Y482063D01*
X414848Y481348D01*
X413837Y480337D01*
X413122Y479100D01*
X412752Y477719D01*
Y477504D01*
X417681D01*
Y482433D01*
D02*
G37*
%LPD*%
D12*
X371035Y492850D02*
X376842Y498658D01*
X350815Y492850D02*
X371035D01*
X347315Y496350D02*
X350815Y492850D01*
X347315Y496350D02*
Y508500D01*
X419000Y385000D02*
Y446000D01*
X420500Y383500D02*
X426000D01*
X419000Y385000D02*
X420500Y383500D01*
X426000D02*
X427000Y384500D01*
Y388000D01*
X398000Y467000D02*
X419000Y446000D01*
X371500Y467000D02*
X398000D01*
X365032Y473468D02*
X371500Y467000D01*
X365032Y473468D02*
Y486846D01*
X376842Y473158D02*
X380000Y470000D01*
X399000D02*
X422000Y447000D01*
X380000Y470000D02*
X399000D01*
X376842Y473158D02*
Y486846D01*
X422000Y388000D02*
Y447000D01*
X454468Y389745D02*
X456000Y388213D01*
X414681Y492654D02*
X454468Y452866D01*
Y389745D02*
Y452866D01*
X434051Y470500D02*
X452500Y452051D01*
Y389500D02*
Y452051D01*
X451000Y388000D02*
X452500Y389500D01*
X456000Y388000D02*
Y388213D01*
X403000Y470500D02*
X434051D01*
X400465Y473035D02*
Y486846D01*
Y473035D02*
X403000Y470500D01*
X394461Y492654D02*
X414681D01*
X388653Y486846D02*
X394461Y492654D01*
D52*
X361244Y326756D02*
X373694Y314306D01*
X388194D01*
X390000Y312500D01*
X358000Y332555D02*
Y387500D01*
Y332555D02*
X361244Y329310D01*
Y326756D02*
Y329310D01*
X348500Y345000D02*
Y349500D01*
X345000Y353000D02*
X348500Y349500D01*
X364000Y327897D02*
Y339897D01*
X366358Y342256D01*
X365397Y326500D02*
X437500D01*
X364000Y327897D02*
X365397Y326500D01*
X437500D02*
X465500Y354500D01*
X411500Y331000D02*
X430500Y350000D01*
X367500Y331000D02*
X411500D01*
X406000Y335000D02*
X440000Y369000D01*
X368500Y335000D02*
X406000D01*
X366358Y342256D02*
X366756D01*
X367500Y343000D01*
X433949Y371756D02*
X460744D01*
X424000Y369000D02*
X431193D01*
X433949Y371756D01*
X460744D02*
X468256Y364244D01*
X468000Y340500D02*
X468256Y340756D01*
Y364244D01*
X367500Y339500D02*
X391000D01*
X410000Y358500D01*
X358000Y387500D02*
X363500Y393000D01*
X414195Y296244D02*
X428451Y310500D01*
X374756Y296244D02*
X414195D01*
X373000Y298000D02*
X374756Y296244D01*
X428451Y310500D02*
X468000D01*
X411537Y299000D02*
X433037Y320500D01*
X468000D01*
X377500Y299000D02*
X411537D01*
X376500Y373000D02*
X394000Y390500D01*
Y391500D01*
X404500Y401500D02*
X408000D01*
X416500Y410000D01*
X386000Y407500D02*
X392000Y413500D01*
X406500D01*
X343256Y387256D02*
X359500Y403500D01*
X340244Y384244D02*
X341641D01*
X337500Y324500D02*
Y381500D01*
X359500Y403500D02*
Y416000D01*
X343256Y385858D02*
Y387256D01*
X337500Y381500D02*
X340244Y384244D01*
X341641D02*
X343256Y385858D01*
X353500Y319500D02*
Y385500D01*
X337500Y324500D02*
X345500Y316500D01*
X443000Y501000D02*
Y507500D01*
X436000Y514500D02*
X443000Y507500D01*
X298500Y415500D02*
X309500Y404500D01*
X298500Y415500D02*
Y444500D01*
X344603Y521500D02*
X393370D01*
X406370Y508500D01*
X337744Y389756D02*
X340500Y387000D01*
X337744Y389756D02*
Y514642D01*
X344603Y521500D01*
X345000Y518000D02*
X361437D01*
X370937Y508500D01*
X340500Y513500D02*
X345000Y518000D01*
X340500Y412500D02*
Y513500D01*
D53*
X467500Y310500D02*
D03*
X298000Y311000D02*
D03*
D54*
X467500Y320500D02*
D03*
Y330500D02*
D03*
Y340500D02*
D03*
X298000Y361000D02*
D03*
Y351000D02*
D03*
Y341000D02*
D03*
Y331000D02*
D03*
Y321000D02*
D03*
D55*
X443000Y501000D02*
D03*
D56*
Y491000D02*
D03*
Y481000D02*
D03*
D57*
X381496Y452500D02*
D03*
X453075Y293862D02*
D03*
X312488D02*
D03*
D58*
X418181Y508500D02*
D03*
D59*
X406370D02*
D03*
X394559D02*
D03*
X382748D02*
D03*
X370937D02*
D03*
X359126D02*
D03*
X347315D02*
D03*
X353221Y498658D02*
D03*
X365032D02*
D03*
X376842D02*
D03*
X388653D02*
D03*
X400465D02*
D03*
X412276D02*
D03*
Y486846D02*
D03*
X400465D02*
D03*
X388653D02*
D03*
X376842D02*
D03*
X365032D02*
D03*
X353221D02*
D03*
X347315Y477004D02*
D03*
X359126D02*
D03*
X370937D02*
D03*
X382748D02*
D03*
X394559D02*
D03*
X406370D02*
D03*
X418181D02*
D03*
D60*
X446724Y534091D02*
D03*
X318772D02*
D03*
D61*
X374223Y311223D02*
D03*
X373000Y298000D02*
D03*
X348500Y345000D02*
D03*
X466535Y531496D02*
D03*
X460630Y519685D02*
D03*
X466535Y507874D02*
D03*
X460630Y496063D02*
D03*
X466535Y484252D02*
D03*
X460630Y472441D02*
D03*
X466535Y460630D02*
D03*
X460630Y448819D02*
D03*
X466535Y437008D02*
D03*
X460630Y401575D02*
D03*
X466535Y389764D02*
D03*
X460630Y330709D02*
D03*
X466535Y295275D02*
D03*
X460630Y283465D02*
D03*
X448819Y519685D02*
D03*
Y496063D02*
D03*
Y472441D02*
D03*
Y401575D02*
D03*
X437008Y519685D02*
D03*
Y401575D02*
D03*
X442913Y389764D02*
D03*
X437008Y377953D02*
D03*
Y283465D02*
D03*
X431102Y531496D02*
D03*
X425197Y496063D02*
D03*
X431102Y484252D02*
D03*
Y460630D02*
D03*
Y437008D02*
D03*
X425197Y283465D02*
D03*
X419291Y531496D02*
D03*
X413386Y307086D02*
D03*
Y283465D02*
D03*
X407480Y531496D02*
D03*
X401575Y307086D02*
D03*
Y283465D02*
D03*
X395669Y531496D02*
D03*
X389764Y283465D02*
D03*
X383858Y531496D02*
D03*
Y413386D02*
D03*
Y366142D02*
D03*
X377953Y283465D02*
D03*
X372047Y531496D02*
D03*
Y460630D02*
D03*
Y413386D02*
D03*
X360236Y531496D02*
D03*
Y460630D02*
D03*
Y295275D02*
D03*
X348425Y531496D02*
D03*
X342520Y377953D02*
D03*
Y307086D02*
D03*
X348425Y295275D02*
D03*
X336614Y531496D02*
D03*
X330709Y519685D02*
D03*
Y496063D02*
D03*
Y472441D02*
D03*
Y377953D02*
D03*
X336614Y318898D02*
D03*
X330709Y283465D02*
D03*
X318898Y519685D02*
D03*
X324803Y507874D02*
D03*
X318898Y496063D02*
D03*
X324803Y484252D02*
D03*
X318898Y472441D02*
D03*
X324803Y460630D02*
D03*
X318898Y448819D02*
D03*
Y377953D02*
D03*
Y354331D02*
D03*
X324803Y342520D02*
D03*
Y295275D02*
D03*
X318898Y283465D02*
D03*
X307086Y519685D02*
D03*
X312992Y507874D02*
D03*
X307086Y496063D02*
D03*
X312992Y484252D02*
D03*
X307086Y472441D02*
D03*
X312992Y460630D02*
D03*
Y437008D02*
D03*
X307086Y401575D02*
D03*
Y377953D02*
D03*
X312992Y366142D02*
D03*
X307086Y354331D02*
D03*
X312992Y342520D02*
D03*
X307086Y283465D02*
D03*
X367500Y331000D02*
D03*
X368500Y335000D02*
D03*
X367500Y343000D02*
D03*
X424000Y369000D02*
D03*
X465500Y354500D02*
D03*
X440000Y369000D02*
D03*
X430500Y350000D02*
D03*
X410000Y358500D02*
D03*
X367500Y339500D02*
D03*
X377500Y299000D02*
D03*
X390000Y312500D02*
D03*
X363500Y393000D02*
D03*
X376500Y373000D02*
D03*
X394000Y391500D02*
D03*
X404500Y401500D02*
D03*
X416500Y410000D02*
D03*
X386000Y407500D02*
D03*
X406500Y413500D02*
D03*
X353500Y385500D02*
D03*
Y319500D02*
D03*
X345500Y316500D02*
D03*
X359500Y416000D02*
D03*
X345000Y353000D02*
D03*
X436000Y514500D02*
D03*
X309500Y404500D02*
D03*
X298500Y444500D02*
D03*
X340500Y387000D02*
D03*
Y412500D02*
D03*
X422000Y388000D02*
D03*
X427000D02*
D03*
X456000D02*
D03*
X451000D02*
D03*
M02*
