G04*
G04 #@! TF.GenerationSoftware,Altium Limited,Altium Designer,23.8.1 (32)*
G04*
G04 Layer_Color=16711935*
%FSLAX25Y25*%
%MOIN*%
G70*
G04*
G04 #@! TF.SameCoordinates,823993F6-8BEF-49D6-9206-44A6C2E96FBA*
G04*
G04*
G04 #@! TF.FilePolarity,Positive*
G04*
G01*
G75*
%ADD11C,0.00787*%
%ADD12C,0.01181*%
%ADD13C,0.00394*%
%ADD14C,0.00500*%
G36*
X467362Y422968D02*
X462638D01*
Y424937D01*
X467362D01*
Y422968D01*
D02*
G37*
G36*
X440862D02*
X436138D01*
Y424937D01*
X440862D01*
Y422968D01*
D02*
G37*
G36*
X467362Y417063D02*
X462638D01*
Y419031D01*
X467362D01*
Y417063D01*
D02*
G37*
G36*
X440862D02*
X436138D01*
Y419031D01*
X440862D01*
Y417063D01*
D02*
G37*
G36*
X319362Y316512D02*
X314638D01*
Y318480D01*
X319362D01*
Y316512D01*
D02*
G37*
G36*
Y310606D02*
X314638D01*
Y312575D01*
X319362D01*
Y310606D01*
D02*
G37*
D11*
X467894Y303728D02*
X467106D01*
X467894D01*
X418894Y442976D02*
X418106D01*
X418894D01*
X303902Y425750D02*
X303114D01*
X303902D01*
X443394Y515606D02*
X442606D01*
X443394D01*
X303902Y400750D02*
X303114D01*
X303902D01*
X298494Y303441D02*
X297706D01*
X298494D01*
X462638Y417063D02*
Y424937D01*
X467362D01*
Y417063D02*
Y424937D01*
X462638Y417063D02*
X467362D01*
X436138D02*
Y424937D01*
X440862D01*
Y417063D02*
Y424937D01*
X436138Y417063D02*
X440862D01*
X314638Y310606D02*
Y318480D01*
X319362D01*
Y310606D02*
Y318480D01*
X314638Y310606D02*
X319362D01*
X327716Y305984D02*
Y330000D01*
X342284D01*
Y305984D02*
Y330000D01*
X327716Y305984D02*
X342284D01*
X304992Y520311D02*
X460504D01*
X304992D02*
Y610862D01*
X460504D01*
Y520311D02*
Y610862D01*
D12*
X396091Y440516D02*
X395500Y441106D01*
X394910Y440516D01*
X395500Y439925D01*
X396091Y440516D01*
X421591D02*
X421000Y441106D01*
X420409Y440516D01*
X421000Y439925D01*
X421591Y440516D01*
D13*
X362815Y345216D02*
X364784Y347185D01*
X362815Y307815D02*
Y347185D01*
Y307815D02*
X402185D01*
Y347185D01*
X362815D02*
X402185D01*
X376110Y392295D02*
X389890D01*
Y366705D02*
Y392295D01*
X376110Y366705D02*
X389890D01*
X376110D02*
Y392295D01*
Y383240D02*
X385165Y392295D01*
X414854Y363323D02*
Y378677D01*
X434146D01*
Y363323D02*
Y378677D01*
X414854Y363323D02*
X434146D01*
X414854Y368323D02*
X419854Y363323D01*
X443854D02*
Y378677D01*
X463146D01*
Y363323D02*
Y378677D01*
X443854Y363323D02*
X463146D01*
X443854Y368323D02*
X448854Y363323D01*
X308323Y449646D02*
X323677D01*
Y430354D02*
Y449646D01*
X308323Y430354D02*
X323677D01*
X308323D02*
Y449646D01*
Y444646D02*
X313323Y449646D01*
X432228Y314638D02*
Y334323D01*
X444827D01*
Y314638D02*
Y334323D01*
X432228Y314638D02*
X444827D01*
X293000Y306000D02*
Y366000D01*
Y306000D02*
X303000D01*
Y366000D01*
X293000D02*
X303000D01*
X323780Y292008D02*
Y339646D01*
X346220D01*
Y292008D02*
Y339646D01*
X323780Y292008D02*
X346220D01*
D14*
X462894Y306287D02*
X472106D01*
X462894D02*
Y344713D01*
X472106D01*
Y306287D02*
Y344713D01*
Y306287D02*
Y344713D01*
X421846Y448370D02*
Y459630D01*
X415154D02*
X421846D01*
X415154Y448370D02*
Y459630D01*
Y448370D02*
X421846D01*
X358744Y375252D02*
X364256D01*
X358744Y366748D02*
X364256D01*
X358744D02*
Y375252D01*
X364256Y366748D02*
Y375252D01*
X358744Y380429D02*
X364256D01*
X358744Y388933D02*
X364256D01*
Y380429D02*
Y388933D01*
X358744Y380429D02*
Y388933D01*
X451252Y446744D02*
Y452256D01*
X442748Y446744D02*
Y452256D01*
X451252D01*
X442748Y446744D02*
X451252D01*
Y455244D02*
Y460756D01*
X442748Y455244D02*
Y460756D01*
X451252D01*
X442748Y455244D02*
X451252D01*
X424744Y455252D02*
X430256D01*
X424744Y446748D02*
X430256D01*
X424744D02*
Y455252D01*
X430256Y446748D02*
Y455252D01*
X453910Y425311D02*
X459422D01*
X453910Y416807D02*
X459422D01*
X453910D02*
Y425311D01*
X459422Y416807D02*
Y425311D01*
X445077D02*
X450589D01*
X445077Y416807D02*
X450589D01*
X445077D02*
Y425311D01*
X450589Y416807D02*
Y425311D01*
X401244Y379248D02*
X406756D01*
X401244Y387752D02*
X406756D01*
Y379248D02*
Y387752D01*
X401244Y379248D02*
Y387752D01*
X359748Y396244D02*
Y401756D01*
X368252Y396244D02*
Y401756D01*
X359748Y396244D02*
X368252D01*
X359748Y401756D02*
X368252D01*
X394244Y443248D02*
X399756D01*
X394244Y451752D02*
X399756D01*
Y443248D02*
Y451752D01*
X394244Y443248D02*
Y451752D01*
X402244D02*
X407756D01*
X402244Y443248D02*
X407756D01*
X402244D02*
Y451752D01*
X407756Y443248D02*
Y451752D01*
X362244Y443248D02*
X367756D01*
X362244Y451752D02*
X367756D01*
Y443248D02*
Y451752D01*
X362244Y443248D02*
Y451752D01*
X353744D02*
X359256D01*
X353744Y443248D02*
X359256D01*
X353744D02*
Y451752D01*
X359256Y443248D02*
Y451752D01*
X432748Y341244D02*
Y346756D01*
X441252Y341244D02*
Y346756D01*
X432748Y341244D02*
X441252D01*
X432748Y346756D02*
X441252D01*
X413748Y328744D02*
Y334256D01*
X422252Y328744D02*
Y334256D01*
X413748Y328744D02*
X422252D01*
X413748Y334256D02*
X422252D01*
X416248Y346744D02*
Y352256D01*
X424752Y346744D02*
Y352256D01*
X416248Y346744D02*
X424752D01*
X416248Y352256D02*
X424752D01*
X448248Y346744D02*
Y352256D01*
X456752Y346744D02*
Y352256D01*
X448248Y346744D02*
X456752D01*
X448248Y352256D02*
X456752D01*
X400500Y402720D02*
Y430279D01*
X380500Y402720D02*
X400500D01*
X380500D02*
Y430279D01*
X400500D01*
X426000Y402720D02*
Y430279D01*
X406000Y402720D02*
X426000D01*
X406000D02*
Y430279D01*
X426000D01*
X306185Y413457D02*
Y420543D01*
X300831Y413457D02*
X306185D01*
X300831D02*
Y420543D01*
X306185D01*
X321353Y412748D02*
X326865D01*
X321353Y421252D02*
X326865D01*
Y412748D02*
Y421252D01*
X321353Y412748D02*
Y421252D01*
X311466Y412748D02*
X316978D01*
X311466Y421252D02*
X316978D01*
Y412748D02*
Y421252D01*
X311466Y412748D02*
Y421252D01*
X331240D02*
X336752D01*
X331240Y412748D02*
X336752D01*
X331240D02*
Y421252D01*
X336752Y412748D02*
Y421252D01*
X464850Y468362D02*
Y513638D01*
X435126Y468362D02*
X464850D01*
X435126D02*
Y513638D01*
X464850D01*
X344571Y444244D02*
Y449756D01*
X336067Y444244D02*
Y449756D01*
X344571D01*
X336067Y444244D02*
X344571D01*
X346429Y417744D02*
Y423256D01*
X354933Y417744D02*
Y423256D01*
X346429Y417744D02*
X354933D01*
X346429Y423256D02*
X354933D01*
Y409244D02*
Y414756D01*
X346429Y409244D02*
Y414756D01*
X354933D01*
X346429Y409244D02*
X354933D01*
X331240Y396252D02*
X336752D01*
X331240Y387748D02*
X336752D01*
X331240D02*
Y396252D01*
X336752Y387748D02*
Y396252D01*
X311465Y387748D02*
X316976D01*
X311465Y396252D02*
X316976D01*
Y387748D02*
Y396252D01*
X311465Y387748D02*
Y396252D01*
X306185Y388457D02*
Y395543D01*
X300831Y388457D02*
X306185D01*
X300831D02*
Y395543D01*
X306185D01*
X321354Y387748D02*
X326866D01*
X321354Y396252D02*
X326866D01*
Y387748D02*
Y396252D01*
X321354Y387748D02*
Y396252D01*
X346429Y390244D02*
Y395756D01*
X354933Y390244D02*
Y395756D01*
X346429Y390244D02*
X354933D01*
X346429Y395756D02*
X354933D01*
Y398744D02*
Y404256D01*
X346429Y398744D02*
Y404256D01*
X354933D01*
X346429Y398744D02*
X354933D01*
X386252Y357744D02*
Y363256D01*
X377748Y357744D02*
Y363256D01*
X386252D01*
X377748Y357744D02*
X386252D01*
X432067Y303244D02*
Y308756D01*
X440571Y303244D02*
Y308756D01*
X432067Y303244D02*
X440571D01*
X432067Y308756D02*
X440571D01*
X413744Y323752D02*
X419256D01*
X413744Y315248D02*
X419256D01*
X413744D02*
Y323752D01*
X419256Y315248D02*
Y323752D01*
X381429Y289244D02*
Y294756D01*
X389933Y289244D02*
Y294756D01*
X381429Y289244D02*
X389933D01*
X381429Y294756D02*
X389933D01*
X305744Y318854D02*
X311256D01*
X305744Y310350D02*
X311256D01*
X305744D02*
Y318854D01*
X311256Y310350D02*
Y318854D01*
X375252Y289244D02*
Y294756D01*
X366748Y289244D02*
Y294756D01*
X375252D01*
X366748Y289244D02*
X375252D01*
X305244Y335252D02*
X310756D01*
X305244Y326748D02*
X310756D01*
X305244D02*
Y335252D01*
X310756Y326748D02*
Y335252D01*
X313744D02*
X319256D01*
X313744Y326748D02*
X319256D01*
X313744D02*
Y335252D01*
X319256Y326748D02*
Y335252D01*
X345244Y320748D02*
X350756D01*
X345244Y329252D02*
X350756D01*
Y320748D02*
Y329252D01*
X345244Y320748D02*
Y329252D01*
X332248Y343744D02*
Y349256D01*
X340752Y343744D02*
Y349256D01*
X332248Y343744D02*
X340752D01*
X332248Y349256D02*
X340752D01*
Y359744D02*
Y365256D01*
X332248Y359744D02*
Y365256D01*
X340752D01*
X332248Y359744D02*
X340752D01*
Y351744D02*
Y357256D01*
X332248Y351744D02*
Y357256D01*
X340752D01*
X332248Y351744D02*
X340752D01*
M02*
